<svg width="429" height="273" viewBox="0 0 429 273" fill="none" xmlns="http://www.w3.org/2000/svg">
<rect width="429" height="273" rx="20" fill="black"/>
<path d="M21.5 44.14C21.26 44.14 21.0667 44.0867 20.92 43.98C20.7867 43.8733 20.7067 43.7267 20.68 43.54C20.6533 43.3533 20.6933 43.1467 20.8 42.92L26.26 30.56C26.38 30.28 26.5333 30.08 26.72 29.96C26.9067 29.8267 27.1133 29.76 27.34 29.76C27.5667 29.76 27.7667 29.8267 27.94 29.96C28.1267 30.08 28.2867 30.28 28.42 30.56L33.88 42.92C33.9867 43.1467 34.0267 43.36 34 43.56C33.9867 43.7467 33.9133 43.8933 33.78 44C33.6467 44.0933 33.46 44.14 33.22 44.14C32.9533 44.14 32.74 44.0733 32.58 43.94C32.42 43.7933 32.28 43.5867 32.16 43.32L30.74 40L31.6 40.48H23.04L23.9 40L22.48 43.32C22.36 43.6133 22.2267 43.8267 22.08 43.96C21.9333 44.08 21.74 44.14 21.5 44.14ZM27.3 32L24.18 39.38L23.7 38.96H30.94L30.48 39.38L27.34 32H27.3ZM39.188 44.18C38.188 44.18 37.428 43.8867 36.908 43.3C36.388 42.7 36.128 41.84 36.128 40.72V30.68C36.128 30.3733 36.208 30.1467 36.368 30C36.528 29.84 36.748 29.76 37.028 29.76C37.3213 29.76 37.548 29.84 37.708 30C37.868 30.1467 37.948 30.3733 37.948 30.68V40.58C37.948 41.2733 38.088 41.7933 38.368 42.14C38.6613 42.4733 39.0746 42.64 39.608 42.64C39.728 42.64 39.8346 42.64 39.928 42.64C40.0213 42.6267 40.1146 42.6133 40.208 42.6C40.3546 42.5867 40.4613 42.6267 40.528 42.72C40.5946 42.8133 40.628 43 40.628 43.28C40.628 43.5333 40.568 43.7333 40.448 43.88C40.3413 44.0133 40.1613 44.1 39.908 44.14C39.788 44.1533 39.668 44.16 39.548 44.16C39.428 44.1733 39.308 44.18 39.188 44.18ZM43.0436 44.1C42.7636 44.1 42.5436 44.0133 42.3836 43.84C42.2236 43.6667 42.1436 43.4267 42.1436 43.12V35.14C42.1436 34.82 42.2236 34.58 42.3836 34.42C42.5436 34.2467 42.7636 34.16 43.0436 34.16C43.3369 34.16 43.5636 34.2467 43.7236 34.42C43.8836 34.58 43.9636 34.82 43.9636 35.14V43.12C43.9636 43.4267 43.8836 43.6667 43.7236 43.84C43.5769 44.0133 43.3503 44.1 43.0436 44.1ZM43.0436 32C42.6836 32 42.3969 31.9067 42.1836 31.72C41.9836 31.52 41.8836 31.26 41.8836 30.94C41.8836 30.5933 41.9836 30.3333 42.1836 30.16C42.3969 29.9733 42.6836 29.88 43.0436 29.88C43.4303 29.88 43.7169 29.9733 43.9036 30.16C44.1036 30.3333 44.2036 30.5933 44.2036 30.94C44.2036 31.26 44.1036 31.52 43.9036 31.72C43.7169 31.9067 43.4303 32 43.0436 32ZM51.2697 47.78C50.5497 47.78 49.8497 47.7 49.1697 47.54C48.503 47.38 47.8964 47.1333 47.3497 46.8C47.1764 46.6933 47.0564 46.5667 46.9897 46.42C46.9364 46.2867 46.923 46.1467 46.9497 46C46.9897 45.8533 47.0564 45.72 47.1497 45.6C47.2564 45.4933 47.3764 45.42 47.5097 45.38C47.6564 45.3533 47.803 45.3867 47.9497 45.48C48.5364 45.8133 49.0964 46.04 49.6297 46.16C50.163 46.28 50.6697 46.34 51.1497 46.34C52.0964 46.34 52.803 46.0933 53.2697 45.6C53.7497 45.12 53.9897 44.4133 53.9897 43.48V41.32H54.1697C53.983 42.0667 53.563 42.66 52.9097 43.1C52.2697 43.54 51.523 43.76 50.6697 43.76C49.7897 43.76 49.023 43.56 48.3697 43.16C47.7164 42.7467 47.2097 42.18 46.8497 41.46C46.4897 40.7267 46.3097 39.88 46.3097 38.92C46.3097 38.1867 46.4097 37.5267 46.6097 36.94C46.823 36.34 47.1164 35.8333 47.4897 35.42C47.8764 34.9933 48.3364 34.6667 48.8697 34.44C49.403 34.2 50.003 34.08 50.6697 34.08C51.5364 34.08 52.2897 34.3 52.9297 34.74C53.5697 35.18 53.983 35.7733 54.1697 36.52L53.9497 36.8V35.04C53.9497 34.7333 54.0297 34.5067 54.1897 34.36C54.3497 34.2 54.5764 34.12 54.8697 34.12C55.1497 34.12 55.3697 34.2 55.5297 34.36C55.6897 34.5067 55.7697 34.7333 55.7697 35.04V43.24C55.7697 44.7467 55.383 45.88 54.6097 46.64C53.8497 47.4 52.7364 47.78 51.2697 47.78ZM51.0697 42.32C51.6697 42.32 52.183 42.1867 52.6097 41.92C53.0497 41.64 53.383 41.2467 53.6097 40.74C53.8497 40.22 53.9697 39.6133 53.9697 38.92C53.9697 37.8667 53.7097 37.04 53.1897 36.44C52.6697 35.8267 51.963 35.52 51.0697 35.52C50.4697 35.52 49.9497 35.66 49.5097 35.94C49.083 36.2067 48.7497 36.5933 48.5097 37.1C48.2697 37.6067 48.1497 38.2133 48.1497 38.92C48.1497 39.96 48.4097 40.7867 48.9297 41.4C49.463 42.0133 50.1764 42.32 51.0697 42.32ZM59.5866 44.14C59.3066 44.14 59.0866 44.06 58.9266 43.9C58.7666 43.74 58.6866 43.5067 58.6866 43.2V35.04C58.6866 34.7333 58.7666 34.5067 58.9266 34.36C59.0866 34.2 59.3066 34.12 59.5866 34.12C59.8666 34.12 60.0799 34.2 60.2266 34.36C60.3866 34.5067 60.4666 34.7333 60.4666 35.04V36.68L60.2466 36.38C60.5266 35.62 60.9799 35.0467 61.6066 34.66C62.2466 34.2733 62.9732 34.08 63.7866 34.08C64.5732 34.08 65.2199 34.22 65.7266 34.5C66.2332 34.78 66.6132 35.2067 66.8666 35.78C67.1199 36.3533 67.2466 37.08 67.2466 37.96V43.2C67.2466 43.5067 67.1666 43.74 67.0066 43.9C66.8599 44.06 66.6399 44.14 66.3466 44.14C66.0532 44.14 65.8266 44.06 65.6666 43.9C65.5066 43.74 65.4266 43.5067 65.4266 43.2V38.06C65.4266 37.1933 65.2599 36.56 64.9266 36.16C64.5932 35.76 64.0599 35.56 63.3266 35.56C62.4732 35.56 61.7866 35.8267 61.2666 36.36C60.7599 36.88 60.5066 37.5867 60.5066 38.48V43.2C60.5066 43.8267 60.1999 44.14 59.5866 44.14ZM78.4067 44.18C77.4067 44.18 76.6467 43.8867 76.1267 43.3C75.6067 42.7 75.3467 41.84 75.3467 40.72V30.68C75.3467 30.3733 75.4267 30.1467 75.5867 30C75.7467 29.84 75.9667 29.76 76.2467 29.76C76.5401 29.76 76.7667 29.84 76.9267 30C77.0867 30.1467 77.1667 30.3733 77.1667 30.68V40.58C77.1667 41.2733 77.3067 41.7933 77.5867 42.14C77.8801 42.4733 78.2934 42.64 78.8267 42.64C78.9467 42.64 79.0534 42.64 79.1467 42.64C79.2401 42.6267 79.3334 42.6133 79.4267 42.6C79.5734 42.5867 79.6801 42.6267 79.7467 42.72C79.8134 42.8133 79.8467 43 79.8467 43.28C79.8467 43.5333 79.7867 43.7333 79.6667 43.88C79.5601 44.0133 79.3801 44.1 79.1267 44.14C79.0067 44.1533 78.8867 44.16 78.7667 44.16C78.6467 44.1733 78.5267 44.18 78.4067 44.18ZM85.7647 44.18C84.7114 44.18 83.8047 43.98 83.0447 43.58C82.298 43.1667 81.718 42.5867 81.3047 41.84C80.8914 41.08 80.6847 40.1867 80.6847 39.16C80.6847 38.1467 80.8847 37.26 81.2847 36.5C81.698 35.74 82.258 35.1467 82.9647 34.72C83.6847 34.2933 84.5047 34.08 85.4247 34.08C86.078 34.08 86.6647 34.1933 87.1847 34.42C87.718 34.6333 88.1714 34.9467 88.5447 35.36C88.918 35.7733 89.198 36.28 89.3847 36.88C89.5847 37.4667 89.6847 38.1333 89.6847 38.88C89.6847 39.0933 89.618 39.26 89.4847 39.38C89.3647 39.4867 89.1847 39.54 88.9447 39.54H82.1047V38.38H88.4847L88.1447 38.66C88.1447 37.9667 88.038 37.38 87.8247 36.9C87.6247 36.4067 87.3247 36.0333 86.9247 35.78C86.538 35.5267 86.0514 35.4 85.4647 35.4C84.8247 35.4 84.278 35.5533 83.8247 35.86C83.3714 36.1533 83.0247 36.5733 82.7847 37.12C82.5447 37.6533 82.4247 38.2733 82.4247 38.98V39.1C82.4247 40.3 82.7114 41.2067 83.2847 41.82C83.858 42.4333 84.6847 42.74 85.7647 42.74C86.1914 42.74 86.6247 42.6867 87.0647 42.58C87.518 42.4733 87.9514 42.28 88.3647 42C88.5647 41.88 88.7447 41.8267 88.9047 41.84C89.078 41.84 89.218 41.8933 89.3247 42C89.4314 42.0933 89.498 42.2133 89.5247 42.36C89.5514 42.4933 89.5314 42.64 89.4647 42.8C89.398 42.96 89.2714 43.1 89.0847 43.22C88.6447 43.5267 88.118 43.7667 87.5047 43.94C86.9047 44.1 86.3247 44.18 85.7647 44.18ZM93.4087 44.14C93.1154 44.14 92.8888 44.06 92.7288 43.9C92.5688 43.74 92.4888 43.5067 92.4888 43.2V35.66H91.2888C91.0488 35.66 90.8621 35.6 90.7288 35.48C90.5954 35.3467 90.5288 35.1733 90.5288 34.96C90.5288 34.7333 90.5954 34.56 90.7288 34.44C90.8621 34.32 91.0488 34.26 91.2888 34.26H92.9888L92.4888 34.74V34C92.4888 32.7067 92.8021 31.7267 93.4288 31.06C94.0688 30.38 95.0021 29.9867 96.2288 29.88L96.8488 29.84C97.0488 29.8133 97.2088 29.8467 97.3288 29.94C97.4488 30.02 97.5288 30.1267 97.5688 30.26C97.6088 30.3933 97.6088 30.5333 97.5688 30.68C97.5421 30.8133 97.4821 30.9333 97.3888 31.04C97.2954 31.1467 97.1754 31.2067 97.0288 31.22L96.5888 31.24C95.7888 31.3067 95.2088 31.5467 94.8488 31.96C94.4888 32.36 94.3088 32.96 94.3088 33.76V34.56L94.0488 34.26H96.3487C96.6021 34.26 96.7954 34.32 96.9288 34.44C97.0621 34.56 97.1288 34.7333 97.1288 34.96C97.1288 35.1733 97.0621 35.3467 96.9288 35.48C96.7954 35.6 96.6021 35.66 96.3487 35.66H94.3088V43.2C94.3088 43.8267 94.0088 44.14 93.4087 44.14ZM102.277 44.18C101.491 44.18 100.831 44.04 100.297 43.76C99.7773 43.48 99.384 43.0733 99.1173 42.54C98.864 42.0067 98.7373 41.3533 98.7373 40.58V35.66H97.4573C97.2173 35.66 97.0307 35.6 96.8973 35.48C96.764 35.3467 96.6973 35.1733 96.6973 34.96C96.6973 34.7333 96.764 34.56 96.8973 34.44C97.0307 34.32 97.2173 34.26 97.4573 34.26H98.7373V32.08C98.7373 31.7733 98.8173 31.5467 98.9773 31.4C99.1373 31.24 99.364 31.16 99.6573 31.16C99.9507 31.16 100.171 31.24 100.317 31.4C100.477 31.5467 100.557 31.7733 100.557 32.08V34.26H102.977C103.231 34.26 103.424 34.32 103.557 34.44C103.691 34.56 103.757 34.7333 103.757 34.96C103.757 35.1733 103.691 35.3467 103.557 35.48C103.424 35.6 103.231 35.66 102.977 35.66H100.557V40.42C100.557 41.1533 100.711 41.7067 101.017 42.08C101.324 42.4533 101.831 42.64 102.537 42.64C102.791 42.64 103.004 42.62 103.177 42.58C103.351 42.5267 103.504 42.5 103.637 42.5C103.757 42.4867 103.857 42.5267 103.937 42.62C104.031 42.7133 104.077 42.8867 104.077 43.14C104.077 43.3267 104.044 43.5 103.977 43.66C103.924 43.8067 103.811 43.9067 103.637 43.96C103.477 44.0133 103.264 44.06 102.997 44.1C102.731 44.1533 102.491 44.18 102.277 44.18Z" fill="#8E8E8E"/>
<path d="M313.5 44.14C313.26 44.14 313.067 44.0867 312.92 43.98C312.787 43.8733 312.707 43.7267 312.68 43.54C312.653 43.3533 312.693 43.1467 312.8 42.92L318.26 30.56C318.38 30.28 318.533 30.08 318.72 29.96C318.907 29.8267 319.113 29.76 319.34 29.76C319.567 29.76 319.767 29.8267 319.94 29.96C320.127 30.08 320.287 30.28 320.42 30.56L325.88 42.92C325.987 43.1467 326.027 43.36 326 43.56C325.987 43.7467 325.913 43.8933 325.78 44C325.647 44.0933 325.46 44.14 325.22 44.14C324.953 44.14 324.74 44.0733 324.58 43.94C324.42 43.7933 324.28 43.5867 324.16 43.32L322.74 40L323.6 40.48H315.04L315.9 40L314.48 43.32C314.36 43.6133 314.227 43.8267 314.08 43.96C313.933 44.08 313.74 44.14 313.5 44.14ZM319.3 32L316.18 39.38L315.7 38.96H322.94L322.48 39.38L319.34 32H319.3ZM331.188 44.18C330.188 44.18 329.428 43.8867 328.908 43.3C328.388 42.7 328.128 41.84 328.128 40.72V30.68C328.128 30.3733 328.208 30.1467 328.368 30C328.528 29.84 328.748 29.76 329.028 29.76C329.321 29.76 329.548 29.84 329.708 30C329.868 30.1467 329.948 30.3733 329.948 30.68V40.58C329.948 41.2733 330.088 41.7933 330.368 42.14C330.661 42.4733 331.075 42.64 331.608 42.64C331.728 42.64 331.835 42.64 331.928 42.64C332.021 42.6267 332.115 42.6133 332.208 42.6C332.355 42.5867 332.461 42.6267 332.528 42.72C332.595 42.8133 332.628 43 332.628 43.28C332.628 43.5333 332.568 43.7333 332.448 43.88C332.341 44.0133 332.161 44.1 331.908 44.14C331.788 44.1533 331.668 44.16 331.548 44.16C331.428 44.1733 331.308 44.18 331.188 44.18ZM335.044 44.1C334.764 44.1 334.544 44.0133 334.384 43.84C334.224 43.6667 334.144 43.4267 334.144 43.12V35.14C334.144 34.82 334.224 34.58 334.384 34.42C334.544 34.2467 334.764 34.16 335.044 34.16C335.337 34.16 335.564 34.2467 335.724 34.42C335.884 34.58 335.964 34.82 335.964 35.14V43.12C335.964 43.4267 335.884 43.6667 335.724 43.84C335.577 44.0133 335.35 44.1 335.044 44.1ZM335.044 32C334.684 32 334.397 31.9067 334.184 31.72C333.984 31.52 333.884 31.26 333.884 30.94C333.884 30.5933 333.984 30.3333 334.184 30.16C334.397 29.9733 334.684 29.88 335.044 29.88C335.43 29.88 335.717 29.9733 335.904 30.16C336.104 30.3333 336.204 30.5933 336.204 30.94C336.204 31.26 336.104 31.52 335.904 31.72C335.717 31.9067 335.43 32 335.044 32ZM343.27 47.78C342.55 47.78 341.85 47.7 341.17 47.54C340.503 47.38 339.896 47.1333 339.35 46.8C339.176 46.6933 339.056 46.5667 338.99 46.42C338.936 46.2867 338.923 46.1467 338.95 46C338.99 45.8533 339.056 45.72 339.15 45.6C339.256 45.4933 339.376 45.42 339.51 45.38C339.656 45.3533 339.803 45.3867 339.95 45.48C340.536 45.8133 341.096 46.04 341.63 46.16C342.163 46.28 342.67 46.34 343.15 46.34C344.096 46.34 344.803 46.0933 345.27 45.6C345.75 45.12 345.99 44.4133 345.99 43.48V41.32H346.17C345.983 42.0667 345.563 42.66 344.91 43.1C344.27 43.54 343.523 43.76 342.67 43.76C341.79 43.76 341.023 43.56 340.37 43.16C339.716 42.7467 339.21 42.18 338.85 41.46C338.49 40.7267 338.31 39.88 338.31 38.92C338.31 38.1867 338.41 37.5267 338.61 36.94C338.823 36.34 339.116 35.8333 339.49 35.42C339.876 34.9933 340.336 34.6667 340.87 34.44C341.403 34.2 342.003 34.08 342.67 34.08C343.536 34.08 344.29 34.3 344.93 34.74C345.57 35.18 345.983 35.7733 346.17 36.52L345.95 36.8V35.04C345.95 34.7333 346.03 34.5067 346.19 34.36C346.35 34.2 346.576 34.12 346.87 34.12C347.15 34.12 347.37 34.2 347.53 34.36C347.69 34.5067 347.77 34.7333 347.77 35.04V43.24C347.77 44.7467 347.383 45.88 346.61 46.64C345.85 47.4 344.736 47.78 343.27 47.78ZM343.07 42.32C343.67 42.32 344.183 42.1867 344.61 41.92C345.05 41.64 345.383 41.2467 345.61 40.74C345.85 40.22 345.97 39.6133 345.97 38.92C345.97 37.8667 345.71 37.04 345.19 36.44C344.67 35.8267 343.963 35.52 343.07 35.52C342.47 35.52 341.95 35.66 341.51 35.94C341.083 36.2067 340.75 36.5933 340.51 37.1C340.27 37.6067 340.15 38.2133 340.15 38.92C340.15 39.96 340.41 40.7867 340.93 41.4C341.463 42.0133 342.176 42.32 343.07 42.32ZM351.587 44.14C351.307 44.14 351.087 44.06 350.927 43.9C350.767 43.74 350.687 43.5067 350.687 43.2V35.04C350.687 34.7333 350.767 34.5067 350.927 34.36C351.087 34.2 351.307 34.12 351.587 34.12C351.867 34.12 352.08 34.2 352.227 34.36C352.387 34.5067 352.467 34.7333 352.467 35.04V36.68L352.247 36.38C352.527 35.62 352.98 35.0467 353.607 34.66C354.247 34.2733 354.973 34.08 355.787 34.08C356.573 34.08 357.22 34.22 357.727 34.5C358.233 34.78 358.613 35.2067 358.867 35.78C359.12 36.3533 359.247 37.08 359.247 37.96V43.2C359.247 43.5067 359.167 43.74 359.007 43.9C358.86 44.06 358.64 44.14 358.347 44.14C358.053 44.14 357.827 44.06 357.667 43.9C357.507 43.74 357.427 43.5067 357.427 43.2V38.06C357.427 37.1933 357.26 36.56 356.927 36.16C356.593 35.76 356.06 35.56 355.327 35.56C354.473 35.56 353.787 35.8267 353.267 36.36C352.76 36.88 352.507 37.5867 352.507 38.48V43.2C352.507 43.8267 352.2 44.14 351.587 44.14ZM368.287 44.14C367.98 44.14 367.747 44.06 367.587 43.9C367.427 43.74 367.347 43.5067 367.347 43.2V35.04C367.347 34.7333 367.427 34.5067 367.587 34.36C367.747 34.2 367.967 34.12 368.247 34.12C368.527 34.12 368.74 34.2 368.887 34.36C369.047 34.5067 369.127 34.7333 369.127 35.04V36.58H368.927C369.14 35.78 369.54 35.1733 370.127 34.76C370.713 34.3467 371.453 34.1133 372.347 34.06C372.56 34.0467 372.733 34.1 372.867 34.22C373 34.3267 373.073 34.5133 373.087 34.78C373.1 35.0333 373.04 35.24 372.907 35.4C372.773 35.5467 372.567 35.6333 372.287 35.66L371.927 35.68C371.047 35.7733 370.367 36.06 369.887 36.54C369.42 37.02 369.187 37.68 369.187 38.52V43.2C369.187 43.5067 369.107 43.74 368.947 43.9C368.8 44.06 368.58 44.14 368.287 44.14ZM375.551 44.1C375.271 44.1 375.051 44.0133 374.891 43.84C374.731 43.6667 374.651 43.4267 374.651 43.12V35.14C374.651 34.82 374.731 34.58 374.891 34.42C375.051 34.2467 375.271 34.16 375.551 34.16C375.845 34.16 376.071 34.2467 376.231 34.42C376.391 34.58 376.471 34.82 376.471 35.14V43.12C376.471 43.4267 376.391 43.6667 376.231 43.84C376.085 44.0133 375.858 44.1 375.551 44.1ZM375.551 32C375.191 32 374.905 31.9067 374.691 31.72C374.491 31.52 374.391 31.26 374.391 30.94C374.391 30.5933 374.491 30.3333 374.691 30.16C374.905 29.9733 375.191 29.88 375.551 29.88C375.938 29.88 376.225 29.9733 376.411 30.16C376.611 30.3333 376.711 30.5933 376.711 30.94C376.711 31.26 376.611 31.52 376.411 31.72C376.225 31.9067 375.938 32 375.551 32ZM383.778 47.78C383.058 47.78 382.358 47.7 381.678 47.54C381.011 47.38 380.404 47.1333 379.858 46.8C379.684 46.6933 379.564 46.5667 379.498 46.42C379.444 46.2867 379.431 46.1467 379.458 46C379.498 45.8533 379.564 45.72 379.658 45.6C379.764 45.4933 379.884 45.42 380.018 45.38C380.164 45.3533 380.311 45.3867 380.458 45.48C381.044 45.8133 381.604 46.04 382.138 46.16C382.671 46.28 383.178 46.34 383.658 46.34C384.604 46.34 385.311 46.0933 385.778 45.6C386.258 45.12 386.498 44.4133 386.498 43.48V41.32H386.678C386.491 42.0667 386.071 42.66 385.418 43.1C384.778 43.54 384.031 43.76 383.178 43.76C382.298 43.76 381.531 43.56 380.877 43.16C380.224 42.7467 379.718 42.18 379.358 41.46C378.998 40.7267 378.818 39.88 378.818 38.92C378.818 38.1867 378.918 37.5267 379.118 36.94C379.331 36.34 379.624 35.8333 379.998 35.42C380.384 34.9933 380.844 34.6667 381.378 34.44C381.911 34.2 382.511 34.08 383.178 34.08C384.044 34.08 384.798 34.3 385.438 34.74C386.078 35.18 386.491 35.7733 386.678 36.52L386.458 36.8V35.04C386.458 34.7333 386.538 34.5067 386.698 34.36C386.858 34.2 387.084 34.12 387.378 34.12C387.658 34.12 387.878 34.2 388.037 34.36C388.198 34.5067 388.278 34.7333 388.278 35.04V43.24C388.278 44.7467 387.891 45.88 387.118 46.64C386.358 47.4 385.244 47.78 383.778 47.78ZM383.578 42.32C384.178 42.32 384.691 42.1867 385.118 41.92C385.558 41.64 385.891 41.2467 386.118 40.74C386.358 40.22 386.478 39.6133 386.478 38.92C386.478 37.8667 386.218 37.04 385.698 36.44C385.178 35.8267 384.471 35.52 383.578 35.52C382.978 35.52 382.458 35.66 382.018 35.94C381.591 36.2067 381.258 36.5933 381.018 37.1C380.778 37.6067 380.658 38.2133 380.658 38.92C380.658 39.96 380.918 40.7867 381.438 41.4C381.971 42.0133 382.684 42.32 383.578 42.32ZM392.094 44.14C391.814 44.14 391.594 44.06 391.434 43.9C391.274 43.74 391.194 43.5067 391.194 43.2V30.68C391.194 30.3733 391.274 30.1467 391.434 30C391.594 29.84 391.814 29.76 392.094 29.76C392.388 29.76 392.614 29.84 392.774 30C392.934 30.1467 393.014 30.3733 393.014 30.68V36.38H392.754C393.034 35.62 393.488 35.0467 394.114 34.66C394.754 34.2733 395.481 34.08 396.294 34.08C397.081 34.08 397.728 34.2267 398.234 34.52C398.741 34.8 399.121 35.2267 399.374 35.8C399.628 36.3733 399.754 37.0933 399.754 37.96V43.2C399.754 43.5067 399.674 43.74 399.514 43.9C399.368 44.06 399.148 44.14 398.854 44.14C398.561 44.14 398.334 44.06 398.174 43.9C398.014 43.74 397.934 43.5067 397.934 43.2V38.06C397.934 37.1933 397.768 36.56 397.434 36.16C397.101 35.76 396.568 35.56 395.834 35.56C394.981 35.56 394.294 35.8267 393.774 36.36C393.268 36.88 393.014 37.5867 393.014 38.48V43.2C393.014 43.8267 392.708 44.14 392.094 44.14ZM406.68 44.18C405.893 44.18 405.233 44.04 404.7 43.76C404.18 43.48 403.786 43.0733 403.52 42.54C403.266 42.0067 403.14 41.3533 403.14 40.58V35.66H401.86C401.62 35.66 401.433 35.6 401.3 35.48C401.166 35.3467 401.1 35.1733 401.1 34.96C401.1 34.7333 401.166 34.56 401.3 34.44C401.433 34.32 401.62 34.26 401.86 34.26H403.14V32.08C403.14 31.7733 403.22 31.5467 403.38 31.4C403.54 31.24 403.766 31.16 404.06 31.16C404.353 31.16 404.573 31.24 404.72 31.4C404.88 31.5467 404.96 31.7733 404.96 32.08V34.26H407.38C407.633 34.26 407.826 34.32 407.96 34.44C408.093 34.56 408.16 34.7333 408.16 34.96C408.16 35.1733 408.093 35.3467 407.96 35.48C407.826 35.6 407.633 35.66 407.38 35.66H404.96V40.42C404.96 41.1533 405.113 41.7067 405.42 42.08C405.726 42.4533 406.233 42.64 406.94 42.64C407.193 42.64 407.406 42.62 407.58 42.58C407.753 42.5267 407.906 42.5 408.04 42.5C408.16 42.4867 408.26 42.5267 408.34 42.62C408.433 42.7133 408.48 42.8867 408.48 43.14C408.48 43.3267 408.446 43.5 408.38 43.66C408.326 43.8067 408.213 43.9067 408.04 43.96C407.88 44.0133 407.666 44.06 407.4 44.1C407.133 44.1533 406.893 44.18 406.68 44.18Z" fill="#8E8E8E"/>
<line x1="20" y1="74" x2="409" y2="74" stroke="#333132" stroke-width="2"/>
<path d="M22.028 125.182C21.6813 125.182 21.404 125.104 21.196 124.948C20.988 124.792 20.8667 124.584 20.832 124.324C20.7973 124.064 20.8493 123.769 20.988 123.44L28.034 107.632C28.2073 107.216 28.424 106.921 28.684 106.748C28.9613 106.575 29.2647 106.488 29.594 106.488C29.906 106.488 30.192 106.575 30.452 106.748C30.7293 106.921 30.9547 107.216 31.128 107.632L38.174 123.44C38.33 123.769 38.3907 124.073 38.356 124.35C38.3213 124.61 38.2087 124.818 38.018 124.974C37.8273 125.113 37.5587 125.182 37.212 125.182C36.8307 125.182 36.5273 125.087 36.302 124.896C36.0767 124.705 35.8773 124.411 35.704 124.012L33.884 119.8L35.106 120.528H24.03L25.226 119.8L23.432 124.012C23.2587 124.428 23.068 124.731 22.86 124.922C22.652 125.095 22.3747 125.182 22.028 125.182ZM29.542 109.66L25.616 118.968L24.966 118.344H34.144L33.546 118.968L29.594 109.66H29.542ZM42.2905 129.862C41.8745 129.862 41.5539 129.749 41.3285 129.524C41.1032 129.299 40.9905 128.969 40.9905 128.536V113.456C40.9905 113.023 41.1032 112.693 41.3285 112.468C41.5539 112.243 41.8659 112.13 42.2645 112.13C42.6805 112.13 43.0012 112.243 43.2265 112.468C43.4519 112.693 43.5645 113.023 43.5645 113.456V115.718L43.2785 115.172C43.5559 114.236 44.1019 113.491 44.9165 112.936C45.7312 112.364 46.6932 112.078 47.8025 112.078C48.9292 112.078 49.9085 112.347 50.7405 112.884C51.5899 113.421 52.2399 114.175 52.6905 115.146C53.1585 116.117 53.3925 117.287 53.3925 118.656C53.3925 119.991 53.1585 121.161 52.6905 122.166C52.2399 123.154 51.5985 123.917 50.7665 124.454C49.9345 124.974 48.9465 125.234 47.8025 125.234C46.7105 125.234 45.7572 124.957 44.9425 124.402C44.1279 123.847 43.5819 123.111 43.3045 122.192H43.6165V128.536C43.6165 128.969 43.4952 129.299 43.2525 129.524C43.0272 129.749 42.7065 129.862 42.2905 129.862ZM47.1525 123.206C47.8805 123.206 48.5132 123.033 49.0505 122.686C49.5879 122.339 50.0039 121.828 50.2985 121.152C50.5932 120.476 50.7405 119.644 50.7405 118.656C50.7405 117.165 50.4112 116.039 49.7525 115.276C49.1112 114.513 48.2445 114.132 47.1525 114.132C46.4419 114.132 45.8092 114.305 45.2545 114.652C44.7172 114.981 44.3012 115.484 44.0065 116.16C43.7119 116.836 43.5645 117.668 43.5645 118.656C43.5645 120.129 43.8939 121.256 44.5525 122.036C45.2112 122.816 46.0779 123.206 47.1525 123.206ZM57.6519 129.862C57.2359 129.862 56.9152 129.749 56.6899 129.524C56.4645 129.299 56.3519 128.969 56.3519 128.536V113.456C56.3519 113.023 56.4645 112.693 56.6899 112.468C56.9152 112.243 57.2272 112.13 57.6259 112.13C58.0419 112.13 58.3625 112.243 58.5879 112.468C58.8132 112.693 58.9259 113.023 58.9259 113.456V115.718L58.6399 115.172C58.9172 114.236 59.4632 113.491 60.2779 112.936C61.0925 112.364 62.0545 112.078 63.1639 112.078C64.2905 112.078 65.2699 112.347 66.1019 112.884C66.9512 113.421 67.6012 114.175 68.0519 115.146C68.5199 116.117 68.7539 117.287 68.7539 118.656C68.7539 119.991 68.5199 121.161 68.0519 122.166C67.6012 123.154 66.9599 123.917 66.1279 124.454C65.2959 124.974 64.3079 125.234 63.1639 125.234C62.0719 125.234 61.1185 124.957 60.3039 124.402C59.4892 123.847 58.9432 123.111 58.6659 122.192H58.9779V128.536C58.9779 128.969 58.8565 129.299 58.6139 129.524C58.3885 129.749 58.0679 129.862 57.6519 129.862ZM62.5139 123.206C63.2419 123.206 63.8745 123.033 64.4119 122.686C64.9492 122.339 65.3652 121.828 65.6599 121.152C65.9545 120.476 66.1019 119.644 66.1019 118.656C66.1019 117.165 65.7725 116.039 65.1139 115.276C64.4725 114.513 63.6059 114.132 62.5139 114.132C61.8032 114.132 61.1705 114.305 60.6159 114.652C60.0785 114.981 59.6625 115.484 59.3679 116.16C59.0732 116.836 58.9259 117.668 58.9259 118.656C58.9259 120.129 59.2552 121.256 59.9139 122.036C60.5725 122.816 61.4392 123.206 62.5139 123.206ZM75.7952 125.234C74.4432 125.234 73.4205 124.844 72.7272 124.064C72.0512 123.267 71.7132 122.123 71.7132 120.632V107.814C71.7132 107.381 71.8259 107.051 72.0512 106.826C72.2765 106.601 72.5972 106.488 73.0132 106.488C73.4292 106.488 73.7499 106.601 73.9752 106.826C74.2179 107.051 74.3392 107.381 74.3392 107.814V120.476C74.3392 121.343 74.5125 121.993 74.8592 122.426C75.2232 122.842 75.7432 123.05 76.4192 123.05C76.5752 123.05 76.7139 123.05 76.8352 123.05C76.9565 123.033 77.0779 123.015 77.1992 122.998C77.4072 122.981 77.5545 123.041 77.6412 123.18C77.7279 123.301 77.7712 123.561 77.7712 123.96C77.7712 124.324 77.6932 124.61 77.5372 124.818C77.3812 125.009 77.1299 125.13 76.7832 125.182C76.6272 125.199 76.4625 125.208 76.2892 125.208C76.1159 125.225 75.9512 125.234 75.7952 125.234ZM85.4875 125.234C84.1008 125.234 82.9048 124.974 81.8995 124.454C80.9115 123.917 80.1402 123.163 79.5855 122.192C79.0482 121.204 78.7795 120.034 78.7795 118.682C78.7795 117.365 79.0482 116.212 79.5855 115.224C80.1228 114.236 80.8595 113.465 81.7955 112.91C82.7315 112.355 83.7975 112.078 84.9935 112.078C85.8775 112.078 86.6662 112.225 87.3595 112.52C88.0528 112.797 88.6422 113.213 89.1275 113.768C89.6302 114.305 90.0028 114.964 90.2455 115.744C90.5055 116.524 90.6355 117.399 90.6355 118.37C90.6355 118.665 90.5488 118.89 90.3755 119.046C90.2022 119.185 89.9422 119.254 89.5955 119.254H80.8595V117.642H88.8675L88.4255 118.006C88.4255 117.139 88.2955 116.403 88.0355 115.796C87.7928 115.189 87.4202 114.73 86.9175 114.418C86.4322 114.089 85.8255 113.924 85.0975 113.924C84.2828 113.924 83.5895 114.115 83.0175 114.496C82.4628 114.877 82.0382 115.406 81.7435 116.082C81.4488 116.758 81.3015 117.547 81.3015 118.448V118.604C81.3015 120.129 81.6568 121.282 82.3675 122.062C83.0955 122.825 84.1442 123.206 85.5135 123.206C86.0335 123.206 86.5795 123.137 87.1515 122.998C87.7408 122.859 88.2955 122.625 88.8155 122.296C89.1102 122.123 89.3702 122.045 89.5955 122.062C89.8382 122.079 90.0288 122.157 90.1675 122.296C90.3235 122.435 90.4188 122.608 90.4535 122.816C90.4882 123.024 90.4535 123.241 90.3495 123.466C90.2455 123.674 90.0635 123.865 89.8035 124.038C89.2142 124.437 88.5295 124.74 87.7495 124.948C86.9695 125.139 86.2155 125.234 85.4875 125.234ZM101.992 125.182C101.558 125.182 101.22 125.061 100.978 124.818C100.752 124.575 100.64 124.237 100.64 123.804V107.866C100.64 107.415 100.752 107.077 100.978 106.852C101.22 106.609 101.558 106.488 101.992 106.488C102.425 106.488 102.754 106.609 102.98 106.852C103.222 107.077 103.344 107.415 103.344 107.866V123.804C103.344 124.237 103.231 124.575 103.006 124.818C102.78 125.061 102.442 125.182 101.992 125.182ZM108.611 125.182C108.195 125.182 107.874 125.069 107.649 124.844C107.424 124.601 107.311 124.272 107.311 123.856V113.456C107.311 113.023 107.424 112.693 107.649 112.468C107.874 112.243 108.186 112.13 108.585 112.13C109.001 112.13 109.313 112.243 109.521 112.468C109.746 112.693 109.859 113.023 109.859 113.456V115.484L109.573 115.016C109.954 114.045 110.552 113.317 111.367 112.832C112.182 112.329 113.118 112.078 114.175 112.078C115.18 112.078 116.012 112.269 116.671 112.65C117.347 113.014 117.85 113.577 118.179 114.34C118.508 115.085 118.673 116.03 118.673 117.174V123.856C118.673 124.272 118.56 124.601 118.335 124.844C118.11 125.069 117.789 125.182 117.373 125.182C116.94 125.182 116.61 125.069 116.385 124.844C116.16 124.601 116.047 124.272 116.047 123.856V117.33C116.047 116.238 115.83 115.441 115.397 114.938C114.981 114.435 114.322 114.184 113.421 114.184C112.364 114.184 111.514 114.513 110.873 115.172C110.249 115.831 109.937 116.715 109.937 117.824V123.856C109.937 124.74 109.495 125.182 108.611 125.182ZM127.881 125.234C126.581 125.234 125.455 124.965 124.501 124.428C123.565 123.873 122.837 123.102 122.317 122.114C121.797 121.109 121.537 119.93 121.537 118.578C121.537 117.573 121.685 116.671 121.979 115.874C122.274 115.059 122.69 114.375 123.227 113.82C123.782 113.265 124.449 112.841 125.229 112.546C126.027 112.234 126.911 112.078 127.881 112.078C128.488 112.078 129.121 112.173 129.779 112.364C130.455 112.537 131.079 112.832 131.651 113.248C131.877 113.387 132.015 113.56 132.067 113.768C132.137 113.959 132.145 114.158 132.093 114.366C132.059 114.574 131.963 114.756 131.807 114.912C131.669 115.051 131.495 115.137 131.287 115.172C131.079 115.189 130.854 115.129 130.611 114.99C130.195 114.695 129.771 114.487 129.337 114.366C128.904 114.227 128.488 114.158 128.089 114.158C127.465 114.158 126.911 114.262 126.425 114.47C125.957 114.661 125.559 114.947 125.229 115.328C124.9 115.692 124.649 116.151 124.475 116.706C124.319 117.261 124.241 117.893 124.241 118.604C124.241 120.025 124.571 121.143 125.229 121.958C125.905 122.755 126.859 123.154 128.089 123.154C128.488 123.154 128.904 123.093 129.337 122.972C129.771 122.851 130.195 122.643 130.611 122.348C130.854 122.209 131.079 122.157 131.287 122.192C131.495 122.227 131.66 122.322 131.781 122.478C131.92 122.617 132.007 122.79 132.041 122.998C132.093 123.189 132.085 123.388 132.015 123.596C131.946 123.804 131.799 123.977 131.573 124.116C131.019 124.515 130.412 124.801 129.753 124.974C129.112 125.147 128.488 125.234 127.881 125.234ZM135.956 125.104C135.453 125.104 135.046 124.948 134.734 124.636C134.422 124.324 134.266 123.925 134.266 123.44C134.266 122.955 134.422 122.565 134.734 122.27C135.046 121.958 135.453 121.802 135.956 121.802C136.459 121.802 136.857 121.958 137.152 122.27C137.447 122.565 137.594 122.955 137.594 123.44C137.594 123.925 137.447 124.324 137.152 124.636C136.857 124.948 136.459 125.104 135.956 125.104Z" fill="#D9D9D9"/>
<path d="M279.06 128.172C278.748 128.172 278.488 128.068 278.28 127.86C278.089 127.652 277.994 127.401 277.994 127.106V124.636L278.514 125.13C277.301 125.113 276.209 124.957 275.238 124.662C274.267 124.35 273.453 123.977 272.794 123.544C272.551 123.388 272.378 123.189 272.274 122.946C272.17 122.703 272.135 122.461 272.17 122.218C272.222 121.975 272.326 121.767 272.482 121.594C272.638 121.421 272.829 121.317 273.054 121.282C273.279 121.247 273.539 121.317 273.834 121.49C274.371 121.837 275.039 122.149 275.836 122.426C276.651 122.703 277.639 122.842 278.8 122.842C279.736 122.842 280.499 122.721 281.088 122.478C281.695 122.235 282.137 121.906 282.414 121.49C282.709 121.074 282.856 120.589 282.856 120.034C282.856 119.583 282.752 119.193 282.544 118.864C282.353 118.535 282.033 118.257 281.582 118.032C281.131 117.789 280.533 117.59 279.788 117.434L277.11 116.862C275.533 116.515 274.354 115.943 273.574 115.146C272.811 114.349 272.43 113.3 272.43 112C272.43 110.977 272.673 110.067 273.158 109.27C273.661 108.473 274.354 107.84 275.238 107.372C276.139 106.904 277.188 106.635 278.384 106.566L277.994 106.93V104.564C277.994 104.269 278.089 104.018 278.28 103.81C278.488 103.602 278.748 103.498 279.06 103.498C279.355 103.498 279.606 103.602 279.814 103.81C280.022 104.018 280.126 104.269 280.126 104.564V106.93L279.684 106.566C280.481 106.583 281.331 106.748 282.232 107.06C283.133 107.355 283.905 107.779 284.546 108.334C284.754 108.507 284.884 108.707 284.936 108.932C285.005 109.157 285.005 109.374 284.936 109.582C284.884 109.79 284.78 109.963 284.624 110.102C284.468 110.241 284.269 110.319 284.026 110.336C283.783 110.353 283.523 110.267 283.246 110.076C282.691 109.695 282.076 109.391 281.4 109.166C280.741 108.941 279.953 108.828 279.034 108.828C277.821 108.828 276.859 109.114 276.148 109.686C275.437 110.258 275.082 111.003 275.082 111.922C275.082 112.615 275.299 113.179 275.732 113.612C276.165 114.028 276.893 114.349 277.916 114.574L280.646 115.146C282.31 115.51 283.541 116.073 284.338 116.836C285.135 117.599 285.534 118.613 285.534 119.878C285.534 120.866 285.283 121.741 284.78 122.504C284.277 123.249 283.584 123.847 282.7 124.298C281.833 124.731 280.828 125 279.684 125.104L280.126 124.61V127.106C280.126 127.401 280.022 127.652 279.814 127.86C279.623 128.068 279.372 128.172 279.06 128.172ZM289.996 125C289.528 125 289.19 124.896 288.982 124.688C288.774 124.463 288.67 124.159 288.67 123.778C288.67 123.535 288.731 123.301 288.852 123.076C288.973 122.851 289.147 122.617 289.372 122.374L294.91 116.446C295.759 115.545 296.366 114.721 296.73 113.976C297.111 113.213 297.302 112.451 297.302 111.688C297.302 110.717 297.007 109.981 296.418 109.478C295.829 108.975 294.962 108.724 293.818 108.724C293.125 108.724 292.457 108.828 291.816 109.036C291.175 109.244 290.533 109.582 289.892 110.05C289.632 110.223 289.389 110.301 289.164 110.284C288.939 110.267 288.739 110.18 288.566 110.024C288.41 109.868 288.306 109.677 288.254 109.452C288.202 109.227 288.211 108.993 288.28 108.75C288.349 108.507 288.514 108.299 288.774 108.126C289.485 107.589 290.308 107.173 291.244 106.878C292.18 106.583 293.133 106.436 294.104 106.436C295.369 106.436 296.435 106.635 297.302 107.034C298.186 107.415 298.853 107.979 299.304 108.724C299.755 109.469 299.98 110.379 299.98 111.454C299.98 112.182 299.859 112.893 299.616 113.586C299.391 114.279 299.035 114.99 298.55 115.718C298.082 116.429 297.467 117.183 296.704 117.98L291.452 123.492V122.738H299.72C300.101 122.738 300.396 122.833 300.604 123.024C300.812 123.215 300.916 123.492 300.916 123.856C300.916 124.22 300.812 124.506 300.604 124.714C300.396 124.905 300.101 125 299.72 125H289.996ZM309.694 125.234C308.723 125.234 307.735 125.104 306.73 124.844C305.724 124.567 304.849 124.159 304.104 123.622C303.826 123.449 303.636 123.241 303.532 122.998C303.445 122.738 303.428 122.504 303.48 122.296C303.532 122.071 303.636 121.88 303.792 121.724C303.965 121.568 304.173 121.481 304.416 121.464C304.658 121.429 304.927 121.499 305.222 121.672C305.967 122.123 306.695 122.452 307.406 122.66C308.116 122.851 308.853 122.946 309.616 122.946C310.448 122.946 311.15 122.825 311.722 122.582C312.294 122.339 312.718 121.984 312.996 121.516C313.29 121.048 313.438 120.485 313.438 119.826C313.438 118.838 313.108 118.101 312.45 117.616C311.808 117.113 310.872 116.862 309.642 116.862H307.874C307.475 116.862 307.172 116.767 306.964 116.576C306.756 116.368 306.652 116.082 306.652 115.718C306.652 115.371 306.756 115.103 306.964 114.912C307.172 114.704 307.475 114.6 307.874 114.6H309.382C310.127 114.6 310.76 114.479 311.28 114.236C311.8 113.976 312.198 113.621 312.476 113.17C312.77 112.702 312.918 112.139 312.918 111.48C312.918 110.596 312.623 109.92 312.034 109.452C311.462 108.967 310.621 108.724 309.512 108.724C308.801 108.724 308.125 108.819 307.484 109.01C306.86 109.201 306.21 109.539 305.534 110.024C305.274 110.197 305.022 110.275 304.78 110.258C304.554 110.223 304.355 110.137 304.182 109.998C304.026 109.842 303.913 109.651 303.844 109.426C303.792 109.201 303.809 108.967 303.896 108.724C303.982 108.481 304.156 108.273 304.416 108.1C305.144 107.563 305.967 107.155 306.886 106.878C307.804 106.583 308.749 106.436 309.72 106.436C310.933 106.436 311.973 106.627 312.84 107.008C313.724 107.389 314.391 107.935 314.842 108.646C315.31 109.357 315.544 110.206 315.544 111.194C315.544 111.939 315.405 112.615 315.128 113.222C314.85 113.829 314.452 114.349 313.932 114.782C313.429 115.198 312.814 115.493 312.086 115.666V115.38C313.351 115.588 314.33 116.108 315.024 116.94C315.717 117.755 316.064 118.777 316.064 120.008C316.064 121.083 315.804 122.019 315.284 122.816C314.781 123.596 314.053 124.194 313.1 124.61C312.146 125.026 311.011 125.234 309.694 125.234ZM321.176 127.626C320.985 127.869 320.777 128.007 320.552 128.042C320.344 128.077 320.162 128.033 320.006 127.912C319.85 127.791 319.763 127.617 319.746 127.392C319.728 127.184 319.824 126.95 320.032 126.69C320.344 126.309 320.552 125.91 320.656 125.494C320.777 125.095 320.838 124.74 320.838 124.428L320.942 125.104C320.422 125.104 319.997 124.957 319.668 124.662C319.356 124.35 319.2 123.943 319.2 123.44C319.2 122.955 319.347 122.565 319.642 122.27C319.936 121.958 320.335 121.802 320.838 121.802C321.358 121.802 321.765 121.984 322.06 122.348C322.372 122.695 322.528 123.197 322.528 123.856C322.528 124.237 322.484 124.636 322.398 125.052C322.328 125.468 322.198 125.893 322.008 126.326C321.817 126.759 321.54 127.193 321.176 127.626ZM332.025 125.234C331.072 125.234 330.11 125.104 329.139 124.844C328.169 124.567 327.285 124.142 326.487 123.57C326.227 123.414 326.054 123.215 325.967 122.972C325.881 122.729 325.863 122.495 325.915 122.27C325.967 122.027 326.071 121.828 326.227 121.672C326.401 121.516 326.609 121.429 326.851 121.412C327.094 121.377 327.354 121.447 327.631 121.62C328.307 122.053 329.001 122.383 329.711 122.608C330.439 122.833 331.193 122.946 331.973 122.946C332.771 122.946 333.455 122.799 334.027 122.504C334.599 122.209 335.033 121.802 335.327 121.282C335.639 120.745 335.795 120.121 335.795 119.41C335.795 118.318 335.475 117.425 334.833 116.732C334.192 116.039 333.299 115.692 332.155 115.692C331.497 115.692 330.881 115.813 330.309 116.056C329.737 116.281 329.191 116.663 328.671 117.2C328.55 117.339 328.385 117.469 328.177 117.59C327.987 117.694 327.77 117.746 327.527 117.746C327.163 117.746 326.886 117.651 326.695 117.46C326.505 117.269 326.409 117.009 326.409 116.68V107.866C326.409 107.485 326.513 107.19 326.721 106.982C326.929 106.774 327.224 106.67 327.605 106.67H336.315C336.697 106.67 336.991 106.765 337.199 106.956C337.407 107.147 337.511 107.424 337.511 107.788C337.511 108.152 337.407 108.438 337.199 108.646C336.991 108.837 336.697 108.932 336.315 108.932H329.035V115.536H328.307C328.775 114.877 329.391 114.366 330.153 114.002C330.933 113.638 331.791 113.456 332.727 113.456C333.889 113.456 334.894 113.699 335.743 114.184C336.593 114.669 337.251 115.354 337.719 116.238C338.187 117.105 338.421 118.119 338.421 119.28C338.421 120.459 338.161 121.499 337.641 122.4C337.121 123.284 336.385 123.977 335.431 124.48C334.478 124.983 333.343 125.234 332.025 125.234ZM342.935 125C342.467 125 342.129 124.896 341.921 124.688C341.713 124.463 341.609 124.159 341.609 123.778C341.609 123.535 341.67 123.301 341.791 123.076C341.913 122.851 342.086 122.617 342.311 122.374L347.849 116.446C348.699 115.545 349.305 114.721 349.669 113.976C350.051 113.213 350.241 112.451 350.241 111.688C350.241 110.717 349.947 109.981 349.357 109.478C348.768 108.975 347.901 108.724 346.757 108.724C346.064 108.724 345.397 108.828 344.755 109.036C344.114 109.244 343.473 109.582 342.831 110.05C342.571 110.223 342.329 110.301 342.103 110.284C341.878 110.267 341.679 110.18 341.505 110.024C341.349 109.868 341.245 109.677 341.193 109.452C341.141 109.227 341.15 108.993 341.219 108.75C341.289 108.507 341.453 108.299 341.713 108.126C342.424 107.589 343.247 107.173 344.183 106.878C345.119 106.583 346.073 106.436 347.043 106.436C348.309 106.436 349.375 106.635 350.241 107.034C351.125 107.415 351.793 107.979 352.243 108.724C352.694 109.469 352.919 110.379 352.919 111.454C352.919 112.182 352.798 112.893 352.555 113.586C352.33 114.279 351.975 114.99 351.489 115.718C351.021 116.429 350.406 117.183 349.643 117.98L344.391 123.492V122.738H352.659C353.041 122.738 353.335 122.833 353.543 123.024C353.751 123.215 353.855 123.492 353.855 123.856C353.855 124.22 353.751 124.506 353.543 124.714C353.335 124.905 353.041 125 352.659 125H342.935ZM359.149 125C358.785 125 358.499 124.896 358.291 124.688C358.083 124.48 357.979 124.203 357.979 123.856C357.979 123.492 358.083 123.215 358.291 123.024C358.499 122.833 358.785 122.738 359.149 122.738H362.321V108.906H363.673L359.877 111.324C359.6 111.48 359.34 111.541 359.097 111.506C358.872 111.471 358.672 111.376 358.499 111.22C358.343 111.064 358.23 110.873 358.161 110.648C358.109 110.423 358.126 110.189 358.213 109.946C358.317 109.703 358.499 109.504 358.759 109.348L362.347 107.086C362.642 106.913 362.919 106.774 363.179 106.67C363.456 106.549 363.716 106.488 363.959 106.488C364.254 106.488 364.496 106.575 364.687 106.748C364.895 106.904 364.999 107.173 364.999 107.554V122.738H367.911C368.292 122.738 368.587 122.833 368.795 123.024C369.003 123.215 369.107 123.492 369.107 123.856C369.107 124.22 369.003 124.506 368.795 124.714C368.587 124.905 368.292 125 367.911 125H359.149ZM373.829 125.104C373.326 125.104 372.919 124.948 372.607 124.636C372.295 124.324 372.139 123.925 372.139 123.44C372.139 122.955 372.295 122.565 372.607 122.27C372.919 121.958 373.326 121.802 373.829 121.802C374.332 121.802 374.73 121.958 375.025 122.27C375.32 122.565 375.467 122.955 375.467 123.44C375.467 123.925 375.32 124.324 375.025 124.636C374.73 124.948 374.332 125.104 373.829 125.104ZM384.965 125.234C384.012 125.234 383.05 125.104 382.079 124.844C381.108 124.567 380.224 124.142 379.427 123.57C379.167 123.414 378.994 123.215 378.907 122.972C378.82 122.729 378.803 122.495 378.855 122.27C378.907 122.027 379.011 121.828 379.167 121.672C379.34 121.516 379.548 121.429 379.791 121.412C380.034 121.377 380.294 121.447 380.571 121.62C381.247 122.053 381.94 122.383 382.651 122.608C383.379 122.833 384.133 122.946 384.913 122.946C385.71 122.946 386.395 122.799 386.967 122.504C387.539 122.209 387.972 121.802 388.267 121.282C388.579 120.745 388.735 120.121 388.735 119.41C388.735 118.318 388.414 117.425 387.773 116.732C387.132 116.039 386.239 115.692 385.095 115.692C384.436 115.692 383.821 115.813 383.249 116.056C382.677 116.281 382.131 116.663 381.611 117.2C381.49 117.339 381.325 117.469 381.117 117.59C380.926 117.694 380.71 117.746 380.467 117.746C380.103 117.746 379.826 117.651 379.635 117.46C379.444 117.269 379.349 117.009 379.349 116.68V107.866C379.349 107.485 379.453 107.19 379.661 106.982C379.869 106.774 380.164 106.67 380.545 106.67H389.255C389.636 106.67 389.931 106.765 390.139 106.956C390.347 107.147 390.451 107.424 390.451 107.788C390.451 108.152 390.347 108.438 390.139 108.646C389.931 108.837 389.636 108.932 389.255 108.932H381.975V115.536H381.247C381.715 114.877 382.33 114.366 383.093 114.002C383.873 113.638 384.731 113.456 385.667 113.456C386.828 113.456 387.834 113.699 388.683 114.184C389.532 114.669 390.191 115.354 390.659 116.238C391.127 117.105 391.361 118.119 391.361 119.28C391.361 120.459 391.101 121.499 390.581 122.4C390.061 123.284 389.324 123.977 388.371 124.48C387.418 124.983 386.282 125.234 384.965 125.234ZM399.983 125.234C399.012 125.234 398.024 125.104 397.019 124.844C396.013 124.567 395.138 124.159 394.393 123.622C394.115 123.449 393.925 123.241 393.821 122.998C393.734 122.738 393.717 122.504 393.769 122.296C393.821 122.071 393.925 121.88 394.081 121.724C394.254 121.568 394.462 121.481 394.705 121.464C394.947 121.429 395.216 121.499 395.511 121.672C396.256 122.123 396.984 122.452 397.695 122.66C398.405 122.851 399.142 122.946 399.905 122.946C400.737 122.946 401.439 122.825 402.011 122.582C402.583 122.339 403.007 121.984 403.285 121.516C403.579 121.048 403.727 120.485 403.727 119.826C403.727 118.838 403.397 118.101 402.739 117.616C402.097 117.113 401.161 116.862 399.931 116.862H398.163C397.764 116.862 397.461 116.767 397.253 116.576C397.045 116.368 396.941 116.082 396.941 115.718C396.941 115.371 397.045 115.103 397.253 114.912C397.461 114.704 397.764 114.6 398.163 114.6H399.671C400.416 114.6 401.049 114.479 401.569 114.236C402.089 113.976 402.487 113.621 402.765 113.17C403.059 112.702 403.207 112.139 403.207 111.48C403.207 110.596 402.912 109.92 402.323 109.452C401.751 108.967 400.91 108.724 399.801 108.724C399.09 108.724 398.414 108.819 397.773 109.01C397.149 109.201 396.499 109.539 395.823 110.024C395.563 110.197 395.311 110.275 395.069 110.258C394.843 110.223 394.644 110.137 394.471 109.998C394.315 109.842 394.202 109.651 394.133 109.426C394.081 109.201 394.098 108.967 394.185 108.724C394.271 108.481 394.445 108.273 394.705 108.1C395.433 107.563 396.256 107.155 397.175 106.878C398.093 106.583 399.038 106.436 400.009 106.436C401.222 106.436 402.262 106.627 403.129 107.008C404.013 107.389 404.68 107.935 405.131 108.646C405.599 109.357 405.833 110.206 405.833 111.194C405.833 111.939 405.694 112.615 405.417 113.222C405.139 113.829 404.741 114.349 404.221 114.782C403.718 115.198 403.103 115.493 402.375 115.666V115.38C403.64 115.588 404.619 116.108 405.313 116.94C406.006 117.755 406.353 118.777 406.353 120.008C406.353 121.083 406.093 122.019 405.573 122.816C405.07 123.596 404.342 124.194 403.389 124.61C402.435 125.026 401.3 125.234 399.983 125.234Z" fill="#D9D9D9"/>
<path d="M30.712 168.234C28.7187 168.234 27.0373 167.861 25.668 167.116C24.2987 166.353 23.2587 165.27 22.548 163.866C21.8547 162.462 21.508 160.789 21.508 158.848C21.508 157.392 21.7073 156.092 22.106 154.948C22.522 153.787 23.1113 152.799 23.874 151.984C24.654 151.152 25.5987 150.519 26.708 150.086C27.8347 149.653 29.1087 149.436 30.53 149.436C31.57 149.436 32.5927 149.575 33.598 149.852C34.6033 150.112 35.522 150.545 36.354 151.152C36.5967 151.325 36.7527 151.525 36.822 151.75C36.8913 151.975 36.8913 152.209 36.822 152.452C36.77 152.677 36.6573 152.877 36.484 153.05C36.328 153.223 36.1287 153.327 35.886 153.362C35.6607 153.397 35.4093 153.327 35.132 153.154C34.456 152.686 33.7453 152.348 33 152.14C32.2547 151.915 31.4313 151.802 30.53 151.802C29.178 151.802 28.034 152.079 27.098 152.634C26.1793 153.189 25.486 153.995 25.018 155.052C24.55 156.092 24.316 157.357 24.316 158.848C24.316 161.153 24.862 162.904 25.954 164.1C27.046 165.296 28.6667 165.894 30.816 165.894C31.596 165.894 32.3587 165.825 33.104 165.686C33.8667 165.53 34.5947 165.313 35.288 165.036L34.742 166.388V160.33H31.388C31.0413 160.33 30.764 160.243 30.556 160.07C30.3653 159.879 30.27 159.619 30.27 159.29C30.27 158.961 30.3653 158.718 30.556 158.562C30.764 158.389 31.0413 158.302 31.388 158.302H35.886C36.25 158.302 36.5273 158.397 36.718 158.588C36.9087 158.779 37.004 159.056 37.004 159.42V165.972C37.004 166.284 36.9433 166.553 36.822 166.778C36.718 166.986 36.536 167.142 36.276 167.246C35.5307 167.541 34.6553 167.783 33.65 167.974C32.6447 168.147 31.6653 168.234 30.712 168.234ZM46.3756 168.234C45.0929 168.234 43.9836 167.965 43.0476 167.428C42.1289 166.891 41.4096 166.128 40.8896 165.14C40.3696 164.152 40.1096 162.991 40.1096 161.656C40.1096 160.633 40.2569 159.723 40.5516 158.926C40.8462 158.129 41.2622 157.444 41.7996 156.872C42.3542 156.283 43.0129 155.841 43.7756 155.546C44.5556 155.234 45.4222 155.078 46.3756 155.078C47.6409 155.078 48.7329 155.347 49.6516 155.884C50.5876 156.421 51.3156 157.184 51.8356 158.172C52.3556 159.143 52.6156 160.304 52.6156 161.656C52.6156 162.661 52.4682 163.571 52.1736 164.386C51.8789 165.201 51.4542 165.894 50.8996 166.466C50.3622 167.038 49.7036 167.48 48.9236 167.792C48.1609 168.087 47.3116 168.234 46.3756 168.234ZM46.3756 166.206C47.0862 166.206 47.7102 166.033 48.2476 165.686C48.7849 165.339 49.2009 164.828 49.4956 164.152C49.8076 163.476 49.9636 162.644 49.9636 161.656C49.9636 160.165 49.6342 159.039 48.9756 158.276C48.3169 157.513 47.4502 157.132 46.3756 157.132C45.6476 157.132 45.0149 157.305 44.4776 157.652C43.9402 157.981 43.5156 158.484 43.2036 159.16C42.9089 159.836 42.7616 160.668 42.7616 161.656C42.7616 163.129 43.0909 164.256 43.7496 165.036C44.4082 165.816 45.2836 166.206 46.3756 166.206ZM61.0768 168.234C59.7941 168.234 58.6848 167.965 57.7488 167.428C56.8301 166.891 56.1108 166.128 55.5908 165.14C55.0708 164.152 54.8108 162.991 54.8108 161.656C54.8108 160.633 54.9581 159.723 55.2528 158.926C55.5474 158.129 55.9634 157.444 56.5008 156.872C57.0554 156.283 57.7141 155.841 58.4768 155.546C59.2568 155.234 60.1234 155.078 61.0768 155.078C62.3421 155.078 63.4341 155.347 64.3528 155.884C65.2888 156.421 66.0168 157.184 66.5368 158.172C67.0568 159.143 67.3168 160.304 67.3168 161.656C67.3168 162.661 67.1694 163.571 66.8748 164.386C66.5801 165.201 66.1554 165.894 65.6008 166.466C65.0634 167.038 64.4048 167.48 63.6248 167.792C62.8621 168.087 62.0128 168.234 61.0768 168.234ZM61.0768 166.206C61.7874 166.206 62.4114 166.033 62.9488 165.686C63.4861 165.339 63.9021 164.828 64.1968 164.152C64.5088 163.476 64.6648 162.644 64.6648 161.656C64.6648 160.165 64.3354 159.039 63.6768 158.276C63.0181 157.513 62.1514 157.132 61.0768 157.132C60.3488 157.132 59.7161 157.305 59.1788 157.652C58.6414 157.981 58.2168 158.484 57.9048 159.16C57.6101 159.836 57.4628 160.668 57.4628 161.656C57.4628 163.129 57.7921 164.256 58.4508 165.036C59.1094 165.816 59.9848 166.206 61.0768 166.206ZM76.0119 172.914C75.0759 172.914 74.1659 172.819 73.2819 172.628C72.4153 172.437 71.6266 172.125 70.9159 171.692C70.6559 171.553 70.4826 171.38 70.3959 171.172C70.3093 170.981 70.2833 170.782 70.3179 170.574C70.3699 170.366 70.4653 170.184 70.6039 170.028C70.7426 169.872 70.9073 169.768 71.0979 169.716C71.3059 169.664 71.5226 169.699 71.7479 169.82C72.5106 170.236 73.2299 170.513 73.9059 170.652C74.5993 170.808 75.2406 170.886 75.8299 170.886C77.0433 170.886 77.9533 170.574 78.5599 169.95C79.1666 169.343 79.4699 168.442 79.4699 167.246V164.594H79.7039C79.4439 165.547 78.8979 166.301 78.0659 166.856C77.2339 167.411 76.2719 167.688 75.1799 167.688C74.0359 167.688 73.0393 167.428 72.1899 166.908C71.3406 166.371 70.6819 165.634 70.2139 164.698C69.7459 163.745 69.5119 162.635 69.5119 161.37C69.5119 160.417 69.6419 159.559 69.9019 158.796C70.1793 158.033 70.5606 157.375 71.0459 156.82C71.5486 156.265 72.1466 155.841 72.8399 155.546C73.5506 155.234 74.3306 155.078 75.1799 155.078C76.2893 155.078 77.2513 155.355 78.0659 155.91C78.8979 156.465 79.4353 157.219 79.6779 158.172L79.4179 158.614V156.456C79.4179 156.023 79.5306 155.693 79.7559 155.468C79.9986 155.243 80.3193 155.13 80.7179 155.13C81.1339 155.13 81.4546 155.243 81.6799 155.468C81.9053 155.693 82.0179 156.023 82.0179 156.456V166.934C82.0179 168.91 81.5066 170.401 80.4839 171.406C79.4613 172.411 77.9706 172.914 76.0119 172.914ZM75.8039 165.634C76.5666 165.634 77.2166 165.461 77.7539 165.114C78.2913 164.767 78.7073 164.273 79.0019 163.632C79.2966 162.991 79.4439 162.237 79.4439 161.37C79.4439 160.07 79.1146 159.039 78.4559 158.276C77.8146 157.513 76.9306 157.132 75.8039 157.132C75.0586 157.132 74.4173 157.305 73.8799 157.652C73.3426 157.999 72.9179 158.493 72.6059 159.134C72.3113 159.758 72.1639 160.503 72.1639 161.37C72.1639 162.687 72.4933 163.727 73.1519 164.49C73.8106 165.253 74.6946 165.634 75.8039 165.634ZM89.7854 168.234C88.4334 168.234 87.4108 167.844 86.7174 167.064C86.0414 166.267 85.7034 165.123 85.7034 163.632V150.814C85.7034 150.381 85.8161 150.051 86.0414 149.826C86.2668 149.601 86.5874 149.488 87.0034 149.488C87.4194 149.488 87.7401 149.601 87.9654 149.826C88.2081 150.051 88.3294 150.381 88.3294 150.814V163.476C88.3294 164.343 88.5028 164.993 88.8494 165.426C89.2134 165.842 89.7334 166.05 90.4094 166.05C90.5654 166.05 90.7041 166.05 90.8254 166.05C90.9468 166.033 91.0681 166.015 91.1894 165.998C91.3974 165.981 91.5448 166.041 91.6314 166.18C91.7181 166.301 91.7614 166.561 91.7614 166.96C91.7614 167.324 91.6834 167.61 91.5274 167.818C91.3714 168.009 91.1201 168.13 90.7734 168.182C90.6174 168.199 90.4528 168.208 90.2794 168.208C90.1061 168.225 89.9414 168.234 89.7854 168.234ZM99.4777 168.234C98.0911 168.234 96.8951 167.974 95.8897 167.454C94.9017 166.917 94.1304 166.163 93.5757 165.192C93.0384 164.204 92.7697 163.034 92.7697 161.682C92.7697 160.365 93.0384 159.212 93.5757 158.224C94.1131 157.236 94.8497 156.465 95.7857 155.91C96.7217 155.355 97.7877 155.078 98.9837 155.078C99.8677 155.078 100.656 155.225 101.35 155.52C102.043 155.797 102.632 156.213 103.118 156.768C103.62 157.305 103.993 157.964 104.236 158.744C104.496 159.524 104.626 160.399 104.626 161.37C104.626 161.665 104.539 161.89 104.366 162.046C104.192 162.185 103.932 162.254 103.586 162.254H94.8497V160.642H102.858L102.416 161.006C102.416 160.139 102.286 159.403 102.026 158.796C101.783 158.189 101.41 157.73 100.908 157.418C100.422 157.089 99.8157 156.924 99.0877 156.924C98.2731 156.924 97.5797 157.115 97.0077 157.496C96.4531 157.877 96.0284 158.406 95.7337 159.082C95.4391 159.758 95.2917 160.547 95.2917 161.448V161.604C95.2917 163.129 95.6471 164.282 96.3577 165.062C97.0857 165.825 98.1344 166.206 99.5037 166.206C100.024 166.206 100.57 166.137 101.142 165.998C101.731 165.859 102.286 165.625 102.806 165.296C103.1 165.123 103.36 165.045 103.586 165.062C103.828 165.079 104.019 165.157 104.158 165.296C104.314 165.435 104.409 165.608 104.444 165.816C104.478 166.024 104.444 166.241 104.34 166.466C104.236 166.674 104.054 166.865 103.794 167.038C103.204 167.437 102.52 167.74 101.74 167.948C100.96 168.139 100.206 168.234 99.4777 168.234Z" fill="#D9D9D9"/>
<path d="M295.06 171.172C294.748 171.172 294.488 171.068 294.28 170.86C294.089 170.652 293.994 170.401 293.994 170.106V167.636L294.514 168.13C293.301 168.113 292.209 167.957 291.238 167.662C290.267 167.35 289.453 166.977 288.794 166.544C288.551 166.388 288.378 166.189 288.274 165.946C288.17 165.703 288.135 165.461 288.17 165.218C288.222 164.975 288.326 164.767 288.482 164.594C288.638 164.421 288.829 164.317 289.054 164.282C289.279 164.247 289.539 164.317 289.834 164.49C290.371 164.837 291.039 165.149 291.836 165.426C292.651 165.703 293.639 165.842 294.8 165.842C295.736 165.842 296.499 165.721 297.088 165.478C297.695 165.235 298.137 164.906 298.414 164.49C298.709 164.074 298.856 163.589 298.856 163.034C298.856 162.583 298.752 162.193 298.544 161.864C298.353 161.535 298.033 161.257 297.582 161.032C297.131 160.789 296.533 160.59 295.788 160.434L293.11 159.862C291.533 159.515 290.354 158.943 289.574 158.146C288.811 157.349 288.43 156.3 288.43 155C288.43 153.977 288.673 153.067 289.158 152.27C289.661 151.473 290.354 150.84 291.238 150.372C292.139 149.904 293.188 149.635 294.384 149.566L293.994 149.93V147.564C293.994 147.269 294.089 147.018 294.28 146.81C294.488 146.602 294.748 146.498 295.06 146.498C295.355 146.498 295.606 146.602 295.814 146.81C296.022 147.018 296.126 147.269 296.126 147.564V149.93L295.684 149.566C296.481 149.583 297.331 149.748 298.232 150.06C299.133 150.355 299.905 150.779 300.546 151.334C300.754 151.507 300.884 151.707 300.936 151.932C301.005 152.157 301.005 152.374 300.936 152.582C300.884 152.79 300.78 152.963 300.624 153.102C300.468 153.241 300.269 153.319 300.026 153.336C299.783 153.353 299.523 153.267 299.246 153.076C298.691 152.695 298.076 152.391 297.4 152.166C296.741 151.941 295.953 151.828 295.034 151.828C293.821 151.828 292.859 152.114 292.148 152.686C291.437 153.258 291.082 154.003 291.082 154.922C291.082 155.615 291.299 156.179 291.732 156.612C292.165 157.028 292.893 157.349 293.916 157.574L296.646 158.146C298.31 158.51 299.541 159.073 300.338 159.836C301.135 160.599 301.534 161.613 301.534 162.878C301.534 163.866 301.283 164.741 300.78 165.504C300.277 166.249 299.584 166.847 298.7 167.298C297.833 167.731 296.828 168 295.684 168.104L296.126 167.61V170.106C296.126 170.401 296.022 170.652 295.814 170.86C295.623 171.068 295.372 171.172 295.06 171.172ZM310.104 168.234C309.133 168.234 308.145 168.104 307.14 167.844C306.135 167.567 305.259 167.159 304.514 166.622C304.237 166.449 304.046 166.241 303.942 165.998C303.855 165.738 303.838 165.504 303.89 165.296C303.942 165.071 304.046 164.88 304.202 164.724C304.375 164.568 304.583 164.481 304.826 164.464C305.069 164.429 305.337 164.499 305.632 164.672C306.377 165.123 307.105 165.452 307.816 165.66C308.527 165.851 309.263 165.946 310.026 165.946C310.858 165.946 311.56 165.825 312.132 165.582C312.704 165.339 313.129 164.984 313.406 164.516C313.701 164.048 313.848 163.485 313.848 162.826C313.848 161.838 313.519 161.101 312.86 160.616C312.219 160.113 311.283 159.862 310.052 159.862H308.284C307.885 159.862 307.582 159.767 307.374 159.576C307.166 159.368 307.062 159.082 307.062 158.718C307.062 158.371 307.166 158.103 307.374 157.912C307.582 157.704 307.885 157.6 308.284 157.6H309.792C310.537 157.6 311.17 157.479 311.69 157.236C312.21 156.976 312.609 156.621 312.886 156.17C313.181 155.702 313.328 155.139 313.328 154.48C313.328 153.596 313.033 152.92 312.444 152.452C311.872 151.967 311.031 151.724 309.922 151.724C309.211 151.724 308.535 151.819 307.894 152.01C307.27 152.201 306.62 152.539 305.944 153.024C305.684 153.197 305.433 153.275 305.19 153.258C304.965 153.223 304.765 153.137 304.592 152.998C304.436 152.842 304.323 152.651 304.254 152.426C304.202 152.201 304.219 151.967 304.306 151.724C304.393 151.481 304.566 151.273 304.826 151.1C305.554 150.563 306.377 150.155 307.296 149.878C308.215 149.583 309.159 149.436 310.13 149.436C311.343 149.436 312.383 149.627 313.25 150.008C314.134 150.389 314.801 150.935 315.252 151.646C315.72 152.357 315.954 153.206 315.954 154.194C315.954 154.939 315.815 155.615 315.538 156.222C315.261 156.829 314.862 157.349 314.342 157.782C313.839 158.198 313.224 158.493 312.496 158.666V158.38C313.761 158.588 314.741 159.108 315.434 159.94C316.127 160.755 316.474 161.777 316.474 163.008C316.474 164.083 316.214 165.019 315.694 165.816C315.191 166.596 314.463 167.194 313.51 167.61C312.557 168.026 311.421 168.234 310.104 168.234ZM321.586 170.626C321.395 170.869 321.187 171.007 320.962 171.042C320.754 171.077 320.572 171.033 320.416 170.912C320.26 170.791 320.173 170.617 320.156 170.392C320.138 170.184 320.234 169.95 320.442 169.69C320.754 169.309 320.962 168.91 321.066 168.494C321.187 168.095 321.248 167.74 321.248 167.428L321.352 168.104C320.832 168.104 320.407 167.957 320.078 167.662C319.766 167.35 319.61 166.943 319.61 166.44C319.61 165.955 319.757 165.565 320.052 165.27C320.346 164.958 320.745 164.802 321.248 164.802C321.768 164.802 322.175 164.984 322.47 165.348C322.782 165.695 322.938 166.197 322.938 166.856C322.938 167.237 322.894 167.636 322.808 168.052C322.738 168.468 322.608 168.893 322.418 169.326C322.227 169.759 321.95 170.193 321.586 170.626ZM327.756 168C327.288 168 326.95 167.896 326.742 167.688C326.534 167.463 326.43 167.159 326.43 166.778C326.43 166.535 326.49 166.301 326.612 166.076C326.733 165.851 326.906 165.617 327.132 165.374L332.67 159.446C333.519 158.545 334.126 157.721 334.49 156.976C334.871 156.213 335.062 155.451 335.062 154.688C335.062 153.717 334.767 152.981 334.178 152.478C333.588 151.975 332.722 151.724 331.578 151.724C330.884 151.724 330.217 151.828 329.576 152.036C328.934 152.244 328.293 152.582 327.652 153.05C327.392 153.223 327.149 153.301 326.924 153.284C326.698 153.267 326.499 153.18 326.326 153.024C326.17 152.868 326.066 152.677 326.014 152.452C325.962 152.227 325.97 151.993 326.04 151.75C326.109 151.507 326.274 151.299 326.534 151.126C327.244 150.589 328.068 150.173 329.004 149.878C329.94 149.583 330.893 149.436 331.864 149.436C333.129 149.436 334.195 149.635 335.062 150.034C335.946 150.415 336.613 150.979 337.064 151.724C337.514 152.469 337.74 153.379 337.74 154.454C337.74 155.182 337.618 155.893 337.376 156.586C337.15 157.279 336.795 157.99 336.31 158.718C335.842 159.429 335.226 160.183 334.464 160.98L329.212 166.492V165.738H337.48C337.861 165.738 338.156 165.833 338.364 166.024C338.572 166.215 338.676 166.492 338.676 166.856C338.676 167.22 338.572 167.506 338.364 167.714C338.156 167.905 337.861 168 337.48 168H327.756ZM343.969 168C343.605 168 343.319 167.896 343.111 167.688C342.903 167.48 342.799 167.203 342.799 166.856C342.799 166.492 342.903 166.215 343.111 166.024C343.319 165.833 343.605 165.738 343.969 165.738H347.141V151.906H348.493L344.697 154.324C344.42 154.48 344.16 154.541 343.917 154.506C343.692 154.471 343.493 154.376 343.319 154.22C343.163 154.064 343.051 153.873 342.981 153.648C342.929 153.423 342.947 153.189 343.033 152.946C343.137 152.703 343.319 152.504 343.579 152.348L347.167 150.086C347.462 149.913 347.739 149.774 347.999 149.67C348.277 149.549 348.537 149.488 348.779 149.488C349.074 149.488 349.317 149.575 349.507 149.748C349.715 149.904 349.819 150.173 349.819 150.554V165.738H352.731C353.113 165.738 353.407 165.833 353.615 166.024C353.823 166.215 353.927 166.492 353.927 166.856C353.927 167.22 353.823 167.506 353.615 167.714C353.407 167.905 353.113 168 352.731 168H343.969ZM363.043 168.234C362.073 168.234 361.085 168.104 360.079 167.844C359.074 167.567 358.199 167.159 357.453 166.622C357.176 166.449 356.985 166.241 356.881 165.998C356.795 165.738 356.777 165.504 356.829 165.296C356.881 165.071 356.985 164.88 357.141 164.724C357.315 164.568 357.523 164.481 357.765 164.464C358.008 164.429 358.277 164.499 358.571 164.672C359.317 165.123 360.045 165.452 360.755 165.66C361.466 165.851 362.203 165.946 362.965 165.946C363.797 165.946 364.499 165.825 365.071 165.582C365.643 165.339 366.068 164.984 366.345 164.516C366.64 164.048 366.787 163.485 366.787 162.826C366.787 161.838 366.458 161.101 365.799 160.616C365.158 160.113 364.222 159.862 362.991 159.862H361.223C360.825 159.862 360.521 159.767 360.313 159.576C360.105 159.368 360.001 159.082 360.001 158.718C360.001 158.371 360.105 158.103 360.313 157.912C360.521 157.704 360.825 157.6 361.223 157.6H362.731C363.477 157.6 364.109 157.479 364.629 157.236C365.149 156.976 365.548 156.621 365.825 156.17C366.12 155.702 366.267 155.139 366.267 154.48C366.267 153.596 365.973 152.92 365.383 152.452C364.811 151.967 363.971 151.724 362.861 151.724C362.151 151.724 361.475 151.819 360.833 152.01C360.209 152.201 359.559 152.539 358.883 153.024C358.623 153.197 358.372 153.275 358.129 153.258C357.904 153.223 357.705 153.137 357.531 152.998C357.375 152.842 357.263 152.651 357.193 152.426C357.141 152.201 357.159 151.967 357.245 151.724C357.332 151.481 357.505 151.273 357.765 151.1C358.493 150.563 359.317 150.155 360.235 149.878C361.154 149.583 362.099 149.436 363.069 149.436C364.283 149.436 365.323 149.627 366.189 150.008C367.073 150.389 367.741 150.935 368.191 151.646C368.659 152.357 368.893 153.206 368.893 154.194C368.893 154.939 368.755 155.615 368.477 156.222C368.2 156.829 367.801 157.349 367.281 157.782C366.779 158.198 366.163 158.493 365.435 158.666V158.38C366.701 158.588 367.68 159.108 368.373 159.94C369.067 160.755 369.413 161.777 369.413 163.008C369.413 164.083 369.153 165.019 368.633 165.816C368.131 166.596 367.403 167.194 366.449 167.61C365.496 168.026 364.361 168.234 363.043 168.234ZM374.239 168.104C373.736 168.104 373.329 167.948 373.017 167.636C372.705 167.324 372.549 166.925 372.549 166.44C372.549 165.955 372.705 165.565 373.017 165.27C373.329 164.958 373.736 164.802 374.239 164.802C374.742 164.802 375.14 164.958 375.435 165.27C375.73 165.565 375.877 165.955 375.877 166.44C375.877 166.925 375.73 167.324 375.435 167.636C375.14 167.948 374.742 168.104 374.239 168.104ZM381.319 168C380.955 168 380.669 167.896 380.461 167.688C380.253 167.48 380.149 167.203 380.149 166.856C380.149 166.492 380.253 166.215 380.461 166.024C380.669 165.833 380.955 165.738 381.319 165.738H384.491V151.906H385.843L382.047 154.324C381.77 154.48 381.51 154.541 381.267 154.506C381.042 154.471 380.842 154.376 380.669 154.22C380.513 154.064 380.4 153.873 380.331 153.648C380.279 153.423 380.296 153.189 380.383 152.946C380.487 152.703 380.669 152.504 380.929 152.348L384.517 150.086C384.812 149.913 385.089 149.774 385.349 149.67C385.626 149.549 385.886 149.488 386.129 149.488C386.424 149.488 386.666 149.575 386.857 149.748C387.065 149.904 387.169 150.173 387.169 150.554V165.738H390.081C390.462 165.738 390.757 165.833 390.965 166.024C391.173 166.215 391.277 166.492 391.277 166.856C391.277 167.22 391.173 167.506 390.965 167.714C390.757 167.905 390.462 168 390.081 168H381.319ZM403.695 168.182C403.279 168.182 402.95 168.069 402.707 167.844C402.464 167.601 402.343 167.272 402.343 166.856V164.282H395.375C394.942 164.282 394.595 164.187 394.335 163.996C394.075 163.805 393.945 163.511 393.945 163.112C393.945 162.887 393.997 162.644 394.101 162.384C394.222 162.124 394.43 161.786 394.725 161.37L402.291 150.372C402.482 150.077 402.698 149.861 402.941 149.722C403.184 149.566 403.461 149.488 403.773 149.488C404.137 149.488 404.432 149.601 404.657 149.826C404.9 150.034 405.021 150.363 405.021 150.814V162.02H406.659C407.075 162.02 407.378 162.115 407.569 162.306C407.777 162.497 407.881 162.774 407.881 163.138C407.881 163.519 407.777 163.805 407.569 163.996C407.378 164.187 407.075 164.282 406.659 164.282H405.021V166.856C405.021 167.272 404.9 167.601 404.657 167.844C404.432 168.069 404.111 168.182 403.695 168.182ZM402.343 162.02V152.842H403.045L396.259 162.748V162.02H402.343Z" fill="#D9D9D9"/>
<path d="M30.348 211.234C28.4933 211.234 26.9073 210.853 25.59 210.09C24.2727 209.327 23.2587 208.244 22.548 206.84C21.8547 205.419 21.508 203.746 21.508 201.822C21.508 200.383 21.7073 199.092 22.106 197.948C22.5047 196.787 23.0767 195.799 23.822 194.984C24.5847 194.152 25.512 193.519 26.604 193.086C27.7133 192.653 28.9613 192.436 30.348 192.436C31.3707 192.436 32.35 192.575 33.286 192.852C34.2393 193.129 35.0627 193.528 35.756 194.048C36.0507 194.239 36.2413 194.473 36.328 194.75C36.432 195.01 36.4493 195.261 36.38 195.504C36.328 195.747 36.2153 195.955 36.042 196.128C35.8687 196.284 35.6433 196.371 35.366 196.388C35.106 196.405 34.82 196.31 34.508 196.102C33.936 195.669 33.3033 195.348 32.61 195.14C31.9167 194.932 31.1887 194.828 30.426 194.828C29.1087 194.828 27.9993 195.105 27.098 195.66C26.1967 196.197 25.512 196.986 25.044 198.026C24.576 199.066 24.342 200.331 24.342 201.822C24.342 203.313 24.576 204.587 25.044 205.644C25.512 206.684 26.1967 207.481 27.098 208.036C27.9993 208.573 29.1087 208.842 30.426 208.842C31.1887 208.842 31.9167 208.738 32.61 208.53C33.3207 208.305 33.988 207.975 34.612 207.542C34.924 207.351 35.2013 207.265 35.444 207.282C35.704 207.299 35.9207 207.386 36.094 207.542C36.2673 207.698 36.38 207.897 36.432 208.14C36.5013 208.365 36.4927 208.608 36.406 208.868C36.3367 209.111 36.172 209.319 35.912 209.492C35.2013 210.064 34.3607 210.497 33.39 210.792C32.4193 211.087 31.4053 211.234 30.348 211.234ZM44.0143 211.234C42.7316 211.234 41.6223 210.965 40.6863 210.428C39.7676 209.891 39.0483 209.128 38.5283 208.14C38.0083 207.152 37.7483 205.991 37.7483 204.656C37.7483 203.633 37.8956 202.723 38.1903 201.926C38.4849 201.129 38.9009 200.444 39.4383 199.872C39.9929 199.283 40.6516 198.841 41.4143 198.546C42.1943 198.234 43.0609 198.078 44.0143 198.078C45.2796 198.078 46.3716 198.347 47.2903 198.884C48.2263 199.421 48.9543 200.184 49.4743 201.172C49.9943 202.143 50.2543 203.304 50.2543 204.656C50.2543 205.661 50.1069 206.571 49.8123 207.386C49.5176 208.201 49.0929 208.894 48.5383 209.466C48.0009 210.038 47.3423 210.48 46.5623 210.792C45.7996 211.087 44.9503 211.234 44.0143 211.234ZM44.0143 209.206C44.7249 209.206 45.3489 209.033 45.8863 208.686C46.4236 208.339 46.8396 207.828 47.1343 207.152C47.4463 206.476 47.6023 205.644 47.6023 204.656C47.6023 203.165 47.2729 202.039 46.6143 201.276C45.9556 200.513 45.0889 200.132 44.0143 200.132C43.2863 200.132 42.6536 200.305 42.1163 200.652C41.5789 200.981 41.1543 201.484 40.8423 202.16C40.5476 202.836 40.4003 203.668 40.4003 204.656C40.4003 206.129 40.7296 207.256 41.3883 208.036C42.0469 208.816 42.9223 209.206 44.0143 209.206ZM54.5034 211.182C54.0874 211.182 53.7668 211.069 53.5414 210.844C53.3161 210.601 53.2034 210.272 53.2034 209.856V199.456C53.2034 199.023 53.3161 198.693 53.5414 198.468C53.7668 198.243 54.0788 198.13 54.4774 198.13C54.8934 198.13 55.2054 198.243 55.4134 198.468C55.6388 198.693 55.7514 199.023 55.7514 199.456V201.484L55.4654 201.016C55.8468 200.045 56.4448 199.317 57.2594 198.832C58.0741 198.329 59.0101 198.078 60.0674 198.078C61.0728 198.078 61.9048 198.269 62.5634 198.65C63.2394 199.014 63.7421 199.577 64.0714 200.34C64.4008 201.085 64.5654 202.03 64.5654 203.174V209.856C64.5654 210.272 64.4528 210.601 64.2274 210.844C64.0021 211.069 63.6814 211.182 63.2654 211.182C62.8321 211.182 62.5028 211.069 62.2774 210.844C62.0521 210.601 61.9394 210.272 61.9394 209.856V203.33C61.9394 202.238 61.7228 201.441 61.2894 200.938C60.8734 200.435 60.2148 200.184 59.3134 200.184C58.2561 200.184 57.4068 200.513 56.7654 201.172C56.1414 201.831 55.8294 202.715 55.8294 203.824V209.856C55.8294 210.74 55.3874 211.182 54.5034 211.182ZM72.6299 211.234C71.8672 211.234 71.0786 211.147 70.2639 210.974C69.4666 210.801 68.7299 210.506 68.0539 210.09C67.8286 209.934 67.6726 209.761 67.5859 209.57C67.4992 209.379 67.4646 209.189 67.4819 208.998C67.5166 208.79 67.5946 208.617 67.7159 208.478C67.8546 208.322 68.0192 208.227 68.2099 208.192C68.4179 208.157 68.6346 208.201 68.8599 208.322C69.5359 208.703 70.1859 208.972 70.8099 209.128C71.4339 209.267 72.0492 209.336 72.6559 209.336C73.5746 209.336 74.2679 209.171 74.7359 208.842C75.2039 208.513 75.4379 208.071 75.4379 207.516C75.4379 207.065 75.2819 206.719 74.9699 206.476C74.6579 206.216 74.1899 206.017 73.5659 205.878L71.0959 205.384C70.0212 205.159 69.2066 204.76 68.6519 204.188C68.0972 203.616 67.8199 202.888 67.8199 202.004C67.8199 201.207 68.0366 200.513 68.4699 199.924C68.9032 199.335 69.5099 198.884 70.2899 198.572C71.0699 198.243 71.9712 198.078 72.9939 198.078C73.7566 198.078 74.4759 198.173 75.1519 198.364C75.8279 198.555 76.4519 198.841 77.0239 199.222C77.2492 199.343 77.3966 199.508 77.4659 199.716C77.5352 199.907 77.5439 200.097 77.4919 200.288C77.4572 200.479 77.3706 200.652 77.2319 200.808C77.0932 200.947 76.9199 201.033 76.7119 201.068C76.5212 201.085 76.3046 201.033 76.0619 200.912C75.5419 200.583 75.0219 200.349 74.5019 200.21C73.9992 200.071 73.4966 200.002 72.9939 200.002C72.0752 200.002 71.3819 200.175 70.9139 200.522C70.4632 200.851 70.2379 201.302 70.2379 201.874C70.2379 202.307 70.3766 202.663 70.6539 202.94C70.9312 203.217 71.3646 203.417 71.9539 203.538L74.4239 204.032C75.5506 204.257 76.3999 204.639 76.9719 205.176C77.5612 205.713 77.8559 206.441 77.8559 207.36C77.8559 208.556 77.3792 209.501 76.4259 210.194C75.4726 210.887 74.2072 211.234 72.6299 211.234ZM86.0587 211.234C85.0187 211.234 84.1434 211.052 83.4327 210.688C82.722 210.324 82.1934 209.787 81.8467 209.076C81.5 208.365 81.3267 207.499 81.3267 206.476V200.34H79.7667C79.42 200.34 79.1514 200.253 78.9607 200.08C78.77 199.889 78.6747 199.638 78.6747 199.326C78.6747 198.997 78.77 198.745 78.9607 198.572C79.1514 198.399 79.42 198.312 79.7667 198.312H81.3267V195.634C81.3267 195.201 81.4394 194.871 81.6647 194.646C81.9074 194.421 82.2367 194.308 82.6527 194.308C83.0687 194.308 83.3894 194.421 83.6147 194.646C83.84 194.871 83.9527 195.201 83.9527 195.634V198.312H86.9947C87.3414 198.312 87.61 198.399 87.8007 198.572C87.9914 198.745 88.0867 198.997 88.0867 199.326C88.0867 199.638 87.9914 199.889 87.8007 200.08C87.61 200.253 87.3414 200.34 86.9947 200.34H83.9527V206.268C83.9527 207.187 84.1434 207.88 84.5247 208.348C84.9234 208.816 85.5647 209.05 86.4487 209.05C86.7607 209.05 87.0294 209.024 87.2547 208.972C87.4974 208.903 87.6967 208.859 87.8527 208.842C88.0434 208.842 88.1994 208.911 88.3207 209.05C88.442 209.171 88.5027 209.414 88.5027 209.778C88.5027 210.038 88.4507 210.281 88.3467 210.506C88.26 210.731 88.0954 210.879 87.8527 210.948C87.6447 211.017 87.3587 211.078 86.9947 211.13C86.648 211.199 86.336 211.234 86.0587 211.234ZM94.2028 211.234C93.3188 211.234 92.5214 211.061 91.8108 210.714C91.1174 210.367 90.5714 209.899 90.1728 209.31C89.7741 208.721 89.5748 208.053 89.5748 207.308C89.5748 206.372 89.8088 205.635 90.2768 205.098C90.7621 204.543 91.5508 204.153 92.6428 203.928C93.7521 203.685 95.2428 203.564 97.1148 203.564H98.3368V205.176H97.1408C95.8928 205.176 94.9048 205.237 94.1768 205.358C93.4488 205.479 92.9288 205.687 92.6168 205.982C92.3221 206.259 92.1748 206.649 92.1748 207.152C92.1748 207.811 92.4001 208.348 92.8508 208.764C93.3014 209.163 93.9254 209.362 94.7228 209.362C95.3641 209.362 95.9274 209.215 96.4128 208.92C96.8981 208.608 97.2794 208.192 97.5568 207.672C97.8514 207.152 97.9988 206.554 97.9988 205.878V202.888C97.9988 201.9 97.7908 201.189 97.3748 200.756C96.9588 200.323 96.2741 200.106 95.3208 200.106C94.7661 200.106 94.1854 200.175 93.5788 200.314C92.9894 200.453 92.3741 200.687 91.7328 201.016C91.4381 201.155 91.1868 201.198 90.9788 201.146C90.7708 201.094 90.6061 200.981 90.4848 200.808C90.3634 200.617 90.2941 200.418 90.2768 200.21C90.2768 199.985 90.3288 199.768 90.4328 199.56C90.5541 199.352 90.7534 199.196 91.0308 199.092C91.7934 198.728 92.5474 198.468 93.2928 198.312C94.0381 198.156 94.7401 198.078 95.3988 198.078C96.5601 198.078 97.5134 198.26 98.2588 198.624C99.0214 198.988 99.5848 199.543 99.9488 200.288C100.313 201.033 100.495 201.995 100.495 203.174V209.856C100.495 210.272 100.391 210.601 100.183 210.844C99.9748 211.069 99.6714 211.182 99.2728 211.182C98.8914 211.182 98.5881 211.069 98.3628 210.844C98.1374 210.601 98.0248 210.272 98.0248 209.856V208.166H98.2588C98.1201 208.807 97.8601 209.362 97.4788 209.83C97.1148 210.281 96.6554 210.627 96.1008 210.87C95.5461 211.113 94.9134 211.234 94.2028 211.234ZM105.412 211.182C104.996 211.182 104.675 211.069 104.45 210.844C104.224 210.601 104.112 210.272 104.112 209.856V199.456C104.112 199.023 104.224 198.693 104.45 198.468C104.675 198.243 104.987 198.13 105.386 198.13C105.802 198.13 106.114 198.243 106.322 198.468C106.547 198.693 106.66 199.023 106.66 199.456V201.484L106.374 201.016C106.755 200.045 107.353 199.317 108.168 198.832C108.982 198.329 109.918 198.078 110.976 198.078C111.981 198.078 112.813 198.269 113.472 198.65C114.148 199.014 114.65 199.577 114.98 200.34C115.309 201.085 115.474 202.03 115.474 203.174V209.856C115.474 210.272 115.361 210.601 115.136 210.844C114.91 211.069 114.59 211.182 114.174 211.182C113.74 211.182 113.411 211.069 113.186 210.844C112.96 210.601 112.848 210.272 112.848 209.856V203.33C112.848 202.238 112.631 201.441 112.198 200.938C111.782 200.435 111.123 200.184 110.222 200.184C109.164 200.184 108.315 200.513 107.674 201.172C107.05 201.831 106.738 202.715 106.738 203.824V209.856C106.738 210.74 106.296 211.182 105.412 211.182ZM124.5 211.234C123.46 211.234 122.585 211.052 121.874 210.688C121.163 210.324 120.635 209.787 120.288 209.076C119.941 208.365 119.768 207.499 119.768 206.476V200.34H118.208C117.861 200.34 117.593 200.253 117.402 200.08C117.211 199.889 117.116 199.638 117.116 199.326C117.116 198.997 117.211 198.745 117.402 198.572C117.593 198.399 117.861 198.312 118.208 198.312H119.768V195.634C119.768 195.201 119.881 194.871 120.106 194.646C120.349 194.421 120.678 194.308 121.094 194.308C121.51 194.308 121.831 194.421 122.056 194.646C122.281 194.871 122.394 195.201 122.394 195.634V198.312H125.436C125.783 198.312 126.051 198.399 126.242 198.572C126.433 198.745 126.528 198.997 126.528 199.326C126.528 199.638 126.433 199.889 126.242 200.08C126.051 200.253 125.783 200.34 125.436 200.34H122.394V206.268C122.394 207.187 122.585 207.88 122.966 208.348C123.365 208.816 124.006 209.05 124.89 209.05C125.202 209.05 125.471 209.024 125.696 208.972C125.939 208.903 126.138 208.859 126.294 208.842C126.485 208.842 126.641 208.911 126.762 209.05C126.883 209.171 126.944 209.414 126.944 209.778C126.944 210.038 126.892 210.281 126.788 210.506C126.701 210.731 126.537 210.879 126.294 210.948C126.086 211.017 125.8 211.078 125.436 211.13C125.089 211.199 124.777 211.234 124.5 211.234ZM130.117 211.156C129.701 211.156 129.38 211.035 129.155 210.792C128.929 210.532 128.817 210.177 128.817 209.726V199.586C128.817 199.135 128.929 198.789 129.155 198.546C129.38 198.303 129.701 198.182 130.117 198.182C130.533 198.182 130.853 198.303 131.079 198.546C131.321 198.789 131.443 199.135 131.443 199.586V209.726C131.443 210.177 131.33 210.532 131.105 210.792C130.879 211.035 130.55 211.156 130.117 211.156ZM130.117 195.478C129.597 195.478 129.189 195.348 128.895 195.088C128.617 194.828 128.479 194.464 128.479 193.996C128.479 193.511 128.617 193.147 128.895 192.904C129.189 192.644 129.597 192.514 130.117 192.514C130.637 192.514 131.035 192.644 131.313 192.904C131.607 193.147 131.755 193.511 131.755 193.996C131.755 194.464 131.607 194.828 131.313 195.088C131.035 195.348 130.637 195.478 130.117 195.478ZM139.195 211.234C138.311 211.234 137.514 211.061 136.803 210.714C136.11 210.367 135.564 209.899 135.165 209.31C134.766 208.721 134.567 208.053 134.567 207.308C134.567 206.372 134.801 205.635 135.269 205.098C135.754 204.543 136.543 204.153 137.635 203.928C138.744 203.685 140.235 203.564 142.107 203.564H143.329V205.176H142.133C140.885 205.176 139.897 205.237 139.169 205.358C138.441 205.479 137.921 205.687 137.609 205.982C137.314 206.259 137.167 206.649 137.167 207.152C137.167 207.811 137.392 208.348 137.843 208.764C138.294 209.163 138.918 209.362 139.715 209.362C140.356 209.362 140.92 209.215 141.405 208.92C141.89 208.608 142.272 208.192 142.549 207.672C142.844 207.152 142.991 206.554 142.991 205.878V202.888C142.991 201.9 142.783 201.189 142.367 200.756C141.951 200.323 141.266 200.106 140.313 200.106C139.758 200.106 139.178 200.175 138.571 200.314C137.982 200.453 137.366 200.687 136.725 201.016C136.43 201.155 136.179 201.198 135.971 201.146C135.763 201.094 135.598 200.981 135.477 200.808C135.356 200.617 135.286 200.418 135.269 200.21C135.269 199.985 135.321 199.768 135.425 199.56C135.546 199.352 135.746 199.196 136.023 199.092C136.786 198.728 137.54 198.468 138.285 198.312C139.03 198.156 139.732 198.078 140.391 198.078C141.552 198.078 142.506 198.26 143.251 198.624C144.014 198.988 144.577 199.543 144.941 200.288C145.305 201.033 145.487 201.995 145.487 203.174V209.856C145.487 210.272 145.383 210.601 145.175 210.844C144.967 211.069 144.664 211.182 144.265 211.182C143.884 211.182 143.58 211.069 143.355 210.844C143.13 210.601 143.017 210.272 143.017 209.856V208.166H143.251C143.112 208.807 142.852 209.362 142.471 209.83C142.107 210.281 141.648 210.627 141.093 210.87C140.538 211.113 139.906 211.234 139.195 211.234Z" fill="#D9D9D9"/>
<path d="M317.06 214.172C316.748 214.172 316.488 214.068 316.28 213.86C316.089 213.652 315.994 213.401 315.994 213.106V210.636L316.514 211.13C315.301 211.113 314.209 210.957 313.238 210.662C312.267 210.35 311.453 209.977 310.794 209.544C310.551 209.388 310.378 209.189 310.274 208.946C310.17 208.703 310.135 208.461 310.17 208.218C310.222 207.975 310.326 207.767 310.482 207.594C310.638 207.421 310.829 207.317 311.054 207.282C311.279 207.247 311.539 207.317 311.834 207.49C312.371 207.837 313.039 208.149 313.836 208.426C314.651 208.703 315.639 208.842 316.8 208.842C317.736 208.842 318.499 208.721 319.088 208.478C319.695 208.235 320.137 207.906 320.414 207.49C320.709 207.074 320.856 206.589 320.856 206.034C320.856 205.583 320.752 205.193 320.544 204.864C320.353 204.535 320.033 204.257 319.582 204.032C319.131 203.789 318.533 203.59 317.788 203.434L315.11 202.862C313.533 202.515 312.354 201.943 311.574 201.146C310.811 200.349 310.43 199.3 310.43 198C310.43 196.977 310.673 196.067 311.158 195.27C311.661 194.473 312.354 193.84 313.238 193.372C314.139 192.904 315.188 192.635 316.384 192.566L315.994 192.93V190.564C315.994 190.269 316.089 190.018 316.28 189.81C316.488 189.602 316.748 189.498 317.06 189.498C317.355 189.498 317.606 189.602 317.814 189.81C318.022 190.018 318.126 190.269 318.126 190.564V192.93L317.684 192.566C318.481 192.583 319.331 192.748 320.232 193.06C321.133 193.355 321.905 193.779 322.546 194.334C322.754 194.507 322.884 194.707 322.936 194.932C323.005 195.157 323.005 195.374 322.936 195.582C322.884 195.79 322.78 195.963 322.624 196.102C322.468 196.241 322.269 196.319 322.026 196.336C321.783 196.353 321.523 196.267 321.246 196.076C320.691 195.695 320.076 195.391 319.4 195.166C318.741 194.941 317.953 194.828 317.034 194.828C315.821 194.828 314.859 195.114 314.148 195.686C313.437 196.258 313.082 197.003 313.082 197.922C313.082 198.615 313.299 199.179 313.732 199.612C314.165 200.028 314.893 200.349 315.916 200.574L318.646 201.146C320.31 201.51 321.541 202.073 322.338 202.836C323.135 203.599 323.534 204.613 323.534 205.878C323.534 206.866 323.283 207.741 322.78 208.504C322.277 209.249 321.584 209.847 320.7 210.298C319.833 210.731 318.828 211 317.684 211.104L318.126 210.61V213.106C318.126 213.401 318.022 213.652 317.814 213.86C317.623 214.068 317.372 214.172 317.06 214.172ZM331.038 211.234C330.275 211.234 329.478 211.104 328.646 210.844C327.831 210.567 327.086 210.159 326.41 209.622C326.185 209.466 326.037 209.275 325.968 209.05C325.916 208.807 325.916 208.582 325.968 208.374C326.02 208.149 326.124 207.958 326.28 207.802C326.436 207.629 326.627 207.533 326.852 207.516C327.095 207.481 327.346 207.551 327.606 207.724C328.195 208.157 328.776 208.469 329.348 208.66C329.937 208.851 330.518 208.946 331.09 208.946C332.165 208.946 333.075 208.686 333.82 208.166C334.565 207.646 335.129 206.866 335.51 205.826C335.891 204.786 336.082 203.495 336.082 201.952V199.742H336.368C336.247 200.661 335.952 201.467 335.484 202.16C335.033 202.853 334.444 203.382 333.716 203.746C332.988 204.11 332.182 204.292 331.298 204.292C330.241 204.292 329.296 204.041 328.464 203.538C327.632 203.035 326.982 202.342 326.514 201.458C326.046 200.574 325.812 199.577 325.812 198.468C325.812 197.289 326.063 196.249 326.566 195.348C327.069 194.429 327.762 193.719 328.646 193.216C329.547 192.696 330.579 192.436 331.74 192.436C333.231 192.436 334.487 192.791 335.51 193.502C336.533 194.195 337.313 195.218 337.85 196.57C338.405 197.922 338.682 199.543 338.682 201.432C338.682 203.009 338.509 204.405 338.162 205.618C337.815 206.831 337.313 207.854 336.654 208.686C335.995 209.518 335.189 210.151 334.236 210.584C333.3 211.017 332.234 211.234 331.038 211.234ZM331.922 202.082C332.615 202.082 333.231 201.926 333.768 201.614C334.305 201.302 334.721 200.86 335.016 200.288C335.328 199.716 335.484 199.066 335.484 198.338C335.484 197.593 335.328 196.943 335.016 196.388C334.721 195.816 334.305 195.374 333.768 195.062C333.231 194.75 332.615 194.594 331.922 194.594C331.211 194.594 330.587 194.75 330.05 195.062C329.53 195.374 329.114 195.816 328.802 196.388C328.507 196.943 328.36 197.593 328.36 198.338C328.36 199.066 328.507 199.716 328.802 200.288C329.114 200.86 329.53 201.302 330.05 201.614C330.587 201.926 331.211 202.082 331.922 202.082ZM347.98 211.234C346.593 211.234 345.397 211.035 344.392 210.636C343.404 210.237 342.641 209.657 342.104 208.894C341.584 208.114 341.324 207.187 341.324 206.112C341.324 205.245 341.497 204.483 341.844 203.824C342.19 203.148 342.676 202.602 343.3 202.186C343.924 201.77 344.643 201.51 345.458 201.406V201.874C344.331 201.631 343.43 201.103 342.754 200.288C342.095 199.456 341.766 198.468 341.766 197.324C341.766 196.301 342.017 195.426 342.52 194.698C343.04 193.953 343.768 193.389 344.704 193.008C345.64 192.627 346.732 192.436 347.98 192.436C349.245 192.436 350.346 192.627 351.282 193.008C352.218 193.389 352.937 193.953 353.44 194.698C353.96 195.426 354.22 196.301 354.22 197.324C354.22 198.087 354.064 198.789 353.752 199.43C353.457 200.054 353.032 200.583 352.478 201.016C351.923 201.432 351.273 201.709 350.528 201.848V201.406C351.758 201.579 352.746 202.091 353.492 202.94C354.254 203.772 354.636 204.829 354.636 206.112C354.636 207.187 354.367 208.114 353.83 208.894C353.31 209.657 352.556 210.237 351.568 210.636C350.58 211.035 349.384 211.234 347.98 211.234ZM347.98 209.102C349.349 209.102 350.38 208.842 351.074 208.322C351.767 207.785 352.114 206.987 352.114 205.93C352.114 204.873 351.767 204.084 351.074 203.564C350.38 203.044 349.349 202.784 347.98 202.784C346.628 202.784 345.596 203.044 344.886 203.564C344.192 204.084 343.846 204.873 343.846 205.93C343.846 206.987 344.192 207.785 344.886 208.322C345.596 208.842 346.628 209.102 347.98 209.102ZM347.98 200.652C348.76 200.652 349.418 200.531 349.956 200.288C350.51 200.028 350.935 199.673 351.23 199.222C351.524 198.754 351.672 198.208 351.672 197.584C351.672 196.648 351.342 195.911 350.684 195.374C350.042 194.837 349.141 194.568 347.98 194.568C346.818 194.568 345.917 194.837 345.276 195.374C344.634 195.911 344.314 196.648 344.314 197.584C344.314 198.537 344.634 199.291 345.276 199.846C345.917 200.383 346.818 200.652 347.98 200.652ZM366.586 211.182C366.17 211.182 365.84 211.069 365.598 210.844C365.355 210.601 365.234 210.272 365.234 209.856V207.282H358.266C357.832 207.282 357.486 207.187 357.226 206.996C356.966 206.805 356.836 206.511 356.836 206.112C356.836 205.887 356.888 205.644 356.992 205.384C357.113 205.124 357.321 204.786 357.616 204.37L365.182 193.372C365.372 193.077 365.589 192.861 365.832 192.722C366.074 192.566 366.352 192.488 366.664 192.488C367.028 192.488 367.322 192.601 367.548 192.826C367.79 193.034 367.912 193.363 367.912 193.814V205.02H369.55C369.966 205.02 370.269 205.115 370.46 205.306C370.668 205.497 370.772 205.774 370.772 206.138C370.772 206.519 370.668 206.805 370.46 206.996C370.269 207.187 369.966 207.282 369.55 207.282H367.912V209.856C367.912 210.272 367.79 210.601 367.548 210.844C367.322 211.069 367.002 211.182 366.586 211.182ZM365.234 205.02V195.842H365.936L359.15 205.748V205.02H365.234ZM374.479 211.104C373.977 211.104 373.569 210.948 373.257 210.636C372.945 210.324 372.789 209.925 372.789 209.44C372.789 208.955 372.945 208.565 373.257 208.27C373.569 207.958 373.977 207.802 374.479 207.802C374.982 207.802 375.381 207.958 375.675 208.27C375.97 208.565 376.117 208.955 376.117 209.44C376.117 209.925 375.97 210.324 375.675 210.636C375.381 210.948 374.982 211.104 374.479 211.104ZM383.977 211.234C383.215 211.234 382.417 211.104 381.585 210.844C380.771 210.567 380.025 210.159 379.349 209.622C379.124 209.466 378.977 209.275 378.907 209.05C378.855 208.807 378.855 208.582 378.907 208.374C378.959 208.149 379.063 207.958 379.219 207.802C379.375 207.629 379.566 207.533 379.791 207.516C380.034 207.481 380.285 207.551 380.545 207.724C381.135 208.157 381.715 208.469 382.287 208.66C382.877 208.851 383.457 208.946 384.029 208.946C385.104 208.946 386.014 208.686 386.759 208.166C387.505 207.646 388.068 206.866 388.449 205.826C388.831 204.786 389.021 203.495 389.021 201.952V199.742H389.307C389.186 200.661 388.891 201.467 388.423 202.16C387.973 202.853 387.383 203.382 386.655 203.746C385.927 204.11 385.121 204.292 384.237 204.292C383.18 204.292 382.235 204.041 381.403 203.538C380.571 203.035 379.921 202.342 379.453 201.458C378.985 200.574 378.751 199.577 378.751 198.468C378.751 197.289 379.003 196.249 379.505 195.348C380.008 194.429 380.701 193.719 381.585 193.216C382.487 192.696 383.518 192.436 384.679 192.436C386.17 192.436 387.427 192.791 388.449 193.502C389.472 194.195 390.252 195.218 390.789 196.57C391.344 197.922 391.621 199.543 391.621 201.432C391.621 203.009 391.448 204.405 391.101 205.618C390.755 206.831 390.252 207.854 389.593 208.686C388.935 209.518 388.129 210.151 387.175 210.584C386.239 211.017 385.173 211.234 383.977 211.234ZM384.861 202.082C385.555 202.082 386.17 201.926 386.707 201.614C387.245 201.302 387.661 200.86 387.955 200.288C388.267 199.716 388.423 199.066 388.423 198.338C388.423 197.593 388.267 196.943 387.955 196.388C387.661 195.816 387.245 195.374 386.707 195.062C386.17 194.75 385.555 194.594 384.861 194.594C384.151 194.594 383.527 194.75 382.989 195.062C382.469 195.374 382.053 195.816 381.741 196.388C381.447 196.943 381.299 197.593 381.299 198.338C381.299 199.066 381.447 199.716 381.741 200.288C382.053 200.86 382.469 201.302 382.989 201.614C383.527 201.926 384.151 202.082 384.861 202.082ZM401.205 211.234C400.252 211.234 399.29 211.104 398.319 210.844C397.348 210.567 396.464 210.142 395.667 209.57C395.407 209.414 395.234 209.215 395.147 208.972C395.06 208.729 395.043 208.495 395.095 208.27C395.147 208.027 395.251 207.828 395.407 207.672C395.58 207.516 395.788 207.429 396.031 207.412C396.274 207.377 396.534 207.447 396.811 207.62C397.487 208.053 398.18 208.383 398.891 208.608C399.619 208.833 400.373 208.946 401.153 208.946C401.95 208.946 402.635 208.799 403.207 208.504C403.779 208.209 404.212 207.802 404.507 207.282C404.819 206.745 404.975 206.121 404.975 205.41C404.975 204.318 404.654 203.425 404.013 202.732C403.372 202.039 402.479 201.692 401.335 201.692C400.676 201.692 400.061 201.813 399.489 202.056C398.917 202.281 398.371 202.663 397.851 203.2C397.73 203.339 397.565 203.469 397.357 203.59C397.166 203.694 396.95 203.746 396.707 203.746C396.343 203.746 396.066 203.651 395.875 203.46C395.684 203.269 395.589 203.009 395.589 202.68V193.866C395.589 193.485 395.693 193.19 395.901 192.982C396.109 192.774 396.404 192.67 396.785 192.67H405.495C405.876 192.67 406.171 192.765 406.379 192.956C406.587 193.147 406.691 193.424 406.691 193.788C406.691 194.152 406.587 194.438 406.379 194.646C406.171 194.837 405.876 194.932 405.495 194.932H398.215V201.536H397.487C397.955 200.877 398.57 200.366 399.333 200.002C400.113 199.638 400.971 199.456 401.907 199.456C403.068 199.456 404.074 199.699 404.923 200.184C405.772 200.669 406.431 201.354 406.899 202.238C407.367 203.105 407.601 204.119 407.601 205.28C407.601 206.459 407.341 207.499 406.821 208.4C406.301 209.284 405.564 209.977 404.611 210.48C403.658 210.983 402.522 211.234 401.205 211.234Z" fill="#D9D9D9"/>
</svg>
