<?xml version="1.0" encoding="UTF-8" standalone="no"?><!DOCTYPE svg PUBLIC "-//W3C//DTD SVG 1.1//EN" "http://www.w3.org/Graphics/SVG/1.1/DTD/svg11.dtd"><svg width="100%" height="100%" viewBox="0 0 355 105" version="1.1" xmlns="http://www.w3.org/2000/svg" xmlns:xlink="http://www.w3.org/1999/xlink" xml:space="preserve" xmlns:serif="http://www.serif.com/" style="fill-rule:evenodd;clip-rule:evenodd;stroke-linejoin:round;stroke-miterlimit:2;"><g><clipPath id="_clip1"><rect x="0" y="0" width="350.344" height="104.167"/></clipPath><g clip-path="url(#_clip1)"><path d="M0.67,-0.002l89.708,0c0.113,-0.002 0.225,0.025 0.324,0.079c0.099,0.053 0.183,0.131 0.243,0.226c0.061,0.095 0.096,0.204 0.103,0.317c0.006,0.112 -0.016,0.225 -0.065,0.326c-7.734,15.617 -19.391,28.958 -33.83,38.715c-23.323,15.737 -46.809,17.362 -56.476,17.448c-0.088,0.002 -0.176,-0.014 -0.258,-0.046c-0.082,-0.033 -0.157,-0.081 -0.22,-0.143c-0.063,-0.062 -0.113,-0.135 -0.147,-0.217c-0.034,-0.081 -0.052,-0.169 -0.052,-0.257l0,-55.785c-0,-0.087 0.017,-0.174 0.051,-0.255c0.034,-0.081 0.083,-0.154 0.146,-0.216c0.062,-0.062 0.136,-0.111 0.217,-0.143c0.081,-0.033 0.168,-0.05 0.256,-0.049Z" style="fill:#ff6250;fill-rule:nonzero;"/><path d="M20.031,104.164c11.063,-0 20.032,-8.969 20.032,-20.031c-0,-11.063 -8.969,-20.032 -20.032,-20.032c-11.063,0 -20.031,8.969 -20.031,20.031c-0,11.063 8.968,20.032 20.031,20.032Z" style="fill:#ffdf90;fill-rule:nonzero;"/><path d="M60.979,102.978c-5.667,-2.164 -8.681,-8.4 -6.761,-13.921l15.122,-43.152c1.937,-5.521 8.1,-8.24 13.767,-6.077c5.667,2.167 8.681,8.4 6.761,13.924l-15.122,43.153c-1.938,5.52 -8.101,8.243 -13.767,6.073Z" style="fill:#36f;fill-rule:nonzero;"/><path d="M141.617,76.342c-3.576,-0 -6.714,-0.841 -9.413,-2.521c-2.745,-1.74 -4.919,-4.248 -6.25,-7.212c-1.472,-3.125 -2.205,-6.796 -2.198,-11.014c0.007,-4.217 0.754,-7.915 2.243,-11.094c1.355,-3.013 3.537,-5.581 6.292,-7.406c2.779,-1.788 6.028,-2.709 9.333,-2.646c3.576,0 6.636,0.867 9.177,2.601c2.542,1.734 4.262,4.206 5.16,7.417l-0.958,0.638l-0,-9.694l8.01,0l-0,40.385l-8.007,0l-0,-9.857l0.958,0.403c-0.909,3.203 -2.631,5.672 -5.163,7.406c-2.532,1.734 -5.593,2.598 -9.184,2.594Zm1.92,-6.41c3.637,0 6.454,-1.256 8.452,-3.767c1.997,-2.512 2.997,-6.091 3,-10.737c-0,-4.646 -1,-8.224 -3,-10.736c-2,-2.511 -4.818,-3.767 -8.452,-3.767c-3.683,-0 -6.554,1.294 -8.614,3.882c-2.06,2.588 -3.088,6.176 -3.084,10.764c0,4.597 1.028,8.137 3.084,10.621c2.055,2.484 4.927,3.731 8.614,3.74Z" style="fill-rule:nonzero;"/><path d="M174.786,75.785l0,-29.015c0,-1.871 -0.034,-3.767 -0.121,-5.69c-0.087,-1.924 -0.257,-3.82 -0.517,-5.688l7.69,0l0.723,8.173l-0.802,0.48c1.173,-3.153 3.055,-5.542 5.646,-7.167c2.681,-1.651 5.782,-2.494 8.93,-2.43c9.667,-0 14.501,5.422 14.503,16.267l0,25.08l-8.093,0l-0,-24.771c-0,-3.472 -0.695,-6.009 -2.084,-7.611c-1.389,-1.602 -3.525,-2.404 -6.409,-2.406c-3.472,-0 -6.235,1.068 -8.289,3.204c-2.053,2.137 -3.081,4.996 -3.083,8.577l-0,22.997l-8.094,-0Z" style="fill-rule:nonzero;"/><path d="M221.745,17.767l9.375,0l-0,8.493l-9.375,0l0,-8.493Zm0.559,58.014l-0,-40.385l8.094,-0l-0,40.385l-8.094,0Z" style="fill-rule:nonzero;"/><path d="M242.175,75.78l0,-29.006c0,-1.872 -0.035,-3.768 -0.114,-5.691c-0.08,-1.904 -0.255,-3.802 -0.524,-5.688l7.691,0l0.722,8.174l-0.803,0.319c1.01,-2.993 2.693,-5.317 5.049,-6.972c2.356,-1.655 5.161,-2.483 8.413,-2.483c3.845,0 6.854,0.947 9.028,2.841c2.174,1.893 3.571,4.813 4.191,8.76l-1.92,-1.361c0.823,-3.032 2.68,-5.682 5.25,-7.49c2.595,-1.852 5.652,-2.777 9.17,-2.777c4.489,-0 7.854,1.347 10.097,4.041c2.243,2.695 3.365,6.766 3.365,12.216l0,25.083l-8.09,-0l-0,-24.733c-0,-3.472 -0.608,-6.01 -1.803,-7.614c-1.194,-1.604 -3.125,-2.403 -5.812,-2.403c-3.095,-0 -5.537,1.068 -7.326,3.205c-1.79,2.136 -2.686,5.048 -2.688,8.736l0,22.837l-8.094,-0l0,-24.761c0,-3.472 -0.614,-6.01 -1.843,-7.614c-1.229,-1.604 -3.152,-2.406 -5.768,-2.403c-3.155,-0 -5.625,1.068 -7.409,3.205c-1.785,2.136 -2.681,5.048 -2.688,8.736l0,22.837l-8.094,-0l0,0.006Z" style="fill-rule:nonzero;"/><path d="M328.956,76.34c-3.576,-0 -6.713,-0.841 -9.41,-2.521c-2.745,-1.74 -4.918,-4.247 -6.25,-7.212c-1.472,-3.125 -2.208,-6.796 -2.208,-11.014c-0,-4.218 0.748,-7.915 2.243,-11.094c1.357,-3.011 3.537,-5.578 6.288,-7.406c2.781,-1.788 6.031,-2.709 9.337,-2.646c3.579,0 6.637,0.867 9.174,2.601c2.537,1.734 4.258,4.206 5.163,7.417l-0.962,0.638l0,-9.694l8.014,0l0,40.386l-8.014,-0l0,-9.858l0.962,0.403c-0.91,3.203 -2.631,5.672 -5.163,7.406c-2.532,1.734 -5.59,2.598 -9.174,2.594Zm1.917,-6.41c3.636,0 6.456,-1.256 8.458,-3.767c2.002,-2.512 3.002,-6.091 3,-10.737c0,-4.646 -1,-8.224 -3,-10.736c-2,-2.511 -4.819,-3.767 -8.458,-3.767c-3.683,-0 -6.556,1.294 -8.618,3.882c-2.063,2.588 -3.09,6.176 -3.08,10.764c0,4.597 1.027,8.138 3.08,10.621c2.053,2.484 4.926,3.731 8.618,3.74Z" style="fill-rule:nonzero;"/></g></g></svg>