<?xml version="1.0" encoding="UTF-8" standalone="no"?><!DOCTYPE svg PUBLIC "-//W3C//DTD SVG 1.1//EN" "http://www.w3.org/Graphics/SVG/1.1/DTD/svg11.dtd"><svg width="100%" height="100%" viewBox="0 0 800 800" version="1.1" xmlns="http://www.w3.org/2000/svg" xmlns:xlink="http://www.w3.org/1999/xlink" xml:space="preserve" xmlns:serif="http://www.serif.com/" style="fill-rule:evenodd;clip-rule:evenodd;stroke-linecap:round;stroke-linejoin:round;"><g id="SVGRepo_iconCarrier"><path d="M300,366.667l0,-166.667c0,-55.228 44.77,-100 100,-100c55.23,-0 100,44.772 100,100l0,165.577m-153.333,334.423l106.666,0c74.674,0 112.01,0 140.534,-14.533c25.086,-12.784 45.483,-33.18 58.266,-58.267c14.534,-28.523 14.534,-65.86 14.534,-140.533l-0,-80c-0,-37.337 -0,-56.007 -7.267,-70.267c-6.39,-12.544 -16.59,-22.742 -29.133,-29.134c-14.26,-7.266 -32.93,-7.266 -70.267,-7.266l-320,0c-37.337,0 -56.005,0 -70.266,7.266c-12.544,6.392 -22.743,16.59 -29.134,29.134c-7.267,14.26 -7.267,32.93 -7.267,70.267l0,80c0,74.673 0,112.01 14.533,140.533c12.783,25.087 33.18,45.483 58.269,58.267c28.521,14.533 65.858,14.533 140.532,14.533Z" style="fill:none;fill-rule:nonzero;stroke:#fd5f00;stroke-width:66.67px;"/></g></svg>