<?xml version="1.0" encoding="UTF-8" standalone="no"?><!DOCTYPE svg PUBLIC "-//W3C//DTD SVG 1.1//EN" "http://www.w3.org/Graphics/SVG/1.1/DTD/svg11.dtd"><svg width="100%" height="100%" viewBox="0 0 800 800" version="1.1" xmlns="http://www.w3.org/2000/svg" xmlns:xlink="http://www.w3.org/1999/xlink" xml:space="preserve" xmlns:serif="http://www.serif.com/" style="fill-rule:evenodd;clip-rule:evenodd;stroke-linejoin:round;stroke-miterlimit:2;"><g id="SVGRepo_iconCarrier"><g><path d="M793.738,255.653c-9.238,-66.34 -39.847,-124.65 -83.847,-168.651c-31.743,-31.716 -70.457,-56.085 -113.238,-70.86c-42.78,-14.776 -89.662,-19.937 -137.489,-13.278c-66.341,9.225 -124.653,39.859 -168.641,83.859c-31.742,31.73 -56.095,70.444 -70.871,113.225c-14.777,42.78 -19.938,89.663 -13.279,137.502c5.779,41.584 19.988,80.009 40.604,113.727l-222.661,222.673c-13.919,13.894 -20.944,32.283 -20.918,50.495c-0.025,18.211 6.999,36.6 20.907,50.482l4.253,4.267c13.897,13.908 32.297,20.943 50.508,20.906c18.212,0.025 36.587,-6.998 50.482,-20.919l224.485,-224.472c15.708,8.874 32.233,16.4 49.425,22.341c42.779,14.775 89.65,19.95 137.49,13.278c66.354,-9.225 124.664,-39.847 168.639,-83.859c31.732,-31.742 56.097,-70.446 70.874,-113.225c14.775,-42.78 19.934,-89.663 13.276,-137.491Zm-692.231,495.386c-6.256,6.244 -14.259,9.277 -22.44,9.302c-8.207,-0.013 -16.197,-3.058 -22.454,-9.288l-4.267,-4.266c-6.229,-6.243 -9.262,-14.246 -9.287,-22.44c0.025,-8.194 3.058,-16.2 9.301,-22.453l212.803,-212.807l49.15,49.149l-212.806,212.803Zm641.472,-370.847c-12.8,37.053 -33.931,70.62 -61.445,98.135c-33.806,33.806 -77.164,58.373 -126.666,69.134c-3.826,0.214 -7.678,0.276 -11.517,0.189c-24.53,-0.592 -49.539,-7.263 -73.516,-18.93c-23.951,-11.642 -46.82,-28.243 -66.831,-48.267c-30.333,-30.306 -54.07,-68.442 -66.001,-108.391c-5.991,-19.962 -9.038,-40.387 -8.672,-60.564c0.39,-20.2 4.153,-40.187 11.943,-59.531c8.169,-20.351 21.157,-39.431 37.519,-55.794c27.149,-27.186 63.535,-46.643 101.153,-52.659c18.816,-3.02 37.935,-2.756 56.588,1.372c18.651,4.153 36.876,12.12 54.133,24.82c7.375,5.438 14.059,11.189 20.048,17.18c13.833,13.831 24.116,28.998 31.252,44.856c10.698,23.763 14.348,49.136 11.704,73.816c-2.643,24.681 -11.604,48.62 -26.09,69.261c-4.178,5.94 -8.797,11.429 -13.807,16.437c-21.434,21.46 -49.903,34.072 -78.271,36.261c-14.172,1.095 -28.294,-0.39 -41.535,-4.519c-13.253,-4.153 -25.612,-10.937 -36.537,-20.615c-1.688,-1.497 -3.299,-3.008 -4.858,-4.569c-18.375,-18.4 -28.294,-41.219 -30.044,-64.414c-1.737,-23.197 4.706,-46.645 19.597,-66.366c2.014,-2.668 4.178,-5.136 6.456,-7.426c12.208,-12.21 28.13,-19.144 44.605,-20.352c16.487,-1.197 33.303,3.297 47.537,14.046c1.75,1.309 3.436,2.793 5.047,4.392c4.455,4.456 8.294,9.956 11.114,15.984c4.266,9.013 6.168,19.106 5.261,28.18c-0.453,4.569 -1.561,8.898 -3.361,12.901c-1.825,3.989 -4.328,7.702 -7.751,11.127c-1.36,1.372 -2.883,2.692 -4.581,3.964c-6.658,4.997 -14.31,7.098 -21.46,6.758c-7.198,-0.353 -13.694,-3.135 -18.425,-7.867c-2.619,-2.643 -4.783,-5.904 -6.344,-10.094c-3.159,-8.545 -12.65,-12.938 -21.232,-9.78c-8.546,3.147 -12.938,12.638 -9.778,21.21c3.146,8.57 7.979,16.046 13.982,22.037c10.925,10.925 25.411,16.791 40.163,17.508c14.787,0.717 30.067,-3.675 42.931,-13.328c2.919,-2.203 5.639,-4.544 8.117,-7.024c8.346,-8.331 14.11,-18.223 17.407,-28.52c4.971,-15.492 4.531,-31.728 0.39,-46.656c-4.19,-14.939 -12.083,-28.772 -23.045,-39.76c-2.655,-2.654 -5.488,-5.134 -8.495,-7.412c-20.793,-15.72 -45.788,-22.416 -69.891,-20.641c-24.116,1.775 -47.575,11.969 -65.549,29.942c-3.359,3.372 -6.518,6.999 -9.451,10.888c-19.824,26.191 -28.545,57.806 -26.203,88.769c2.303,30.973 15.694,61.393 39.633,85.307c2.026,2.027 4.128,4.002 6.293,5.929c14.499,12.875 31.125,21.95 48.619,27.425c26.23,8.193 54.334,8.318 80.916,1.396c26.568,-6.934 51.728,-20.929 72.118,-41.32c6.332,-6.331 12.196,-13.265 17.482,-20.805c23.625,-33.643 35.228,-74.37 32.536,-115.25c-1.336,-20.44 -6.269,-40.879 -15.053,-60.4c-8.785,-19.509 -21.422,-38.048 -38.022,-54.65c-7.199,-7.2 -15.141,-14.032 -23.825,-20.415c-20.919,-15.417 -43.561,-25.372 -66.569,-30.47c-34.574,-7.654 -69.828,-4.455 -102.199,6.518c-32.409,11.002 -62.1,29.703 -86.064,53.655c-19.243,19.244 -34.787,41.886 -44.831,66.82c-9.339,23.26 -13.87,47.336 -14.309,71.263c-0.655,35.92 7.815,71.475 22.679,104.337c14.89,32.863 36.185,63.107 61.66,88.592c14.951,14.941 31.326,28.244 48.758,39.433c-4.028,-1.17 -8.03,-2.417 -11.982,-3.789c-37.053,-12.775 -70.632,-33.918 -98.145,-61.418c-38.136,-38.174 -64.592,-88.466 -72.609,-146.061c-5.789,-41.547 -1.297,-82.035 11.478,-119.088c12.787,-37.041 33.931,-70.62 61.433,-98.122c38.161,-38.148 88.454,-64.603 146.061,-72.622c41.559,-5.776 82.036,-1.297 119.089,11.48c37.028,12.798 70.62,33.931 98.134,61.431c38.136,38.161 64.578,88.466 72.609,146.061c5.774,41.558 1.294,82.036 -11.481,119.075Z" style="fill:#fd5f00;fill-rule:nonzero;"/></g></g></svg>