<svg width="429" height="273" viewBox="0 0 429 273" fill="none" xmlns="http://www.w3.org/2000/svg">
<rect width="429" height="273" rx="20" fill="black"/>
<path d="M27.9 44.18C26.5 44.18 25.3 43.8867 24.3 43.3C23.3 42.7133 22.5267 41.88 21.98 40.8C21.4467 39.7067 21.18 38.42 21.18 36.94C21.18 35.8333 21.3333 34.84 21.64 33.96C21.9467 33.0667 22.3867 32.3067 22.96 31.68C23.5333 31.04 24.2333 30.5533 25.06 30.22C25.9 29.8867 26.8467 29.72 27.9 29.72C28.7 29.72 29.4667 29.8333 30.2 30.06C30.9467 30.2867 31.5867 30.6067 32.12 31.02C32.3333 31.1667 32.4733 31.3333 32.54 31.52C32.6067 31.7067 32.6133 31.8867 32.56 32.06C32.52 32.22 32.4333 32.36 32.3 32.48C32.18 32.5867 32.0267 32.6467 31.84 32.66C31.6533 32.66 31.4533 32.5867 31.24 32.44C30.7733 32.08 30.26 31.82 29.7 31.66C29.1533 31.4867 28.5667 31.4 27.94 31.4C26.9133 31.4 26.04 31.62 25.32 32.06C24.6133 32.4867 24.0733 33.1133 23.7 33.94C23.34 34.7533 23.16 35.7533 23.16 36.94C23.16 38.1133 23.34 39.12 23.7 39.96C24.0733 40.7867 24.6133 41.42 25.32 41.86C26.04 42.2867 26.9133 42.5 27.94 42.5C28.5667 42.5 29.16 42.4133 29.72 42.24C30.2933 42.0667 30.82 41.8 31.3 41.44C31.5133 41.2933 31.7067 41.2267 31.88 41.24C32.0667 41.2533 32.22 41.3133 32.34 41.42C32.46 41.5133 32.54 41.6467 32.58 41.82C32.6333 41.98 32.6333 42.1467 32.58 42.32C32.5267 42.4933 32.4067 42.6467 32.22 42.78C31.6733 43.2467 31.02 43.6 30.26 43.84C29.5133 44.0667 28.7267 44.18 27.9 44.18ZM38.393 44.18C37.433 44.18 36.5996 43.9733 35.893 43.56C35.1863 43.1467 34.6396 42.56 34.253 41.8C33.8663 41.04 33.673 40.1467 33.673 39.12C33.673 38.3467 33.7796 37.6533 33.993 37.04C34.2196 36.4133 34.5396 35.88 34.953 35.44C35.3663 35 35.8596 34.6667 36.433 34.44C37.0196 34.2 37.673 34.08 38.393 34.08C39.353 34.08 40.1863 34.2867 40.893 34.7C41.5996 35.1133 42.1463 35.7 42.533 36.46C42.9196 37.2067 43.113 38.0933 43.113 39.12C43.113 39.8933 42.9996 40.5933 42.773 41.22C42.5596 41.8467 42.2463 42.38 41.833 42.82C41.4196 43.26 40.9196 43.6 40.333 43.84C39.7596 44.0667 39.113 44.18 38.393 44.18ZM38.393 42.74C38.9796 42.74 39.4863 42.6 39.913 42.32C40.353 42.04 40.6863 41.6333 40.913 41.1C41.153 40.5667 41.273 39.9067 41.273 39.12C41.273 37.9467 41.013 37.0533 40.493 36.44C39.973 35.8267 39.273 35.52 38.393 35.52C37.8196 35.52 37.313 35.66 36.873 35.94C36.4463 36.2067 36.113 36.6067 35.873 37.14C35.633 37.6733 35.513 38.3333 35.513 39.12C35.513 40.2933 35.773 41.1933 36.293 41.82C36.8263 42.4333 37.5263 42.74 38.393 42.74ZM48.9244 44.18C48.1377 44.18 47.4777 44.0333 46.9444 43.74C46.4244 43.4467 46.0377 43.0133 45.7844 42.44C45.531 41.8667 45.4044 41.1467 45.4044 40.28V35.04C45.4044 34.7333 45.4777 34.5067 45.6244 34.36C45.7844 34.2 46.011 34.12 46.3044 34.12C46.5977 34.12 46.8244 34.2 46.9844 34.36C47.1444 34.5067 47.2244 34.7333 47.2244 35.04V40.28C47.2244 41.1067 47.391 41.72 47.7244 42.12C48.0577 42.5067 48.5844 42.7 49.3044 42.7C50.1044 42.7 50.751 42.4333 51.2444 41.9C51.751 41.3667 52.0044 40.66 52.0044 39.78V35.04C52.0044 34.7333 52.0777 34.5067 52.2244 34.36C52.3844 34.2 52.611 34.12 52.9044 34.12C53.1977 34.12 53.4244 34.2 53.5844 34.36C53.7444 34.5067 53.8244 34.7333 53.8244 35.04V43.2C53.8244 43.8267 53.531 44.14 52.9444 44.14C52.651 44.14 52.4244 44.06 52.2644 43.9C52.1177 43.74 52.0444 43.5067 52.0444 43.2V41.46L52.3044 41.8C52.0377 42.5733 51.6044 43.1667 51.0044 43.58C50.4177 43.98 49.7244 44.18 48.9244 44.18ZM57.653 44.14C57.373 44.14 57.153 44.06 56.993 43.9C56.833 43.74 56.753 43.5067 56.753 43.2V35.04C56.753 34.7333 56.833 34.5067 56.993 34.36C57.153 34.2 57.373 34.12 57.653 34.12C57.933 34.12 58.1463 34.2 58.293 34.36C58.453 34.5067 58.533 34.7333 58.533 35.04V36.68L58.313 36.38C58.593 35.62 59.0463 35.0467 59.673 34.66C60.313 34.2733 61.0396 34.08 61.853 34.08C62.6396 34.08 63.2863 34.22 63.793 34.5C64.2996 34.78 64.6796 35.2067 64.933 35.78C65.1863 36.3533 65.313 37.08 65.313 37.96V43.2C65.313 43.5067 65.233 43.74 65.073 43.9C64.9263 44.06 64.7063 44.14 64.413 44.14C64.1196 44.14 63.893 44.06 63.733 43.9C63.573 43.74 63.493 43.5067 63.493 43.2V38.06C63.493 37.1933 63.3263 36.56 62.993 36.16C62.6596 35.76 62.1263 35.56 61.393 35.56C60.5396 35.56 59.853 35.8267 59.333 36.36C58.8263 36.88 58.573 37.5867 58.573 38.48V43.2C58.573 43.8267 58.2663 44.14 57.653 44.14ZM72.2383 44.18C71.4516 44.18 70.7916 44.04 70.2583 43.76C69.7383 43.48 69.3449 43.0733 69.0783 42.54C68.8249 42.0067 68.6983 41.3533 68.6983 40.58V35.66H67.4183C67.1783 35.66 66.9916 35.6 66.8583 35.48C66.7249 35.3467 66.6583 35.1733 66.6583 34.96C66.6583 34.7333 66.7249 34.56 66.8583 34.44C66.9916 34.32 67.1783 34.26 67.4183 34.26H68.6983V32.08C68.6983 31.7733 68.7783 31.5467 68.9383 31.4C69.0983 31.24 69.3249 31.16 69.6183 31.16C69.9116 31.16 70.1316 31.24 70.2783 31.4C70.4383 31.5467 70.5183 31.7733 70.5183 32.08V34.26H72.9383C73.1916 34.26 73.3849 34.32 73.5183 34.44C73.6516 34.56 73.7183 34.7333 73.7183 34.96C73.7183 35.1733 73.6516 35.3467 73.5183 35.48C73.3849 35.6 73.1916 35.66 72.9383 35.66H70.5183V40.42C70.5183 41.1533 70.6716 41.7067 70.9783 42.08C71.2849 42.4533 71.7916 42.64 72.4983 42.64C72.7516 42.64 72.9649 42.62 73.1383 42.58C73.3116 42.5267 73.4649 42.5 73.5983 42.5C73.7183 42.4867 73.8183 42.5267 73.8983 42.62C73.9916 42.7133 74.0383 42.8867 74.0383 43.14C74.0383 43.3267 74.0049 43.5 73.9383 43.66C73.8849 43.8067 73.7716 43.9067 73.5983 43.96C73.4383 44.0133 73.2249 44.06 72.9583 44.1C72.6916 44.1533 72.4516 44.18 72.2383 44.18ZM76.3063 44.14C75.9996 44.14 75.7663 44.06 75.6063 43.9C75.4463 43.74 75.3663 43.5067 75.3663 43.2V35.04C75.3663 34.7333 75.4463 34.5067 75.6063 34.36C75.7663 34.2 75.9863 34.12 76.2663 34.12C76.5463 34.12 76.7596 34.2 76.9063 34.36C77.0663 34.5067 77.1463 34.7333 77.1463 35.04V36.58H76.9463C77.1596 35.78 77.5596 35.1733 78.1463 34.76C78.7329 34.3467 79.4729 34.1133 80.3663 34.06C80.5796 34.0467 80.7529 34.1 80.8863 34.22C81.0196 34.3267 81.0929 34.5133 81.1063 34.78C81.1196 35.0333 81.0596 35.24 80.9263 35.4C80.7929 35.5467 80.5863 35.6333 80.3063 35.66L79.9463 35.68C79.0663 35.7733 78.3863 36.06 77.9063 36.54C77.4396 37.02 77.2063 37.68 77.2063 38.52V43.2C77.2063 43.5067 77.1263 43.74 76.9663 43.9C76.8196 44.06 76.5996 44.14 76.3063 44.14ZM85.5164 47.74C85.3031 47.74 85.1231 47.68 84.9764 47.56C84.8431 47.4533 84.7631 47.3 84.7364 47.1C84.7231 46.9133 84.7631 46.7133 84.8564 46.5L86.2164 43.42V44.18L82.4364 35.38C82.3431 35.1533 82.3097 34.9467 82.3364 34.76C82.3631 34.5733 82.4497 34.42 82.5964 34.3C82.7564 34.18 82.9697 34.12 83.2364 34.12C83.4631 34.12 83.6431 34.1733 83.7764 34.28C83.9097 34.3867 84.0364 34.5733 84.1564 34.84L87.2964 42.58H86.7364L89.9364 34.84C90.0431 34.5733 90.1697 34.3867 90.3164 34.28C90.4631 34.1733 90.6631 34.12 90.9164 34.12C91.1431 34.12 91.3164 34.18 91.4364 34.3C91.5697 34.42 91.6497 34.5733 91.6764 34.76C91.7031 34.9467 91.6631 35.1467 91.5564 35.36L86.5164 47.02C86.3831 47.3 86.2431 47.4867 86.0964 47.58C85.9631 47.6867 85.7697 47.74 85.5164 47.74Z" fill="#8E8E8E"/>
<path d="M302.7 44C302.38 44 302.133 43.9133 301.96 43.74C301.787 43.5667 301.7 43.32 301.7 43V30.9C301.7 30.58 301.787 30.3333 301.96 30.16C302.133 29.9867 302.38 29.9 302.7 29.9H306.56C308.867 29.9 310.64 30.5067 311.88 31.72C313.133 32.92 313.76 34.66 313.76 36.94C313.76 38.0733 313.6 39.08 313.28 39.96C312.96 40.84 312.493 41.58 311.88 42.18C311.267 42.7667 310.513 43.22 309.62 43.54C308.74 43.8467 307.72 44 306.56 44H302.7ZM303.56 42.42H306.44C307.347 42.42 308.133 42.3067 308.8 42.08C309.467 41.8533 310.02 41.5133 310.46 41.06C310.913 40.6067 311.253 40.04 311.48 39.36C311.707 38.6667 311.82 37.86 311.82 36.94C311.82 35.1133 311.367 33.7467 310.46 32.84C309.567 31.9333 308.227 31.48 306.44 31.48H303.56V42.42ZM319.501 44.18C318.835 44.18 318.228 44.0467 317.681 43.78C317.148 43.5133 316.728 43.1533 316.421 42.7C316.128 42.2467 315.981 41.74 315.981 41.18C315.981 40.46 316.161 39.8933 316.521 39.48C316.881 39.0667 317.488 38.7733 318.341 38.6C319.195 38.4133 320.341 38.32 321.781 38.32H322.721V39.48H321.821C320.795 39.48 319.981 39.5267 319.381 39.62C318.795 39.7133 318.381 39.88 318.141 40.12C317.901 40.3467 317.781 40.6667 317.781 41.08C317.781 41.6 317.961 42.0267 318.321 42.36C318.695 42.6933 319.201 42.86 319.841 42.86C320.348 42.86 320.795 42.74 321.181 42.5C321.568 42.2467 321.875 41.9133 322.101 41.5C322.328 41.0733 322.441 40.5867 322.441 40.04V37.74C322.441 36.9533 322.281 36.3867 321.961 36.04C321.641 35.68 321.101 35.5 320.341 35.5C319.901 35.5 319.448 35.56 318.981 35.68C318.515 35.8 318.028 35.9867 317.521 36.24C317.321 36.3333 317.148 36.3667 317.001 36.34C316.855 36.3 316.735 36.22 316.641 36.1C316.561 35.9667 316.515 35.8267 316.501 35.68C316.501 35.52 316.535 35.3667 316.601 35.22C316.681 35.0733 316.815 34.9667 317.001 34.9C317.588 34.6067 318.168 34.4 318.741 34.28C319.328 34.1467 319.875 34.08 320.381 34.08C321.248 34.08 321.961 34.22 322.521 34.5C323.081 34.7667 323.501 35.1867 323.781 35.76C324.061 36.32 324.201 37.04 324.201 37.92V43.2C324.201 43.5067 324.128 43.74 323.981 43.9C323.835 44.06 323.621 44.14 323.341 44.14C323.075 44.14 322.861 44.06 322.701 43.9C322.555 43.74 322.481 43.5067 322.481 43.2V41.78H322.661C322.555 42.2733 322.355 42.7 322.061 43.06C321.768 43.42 321.401 43.7 320.961 43.9C320.535 44.0867 320.048 44.18 319.501 44.18ZM331.105 44.18C330.319 44.18 329.659 44.04 329.125 43.76C328.605 43.48 328.212 43.0733 327.945 42.54C327.692 42.0067 327.565 41.3533 327.565 40.58V35.66H326.285C326.045 35.66 325.859 35.6 325.725 35.48C325.592 35.3467 325.525 35.1733 325.525 34.96C325.525 34.7333 325.592 34.56 325.725 34.44C325.859 34.32 326.045 34.26 326.285 34.26H327.565V32.08C327.565 31.7733 327.645 31.5467 327.805 31.4C327.965 31.24 328.192 31.16 328.485 31.16C328.779 31.16 328.999 31.24 329.145 31.4C329.305 31.5467 329.385 31.7733 329.385 32.08V34.26H331.805C332.059 34.26 332.252 34.32 332.385 34.44C332.519 34.56 332.585 34.7333 332.585 34.96C332.585 35.1733 332.519 35.3467 332.385 35.48C332.252 35.6 332.059 35.66 331.805 35.66H329.385V40.42C329.385 41.1533 329.539 41.7067 329.845 42.08C330.152 42.4533 330.659 42.64 331.365 42.64C331.619 42.64 331.832 42.62 332.005 42.58C332.179 42.5267 332.332 42.5 332.465 42.5C332.585 42.4867 332.685 42.5267 332.765 42.62C332.859 42.7133 332.905 42.8867 332.905 43.14C332.905 43.3267 332.872 43.5 332.805 43.66C332.752 43.8067 332.639 43.9067 332.465 43.96C332.305 44.0133 332.092 44.06 331.825 44.1C331.559 44.1533 331.319 44.18 331.105 44.18ZM338.636 44.18C337.582 44.18 336.676 43.98 335.916 43.58C335.169 43.1667 334.589 42.5867 334.176 41.84C333.762 41.08 333.556 40.1867 333.556 39.16C333.556 38.1467 333.756 37.26 334.156 36.5C334.569 35.74 335.129 35.1467 335.836 34.72C336.556 34.2933 337.376 34.08 338.296 34.08C338.949 34.08 339.536 34.1933 340.056 34.42C340.589 34.6333 341.042 34.9467 341.416 35.36C341.789 35.7733 342.069 36.28 342.256 36.88C342.456 37.4667 342.556 38.1333 342.556 38.88C342.556 39.0933 342.489 39.26 342.356 39.38C342.236 39.4867 342.056 39.54 341.816 39.54H334.976V38.38H341.356L341.016 38.66C341.016 37.9667 340.909 37.38 340.696 36.9C340.496 36.4067 340.196 36.0333 339.796 35.78C339.409 35.5267 338.922 35.4 338.336 35.4C337.696 35.4 337.149 35.5533 336.696 35.86C336.242 36.1533 335.896 36.5733 335.656 37.12C335.416 37.6533 335.296 38.2733 335.296 38.98V39.1C335.296 40.3 335.582 41.2067 336.156 41.82C336.729 42.4333 337.556 42.74 338.636 42.74C339.062 42.74 339.496 42.6867 339.936 42.58C340.389 42.4733 340.822 42.28 341.236 42C341.436 41.88 341.616 41.8267 341.776 41.84C341.949 41.84 342.089 41.8933 342.196 42C342.302 42.0933 342.369 42.2133 342.396 42.36C342.422 42.4933 342.402 42.64 342.336 42.8C342.269 42.96 342.142 43.1 341.956 43.22C341.516 43.5267 340.989 43.7667 340.376 43.94C339.776 44.1 339.196 44.18 338.636 44.18ZM351.514 44.14C351.221 44.14 350.994 44.06 350.834 43.9C350.674 43.74 350.594 43.5067 350.594 43.2V35.66H349.394C349.154 35.66 348.968 35.6 348.834 35.48C348.701 35.3467 348.634 35.1733 348.634 34.96C348.634 34.7333 348.701 34.56 348.834 34.44C348.968 34.32 349.154 34.26 349.394 34.26H351.094L350.594 34.74V34C350.594 32.7067 350.908 31.7267 351.534 31.06C352.174 30.38 353.108 29.9867 354.334 29.88L354.954 29.84C355.154 29.8133 355.314 29.8467 355.434 29.94C355.554 30.02 355.634 30.1267 355.674 30.26C355.714 30.3933 355.714 30.5333 355.674 30.68C355.648 30.8133 355.588 30.9333 355.494 31.04C355.401 31.1467 355.281 31.2067 355.134 31.22L354.694 31.24C353.894 31.3067 353.314 31.5467 352.954 31.96C352.594 32.36 352.414 32.96 352.414 33.76V34.56L352.154 34.26H354.454C354.708 34.26 354.901 34.32 355.034 34.44C355.168 34.56 355.234 34.7333 355.234 34.96C355.234 35.1733 355.168 35.3467 355.034 35.48C354.901 35.6 354.708 35.66 354.454 35.66H352.414V43.2C352.414 43.8267 352.114 44.14 351.514 44.14ZM360.698 44.18C359.738 44.18 358.904 43.9733 358.198 43.56C357.491 43.1467 356.944 42.56 356.558 41.8C356.171 41.04 355.978 40.1467 355.978 39.12C355.978 38.3467 356.084 37.6533 356.298 37.04C356.524 36.4133 356.844 35.88 357.258 35.44C357.671 35 358.164 34.6667 358.738 34.44C359.324 34.2 359.978 34.08 360.698 34.08C361.658 34.08 362.491 34.2867 363.198 34.7C363.904 35.1133 364.451 35.7 364.838 36.46C365.224 37.2067 365.418 38.0933 365.418 39.12C365.418 39.8933 365.304 40.5933 365.078 41.22C364.864 41.8467 364.551 42.38 364.138 42.82C363.724 43.26 363.224 43.6 362.638 43.84C362.064 44.0667 361.418 44.18 360.698 44.18ZM360.698 42.74C361.284 42.74 361.791 42.6 362.218 42.32C362.658 42.04 362.991 41.6333 363.218 41.1C363.458 40.5667 363.578 39.9067 363.578 39.12C363.578 37.9467 363.318 37.0533 362.798 36.44C362.278 35.8267 361.578 35.52 360.698 35.52C360.124 35.52 359.618 35.66 359.178 35.94C358.751 36.2067 358.418 36.6067 358.178 37.14C357.938 37.6733 357.818 38.3333 357.818 39.12C357.818 40.2933 358.078 41.1933 358.598 41.82C359.131 42.4333 359.831 42.74 360.698 42.74ZM368.689 44.14C368.382 44.14 368.149 44.06 367.989 43.9C367.829 43.74 367.749 43.5067 367.749 43.2V35.04C367.749 34.7333 367.829 34.5067 367.989 34.36C368.149 34.2 368.369 34.12 368.649 34.12C368.929 34.12 369.142 34.2 369.289 34.36C369.449 34.5067 369.529 34.7333 369.529 35.04V36.58H369.329C369.542 35.78 369.942 35.1733 370.529 34.76C371.116 34.3467 371.856 34.1133 372.749 34.06C372.962 34.0467 373.136 34.1 373.269 34.22C373.402 34.3267 373.476 34.5133 373.489 34.78C373.502 35.0333 373.442 35.24 373.309 35.4C373.176 35.5467 372.969 35.6333 372.689 35.66L372.329 35.68C371.449 35.7733 370.769 36.06 370.289 36.54C369.822 37.02 369.589 37.68 369.589 38.52V43.2C369.589 43.5067 369.509 43.74 369.349 43.9C369.202 44.06 368.982 44.14 368.689 44.14ZM375.994 44.14C375.714 44.14 375.494 44.06 375.334 43.9C375.174 43.74 375.094 43.5067 375.094 43.2V35.04C375.094 34.7333 375.174 34.5067 375.334 34.36C375.494 34.2 375.714 34.12 375.994 34.12C376.274 34.12 376.487 34.2 376.634 34.36C376.794 34.5067 376.874 34.7333 376.874 35.04V36.74L376.654 36.38C376.907 35.6467 377.314 35.08 377.874 34.68C378.447 34.28 379.127 34.08 379.914 34.08C380.74 34.08 381.407 34.28 381.914 34.68C382.42 35.0667 382.76 35.66 382.934 36.46H382.654C382.894 35.7267 383.32 35.1467 383.934 34.72C384.56 34.2933 385.287 34.08 386.114 34.08C386.847 34.08 387.447 34.2267 387.914 34.52C388.394 34.8 388.754 35.2267 388.994 35.8C389.234 36.36 389.354 37.08 389.354 37.96V43.2C389.354 43.5067 389.274 43.74 389.114 43.9C388.954 44.06 388.734 44.14 388.454 44.14C388.16 44.14 387.934 44.06 387.774 43.9C387.614 43.74 387.534 43.5067 387.534 43.2V38.04C387.534 37.1867 387.387 36.56 387.094 36.16C386.8 35.76 386.307 35.56 385.614 35.56C384.854 35.56 384.247 35.8267 383.794 36.36C383.354 36.88 383.134 37.6 383.134 38.52V43.2C383.134 43.5067 383.054 43.74 382.894 43.9C382.747 44.06 382.527 44.14 382.234 44.14C381.94 44.14 381.714 44.06 381.554 43.9C381.394 43.74 381.314 43.5067 381.314 43.2V38.04C381.314 37.1867 381.167 36.56 380.874 36.16C380.58 35.76 380.087 35.56 379.394 35.56C378.634 35.56 378.027 35.8267 377.574 36.36C377.134 36.88 376.914 37.6 376.914 38.52V43.2C376.914 43.8267 376.607 44.14 375.994 44.14ZM395.38 44.18C394.714 44.18 394.107 44.0467 393.56 43.78C393.027 43.5133 392.607 43.1533 392.3 42.7C392.007 42.2467 391.86 41.74 391.86 41.18C391.86 40.46 392.04 39.8933 392.4 39.48C392.76 39.0667 393.367 38.7733 394.22 38.6C395.074 38.4133 396.22 38.32 397.66 38.32H398.6V39.48H397.7C396.674 39.48 395.86 39.5267 395.26 39.62C394.674 39.7133 394.26 39.88 394.02 40.12C393.78 40.3467 393.66 40.6667 393.66 41.08C393.66 41.6 393.84 42.0267 394.2 42.36C394.574 42.6933 395.08 42.86 395.72 42.86C396.227 42.86 396.674 42.74 397.06 42.5C397.447 42.2467 397.754 41.9133 397.98 41.5C398.207 41.0733 398.32 40.5867 398.32 40.04V37.74C398.32 36.9533 398.16 36.3867 397.84 36.04C397.52 35.68 396.98 35.5 396.22 35.5C395.78 35.5 395.327 35.56 394.86 35.68C394.394 35.8 393.907 35.9867 393.4 36.24C393.2 36.3333 393.027 36.3667 392.88 36.34C392.734 36.3 392.614 36.22 392.52 36.1C392.44 35.9667 392.394 35.8267 392.38 35.68C392.38 35.52 392.414 35.3667 392.48 35.22C392.56 35.0733 392.694 34.9667 392.88 34.9C393.467 34.6067 394.047 34.4 394.62 34.28C395.207 34.1467 395.754 34.08 396.26 34.08C397.127 34.08 397.84 34.22 398.4 34.5C398.96 34.7667 399.38 35.1867 399.66 35.76C399.94 36.32 400.08 37.04 400.08 37.92V43.2C400.08 43.5067 400.007 43.74 399.86 43.9C399.714 44.06 399.5 44.14 399.22 44.14C398.954 44.14 398.74 44.06 398.58 43.9C398.434 43.74 398.36 43.5067 398.36 43.2V41.78H398.54C398.434 42.2733 398.234 42.7 397.94 43.06C397.647 43.42 397.28 43.7 396.84 43.9C396.414 44.0867 395.927 44.18 395.38 44.18ZM406.984 44.18C406.198 44.18 405.538 44.04 405.004 43.76C404.484 43.48 404.091 43.0733 403.824 42.54C403.571 42.0067 403.444 41.3533 403.444 40.58V35.66H402.164C401.924 35.66 401.738 35.6 401.604 35.48C401.471 35.3467 401.404 35.1733 401.404 34.96C401.404 34.7333 401.471 34.56 401.604 34.44C401.738 34.32 401.924 34.26 402.164 34.26H403.444V32.08C403.444 31.7733 403.524 31.5467 403.684 31.4C403.844 31.24 404.071 31.16 404.364 31.16C404.658 31.16 404.878 31.24 405.024 31.4C405.184 31.5467 405.264 31.7733 405.264 32.08V34.26H407.684C407.938 34.26 408.131 34.32 408.264 34.44C408.398 34.56 408.464 34.7333 408.464 34.96C408.464 35.1733 408.398 35.3467 408.264 35.48C408.131 35.6 407.938 35.66 407.684 35.66H405.264V40.42C405.264 41.1533 405.418 41.7067 405.724 42.08C406.031 42.4533 406.538 42.64 407.244 42.64C407.498 42.64 407.711 42.62 407.884 42.58C408.058 42.5267 408.211 42.5 408.344 42.5C408.464 42.4867 408.564 42.5267 408.644 42.62C408.738 42.7133 408.784 42.8867 408.784 43.14C408.784 43.3267 408.751 43.5 408.684 43.66C408.631 43.8067 408.518 43.9067 408.344 43.96C408.184 44.0133 407.971 44.06 407.704 44.1C407.438 44.1533 407.198 44.18 406.984 44.18Z" fill="#8E8E8E"/>
<line x1="20" y1="74" x2="409" y2="74" stroke="#333132" stroke-width="2"/>
<path d="M23.588 125C23.12 125 22.756 124.879 22.496 124.636C22.2533 124.376 22.132 124.012 22.132 123.544V108.126C22.132 107.658 22.2533 107.303 22.496 107.06C22.756 106.8 23.12 106.67 23.588 106.67H33.078C33.442 106.67 33.7193 106.765 33.91 106.956C34.1007 107.129 34.196 107.389 34.196 107.736C34.196 108.1 34.1007 108.377 33.91 108.568C33.7193 108.759 33.442 108.854 33.078 108.854H24.732V114.6H32.506C32.8873 114.6 33.1647 114.695 33.338 114.886C33.5287 115.077 33.624 115.345 33.624 115.692C33.624 116.056 33.5287 116.333 33.338 116.524C33.1647 116.697 32.8873 116.784 32.506 116.784H24.732V122.816H33.078C33.442 122.816 33.7193 122.911 33.91 123.102C34.1007 123.293 34.196 123.561 34.196 123.908C34.196 124.272 34.1007 124.549 33.91 124.74C33.7193 124.913 33.442 125 33.078 125H23.588ZM44.8525 125.234C43.6219 125.234 42.5385 125.078 41.6025 124.766C40.6665 124.437 39.8779 123.951 39.2365 123.31C38.6125 122.669 38.1359 121.871 37.8065 120.918C37.4772 119.965 37.3125 118.864 37.3125 117.616V107.84C37.3125 107.389 37.4252 107.051 37.6505 106.826C37.8932 106.601 38.2312 106.488 38.6645 106.488C39.0979 106.488 39.4272 106.601 39.6525 106.826C39.8952 107.051 40.0165 107.389 40.0165 107.84V117.564C40.0165 119.349 40.4239 120.684 41.2385 121.568C42.0705 122.452 43.2752 122.894 44.8525 122.894C46.4472 122.894 47.6519 122.452 48.4665 121.568C49.2812 120.684 49.6885 119.349 49.6885 117.564V107.84C49.6885 107.389 49.8012 107.051 50.0265 106.826C50.2692 106.601 50.5985 106.488 51.0145 106.488C51.4479 106.488 51.7772 106.601 52.0025 106.826C52.2279 107.051 52.3405 107.389 52.3405 107.84V117.616C52.3405 119.28 52.0545 120.684 51.4825 121.828C50.9279 122.955 50.0959 123.804 48.9865 124.376C47.8772 124.948 46.4992 125.234 44.8525 125.234Z" fill="#D9D9D9"/>
<path d="M278.514 125.234C277.543 125.234 276.555 125.104 275.55 124.844C274.545 124.567 273.669 124.159 272.924 123.622C272.647 123.449 272.456 123.241 272.352 122.998C272.265 122.738 272.248 122.504 272.3 122.296C272.352 122.071 272.456 121.88 272.612 121.724C272.785 121.568 272.993 121.481 273.236 121.464C273.479 121.429 273.747 121.499 274.042 121.672C274.787 122.123 275.515 122.452 276.226 122.66C276.937 122.851 277.673 122.946 278.436 122.946C279.268 122.946 279.97 122.825 280.542 122.582C281.114 122.339 281.539 121.984 281.816 121.516C282.111 121.048 282.258 120.485 282.258 119.826C282.258 118.838 281.929 118.101 281.27 117.616C280.629 117.113 279.693 116.862 278.462 116.862H276.694C276.295 116.862 275.992 116.767 275.784 116.576C275.576 116.368 275.472 116.082 275.472 115.718C275.472 115.371 275.576 115.103 275.784 114.912C275.992 114.704 276.295 114.6 276.694 114.6H278.202C278.947 114.6 279.58 114.479 280.1 114.236C280.62 113.976 281.019 113.621 281.296 113.17C281.591 112.702 281.738 112.139 281.738 111.48C281.738 110.596 281.443 109.92 280.854 109.452C280.282 108.967 279.441 108.724 278.332 108.724C277.621 108.724 276.945 108.819 276.304 109.01C275.68 109.201 275.03 109.539 274.354 110.024C274.094 110.197 273.843 110.275 273.6 110.258C273.375 110.223 273.175 110.137 273.002 109.998C272.846 109.842 272.733 109.651 272.664 109.426C272.612 109.201 272.629 108.967 272.716 108.724C272.803 108.481 272.976 108.273 273.236 108.1C273.964 107.563 274.787 107.155 275.706 106.878C276.625 106.583 277.569 106.436 278.54 106.436C279.753 106.436 280.793 106.627 281.66 107.008C282.544 107.389 283.211 107.935 283.662 108.646C284.13 109.357 284.364 110.206 284.364 111.194C284.364 111.939 284.225 112.615 283.948 113.222C283.671 113.829 283.272 114.349 282.752 114.782C282.249 115.198 281.634 115.493 280.906 115.666V115.38C282.171 115.588 283.151 116.108 283.844 116.94C284.537 117.755 284.884 118.777 284.884 120.008C284.884 121.083 284.624 122.019 284.104 122.816C283.601 123.596 282.873 124.194 281.92 124.61C280.967 125.026 279.831 125.234 278.514 125.234ZM294.39 125.234C292.258 125.234 290.629 124.428 289.502 122.816C288.393 121.187 287.838 118.855 287.838 115.822C287.838 113.759 288.089 112.035 288.592 110.648C289.095 109.261 289.831 108.213 290.802 107.502C291.773 106.791 292.969 106.436 294.39 106.436C296.539 106.436 298.169 107.233 299.278 108.828C300.387 110.405 300.942 112.728 300.942 115.796C300.942 117.824 300.691 119.54 300.188 120.944C299.685 122.348 298.949 123.414 297.978 124.142C297.007 124.87 295.811 125.234 294.39 125.234ZM294.39 122.998C295.725 122.998 296.704 122.417 297.328 121.256C297.969 120.077 298.29 118.257 298.29 115.796C298.29 113.317 297.969 111.515 297.328 110.388C296.704 109.244 295.725 108.672 294.39 108.672C293.073 108.672 292.093 109.244 291.452 110.388C290.811 111.515 290.49 113.317 290.49 115.796C290.49 118.257 290.811 120.077 291.452 121.256C292.093 122.417 293.073 122.998 294.39 122.998ZM305.3 125.104C304.797 125.104 304.39 124.948 304.078 124.636C303.766 124.324 303.61 123.925 303.61 123.44C303.61 122.955 303.766 122.565 304.078 122.27C304.39 121.958 304.797 121.802 305.3 121.802C305.802 121.802 306.201 121.958 306.496 122.27C306.79 122.565 306.938 122.955 306.938 123.44C306.938 123.925 306.79 124.324 306.496 124.636C306.201 124.948 305.802 125.104 305.3 125.104ZM316.15 125.234C314.018 125.234 312.388 124.428 311.262 122.816C310.152 121.187 309.598 118.855 309.598 115.822C309.598 113.759 309.849 112.035 310.352 110.648C310.854 109.261 311.591 108.213 312.562 107.502C313.532 106.791 314.728 106.436 316.15 106.436C318.299 106.436 319.928 107.233 321.038 108.828C322.147 110.405 322.702 112.728 322.702 115.796C322.702 117.824 322.45 119.54 321.948 120.944C321.445 122.348 320.708 123.414 319.738 124.142C318.767 124.87 317.571 125.234 316.15 125.234ZM316.15 122.998C317.484 122.998 318.464 122.417 319.088 121.256C319.729 120.077 320.05 118.257 320.05 115.796C320.05 113.317 319.729 111.515 319.088 110.388C318.464 109.244 317.484 108.672 316.15 108.672C314.832 108.672 313.853 109.244 313.212 110.388C312.57 111.515 312.25 113.317 312.25 115.796C312.25 118.257 312.57 120.077 313.212 121.256C313.853 122.417 314.832 122.998 316.15 122.998ZM331.739 125.234C330.353 125.234 329.157 125.035 328.151 124.636C327.163 124.237 326.401 123.657 325.863 122.894C325.343 122.114 325.083 121.187 325.083 120.112C325.083 119.245 325.257 118.483 325.603 117.824C325.95 117.148 326.435 116.602 327.059 116.186C327.683 115.77 328.403 115.51 329.217 115.406V115.874C328.091 115.631 327.189 115.103 326.513 114.288C325.855 113.456 325.525 112.468 325.525 111.324C325.525 110.301 325.777 109.426 326.279 108.698C326.799 107.953 327.527 107.389 328.463 107.008C329.399 106.627 330.491 106.436 331.739 106.436C333.005 106.436 334.105 106.627 335.041 107.008C335.977 107.389 336.697 107.953 337.199 108.698C337.719 109.426 337.979 110.301 337.979 111.324C337.979 112.087 337.823 112.789 337.511 113.43C337.217 114.054 336.792 114.583 336.237 115.016C335.683 115.432 335.033 115.709 334.287 115.848V115.406C335.518 115.579 336.506 116.091 337.251 116.94C338.014 117.772 338.395 118.829 338.395 120.112C338.395 121.187 338.127 122.114 337.589 122.894C337.069 123.657 336.315 124.237 335.327 124.636C334.339 125.035 333.143 125.234 331.739 125.234ZM331.739 123.102C333.109 123.102 334.14 122.842 334.833 122.322C335.527 121.785 335.873 120.987 335.873 119.93C335.873 118.873 335.527 118.084 334.833 117.564C334.14 117.044 333.109 116.784 331.739 116.784C330.387 116.784 329.356 117.044 328.645 117.564C327.952 118.084 327.605 118.873 327.605 119.93C327.605 120.987 327.952 121.785 328.645 122.322C329.356 122.842 330.387 123.102 331.739 123.102ZM331.739 114.652C332.519 114.652 333.178 114.531 333.715 114.288C334.27 114.028 334.695 113.673 334.989 113.222C335.284 112.754 335.431 112.208 335.431 111.584C335.431 110.648 335.102 109.911 334.443 109.374C333.802 108.837 332.901 108.568 331.739 108.568C330.578 108.568 329.677 108.837 329.035 109.374C328.394 109.911 328.073 110.648 328.073 111.584C328.073 112.537 328.394 113.291 329.035 113.846C329.677 114.383 330.578 114.652 331.739 114.652ZM342.649 125.104C342.147 125.104 341.739 124.948 341.427 124.636C341.115 124.324 340.959 123.925 340.959 123.44C340.959 122.955 341.115 122.565 341.427 122.27C341.739 121.958 342.147 121.802 342.649 121.802C343.152 121.802 343.551 121.958 343.845 122.27C344.14 122.565 344.287 122.955 344.287 123.44C344.287 123.925 344.14 124.324 343.845 124.636C343.551 124.948 343.152 125.104 342.649 125.104ZM349.105 125C348.637 125 348.299 124.896 348.091 124.688C347.883 124.463 347.779 124.159 347.779 123.778C347.779 123.535 347.84 123.301 347.961 123.076C348.083 122.851 348.256 122.617 348.481 122.374L354.019 116.446C354.869 115.545 355.475 114.721 355.839 113.976C356.221 113.213 356.411 112.451 356.411 111.688C356.411 110.717 356.117 109.981 355.527 109.478C354.938 108.975 354.071 108.724 352.927 108.724C352.234 108.724 351.567 108.828 350.925 109.036C350.284 109.244 349.643 109.582 349.001 110.05C348.741 110.223 348.499 110.301 348.273 110.284C348.048 110.267 347.849 110.18 347.675 110.024C347.519 109.868 347.415 109.677 347.363 109.452C347.311 109.227 347.32 108.993 347.389 108.75C347.459 108.507 347.623 108.299 347.883 108.126C348.594 107.589 349.417 107.173 350.353 106.878C351.289 106.583 352.243 106.436 353.213 106.436C354.479 106.436 355.545 106.635 356.411 107.034C357.295 107.415 357.963 107.979 358.413 108.724C358.864 109.469 359.089 110.379 359.089 111.454C359.089 112.182 358.968 112.893 358.725 113.586C358.5 114.279 358.145 114.99 357.659 115.718C357.191 116.429 356.576 117.183 355.813 117.98L350.561 123.492V122.738H358.829C359.211 122.738 359.505 122.833 359.713 123.024C359.921 123.215 360.025 123.492 360.025 123.856C360.025 124.22 359.921 124.506 359.713 124.714C359.505 124.905 359.211 125 358.829 125H349.105ZM369.089 125.234C366.957 125.234 365.328 124.428 364.201 122.816C363.092 121.187 362.537 118.855 362.537 115.822C362.537 113.759 362.788 112.035 363.291 110.648C363.794 109.261 364.53 108.213 365.501 107.502C366.472 106.791 367.668 106.436 369.089 106.436C371.238 106.436 372.868 107.233 373.977 108.828C375.086 110.405 375.641 112.728 375.641 115.796C375.641 117.824 375.39 119.54 374.887 120.944C374.384 122.348 373.648 123.414 372.677 124.142C371.706 124.87 370.51 125.234 369.089 125.234ZM369.089 122.998C370.424 122.998 371.403 122.417 372.027 121.256C372.668 120.077 372.989 118.257 372.989 115.796C372.989 113.317 372.668 111.515 372.027 110.388C371.403 109.244 370.424 108.672 369.089 108.672C367.772 108.672 366.792 109.244 366.151 110.388C365.51 111.515 365.189 113.317 365.189 115.796C365.189 118.257 365.51 120.077 366.151 121.256C366.792 122.417 367.772 122.998 369.089 122.998ZM380.285 125C379.817 125 379.479 124.896 379.271 124.688C379.063 124.463 378.959 124.159 378.959 123.778C378.959 123.535 379.02 123.301 379.141 123.076C379.262 122.851 379.436 122.617 379.661 122.374L385.199 116.446C386.048 115.545 386.655 114.721 387.019 113.976C387.4 113.213 387.591 112.451 387.591 111.688C387.591 110.717 387.296 109.981 386.707 109.478C386.118 108.975 385.251 108.724 384.107 108.724C383.414 108.724 382.746 108.828 382.105 109.036C381.464 109.244 380.822 109.582 380.181 110.05C379.921 110.223 379.678 110.301 379.453 110.284C379.228 110.267 379.028 110.18 378.855 110.024C378.699 109.868 378.595 109.677 378.543 109.452C378.491 109.227 378.5 108.993 378.569 108.75C378.638 108.507 378.803 108.299 379.063 108.126C379.774 107.589 380.597 107.173 381.533 106.878C382.469 106.583 383.422 106.436 384.393 106.436C385.658 106.436 386.724 106.635 387.591 107.034C388.475 107.415 389.142 107.979 389.593 108.724C390.044 109.469 390.269 110.379 390.269 111.454C390.269 112.182 390.148 112.893 389.905 113.586C389.68 114.279 389.324 114.99 388.839 115.718C388.371 116.429 387.756 117.183 386.993 117.98L381.741 123.492V122.738H390.009C390.39 122.738 390.685 122.833 390.893 123.024C391.101 123.215 391.205 123.492 391.205 123.856C391.205 124.22 391.101 124.506 390.893 124.714C390.685 124.905 390.39 125 390.009 125H380.285ZM400.919 125.234C399.445 125.234 398.189 124.879 397.149 124.168C396.126 123.457 395.337 122.435 394.783 121.1C394.245 119.748 393.977 118.127 393.977 116.238C393.977 114.661 394.15 113.265 394.497 112.052C394.843 110.839 395.346 109.816 396.005 108.984C396.663 108.152 397.461 107.519 398.397 107.086C399.35 106.653 400.425 106.436 401.621 106.436C402.401 106.436 403.198 106.575 404.013 106.852C404.827 107.112 405.573 107.511 406.249 108.048C406.474 108.204 406.613 108.403 406.665 108.646C406.734 108.871 406.743 109.097 406.691 109.322C406.639 109.53 406.535 109.712 406.379 109.868C406.223 110.024 406.023 110.119 405.781 110.154C405.555 110.171 405.313 110.093 405.053 109.92C404.463 109.487 403.874 109.183 403.285 109.01C402.713 108.819 402.141 108.724 401.569 108.724C400.494 108.724 399.584 108.984 398.839 109.504C398.093 110.024 397.53 110.804 397.149 111.844C396.767 112.884 396.577 114.175 396.577 115.718V117.928H396.291C396.412 116.992 396.698 116.186 397.149 115.51C397.617 114.817 398.215 114.288 398.943 113.924C399.671 113.56 400.477 113.378 401.361 113.378C402.435 113.378 403.38 113.629 404.195 114.132C405.027 114.635 405.677 115.328 406.145 116.212C406.613 117.079 406.847 118.075 406.847 119.202C406.847 120.363 406.595 121.403 406.093 122.322C405.59 123.241 404.888 123.96 403.987 124.48C403.103 124.983 402.08 125.234 400.919 125.234ZM400.763 123.05C401.473 123.05 402.097 122.894 402.635 122.582C403.172 122.27 403.588 121.837 403.883 121.282C404.177 120.71 404.325 120.051 404.325 119.306C404.325 118.561 404.177 117.911 403.883 117.356C403.588 116.801 403.172 116.368 402.635 116.056C402.097 115.727 401.473 115.562 400.763 115.562C400.052 115.562 399.428 115.727 398.891 116.056C398.371 116.368 397.955 116.801 397.643 117.356C397.348 117.911 397.201 118.561 397.201 119.306C397.201 120.051 397.348 120.71 397.643 121.282C397.955 121.837 398.371 122.27 398.891 122.582C399.428 122.894 400.052 123.05 400.763 123.05Z" fill="#D9D9D9"/>
<path d="M29.542 168.234C28.3113 168.234 27.228 168.078 26.292 167.766C25.356 167.437 24.5673 166.951 23.926 166.31C23.302 165.669 22.8253 164.871 22.496 163.918C22.1667 162.965 22.002 161.864 22.002 160.616V150.84C22.002 150.389 22.1147 150.051 22.34 149.826C22.5827 149.601 22.9207 149.488 23.354 149.488C23.7873 149.488 24.1167 149.601 24.342 149.826C24.5847 150.051 24.706 150.389 24.706 150.84V160.564C24.706 162.349 25.1133 163.684 25.928 164.568C26.76 165.452 27.9647 165.894 29.542 165.894C31.1367 165.894 32.3413 165.452 33.156 164.568C33.9707 163.684 34.378 162.349 34.378 160.564V150.84C34.378 150.389 34.4907 150.051 34.716 149.826C34.9587 149.601 35.288 149.488 35.704 149.488C36.1373 149.488 36.4667 149.601 36.692 149.826C36.9173 150.051 37.03 150.389 37.03 150.84V160.616C37.03 162.28 36.744 163.684 36.172 164.828C35.6173 165.955 34.7853 166.804 33.676 167.376C32.5667 167.948 31.1887 168.234 29.542 168.234ZM47.3104 168.234C46.513 168.234 45.733 168.173 44.9704 168.052C44.2077 167.931 43.4884 167.749 42.8124 167.506C42.1364 167.246 41.5297 166.934 40.9924 166.57C40.7324 166.379 40.5504 166.163 40.4464 165.92C40.3597 165.677 40.3337 165.443 40.3684 165.218C40.4204 164.975 40.5244 164.767 40.6804 164.594C40.8364 164.421 41.027 164.317 41.2524 164.282C41.4777 164.23 41.729 164.299 42.0064 164.49C42.7864 164.993 43.6097 165.365 44.4764 165.608C45.343 165.833 46.2877 165.946 47.3104 165.946C48.7837 165.946 49.867 165.686 50.5604 165.166C51.271 164.629 51.6264 163.935 51.6264 163.086C51.6264 162.393 51.375 161.847 50.8724 161.448C50.3697 161.032 49.529 160.703 48.3504 160.46L45.5684 159.888C43.9217 159.541 42.691 158.969 41.8764 158.172C41.079 157.375 40.6804 156.3 40.6804 154.948C40.6804 154.133 40.845 153.388 41.1744 152.712C41.521 152.036 41.9977 151.455 42.6044 150.97C43.211 150.467 43.939 150.086 44.7884 149.826C45.6377 149.566 46.565 149.436 47.5704 149.436C48.645 149.436 49.6504 149.575 50.5864 149.852C51.5397 150.129 52.389 150.554 53.1344 151.126C53.3597 151.282 53.507 151.481 53.5764 151.724C53.663 151.949 53.6804 152.175 53.6284 152.4C53.5937 152.625 53.4984 152.816 53.3424 152.972C53.1864 153.128 52.987 153.223 52.7444 153.258C52.5017 153.275 52.233 153.189 51.9384 152.998C51.2624 152.547 50.569 152.227 49.8584 152.036C49.165 151.828 48.3937 151.724 47.5444 151.724C46.695 151.724 45.9497 151.854 45.3084 152.114C44.6844 152.374 44.199 152.738 43.8524 153.206C43.523 153.674 43.3584 154.229 43.3584 154.87C43.3584 155.598 43.5924 156.179 44.0604 156.612C44.5284 157.045 45.3084 157.375 46.4004 157.6L49.1564 158.172C50.8897 158.536 52.181 159.099 53.0304 159.862C53.8797 160.625 54.3044 161.639 54.3044 162.904C54.3044 163.719 54.1397 164.455 53.8104 165.114C53.481 165.755 53.013 166.31 52.4064 166.778C51.7997 167.246 51.063 167.61 50.1964 167.87C49.347 168.113 48.385 168.234 47.3104 168.234Z" fill="#D9D9D9"/>
<path d="M275.8 168.234C273.668 168.234 272.039 167.428 270.912 165.816C269.803 164.187 269.248 161.855 269.248 158.822C269.248 156.759 269.499 155.035 270.002 153.648C270.505 152.261 271.241 151.213 272.212 150.502C273.183 149.791 274.379 149.436 275.8 149.436C277.949 149.436 279.579 150.233 280.688 151.828C281.797 153.405 282.352 155.728 282.352 158.796C282.352 160.824 282.101 162.54 281.598 163.944C281.095 165.348 280.359 166.414 279.388 167.142C278.417 167.87 277.221 168.234 275.8 168.234ZM275.8 165.998C277.135 165.998 278.114 165.417 278.738 164.256C279.379 163.077 279.7 161.257 279.7 158.796C279.7 156.317 279.379 154.515 278.738 153.388C278.114 152.244 277.135 151.672 275.8 151.672C274.483 151.672 273.503 152.244 272.862 153.388C272.221 154.515 271.9 156.317 271.9 158.796C271.9 161.257 272.221 163.077 272.862 164.256C273.503 165.417 274.483 165.998 275.8 165.998ZM291.39 168.234C290.003 168.234 288.807 168.035 287.802 167.636C286.814 167.237 286.051 166.657 285.514 165.894C284.994 165.114 284.734 164.187 284.734 163.112C284.734 162.245 284.907 161.483 285.254 160.824C285.601 160.148 286.086 159.602 286.71 159.186C287.334 158.77 288.053 158.51 288.868 158.406V158.874C287.741 158.631 286.84 158.103 286.164 157.288C285.505 156.456 285.176 155.468 285.176 154.324C285.176 153.301 285.427 152.426 285.93 151.698C286.45 150.953 287.178 150.389 288.114 150.008C289.05 149.627 290.142 149.436 291.39 149.436C292.655 149.436 293.756 149.627 294.692 150.008C295.628 150.389 296.347 150.953 296.85 151.698C297.37 152.426 297.63 153.301 297.63 154.324C297.63 155.087 297.474 155.789 297.162 156.43C296.867 157.054 296.443 157.583 295.888 158.016C295.333 158.432 294.683 158.709 293.938 158.848V158.406C295.169 158.579 296.157 159.091 296.902 159.94C297.665 160.772 298.046 161.829 298.046 163.112C298.046 164.187 297.777 165.114 297.24 165.894C296.72 166.657 295.966 167.237 294.978 167.636C293.99 168.035 292.794 168.234 291.39 168.234ZM291.39 166.102C292.759 166.102 293.791 165.842 294.484 165.322C295.177 164.785 295.524 163.987 295.524 162.93C295.524 161.873 295.177 161.084 294.484 160.564C293.791 160.044 292.759 159.784 291.39 159.784C290.038 159.784 289.007 160.044 288.296 160.564C287.603 161.084 287.256 161.873 287.256 162.93C287.256 163.987 287.603 164.785 288.296 165.322C289.007 165.842 290.038 166.102 291.39 166.102ZM291.39 157.652C292.17 157.652 292.829 157.531 293.366 157.288C293.921 157.028 294.345 156.673 294.64 156.222C294.935 155.754 295.082 155.208 295.082 154.584C295.082 153.648 294.753 152.911 294.094 152.374C293.453 151.837 292.551 151.568 291.39 151.568C290.229 151.568 289.327 151.837 288.686 152.374C288.045 152.911 287.724 153.648 287.724 154.584C287.724 155.537 288.045 156.291 288.686 156.846C289.327 157.383 290.229 157.652 291.39 157.652ZM301 168.832C300.913 169.109 300.774 169.309 300.584 169.43C300.393 169.551 300.185 169.612 299.96 169.612C299.734 169.612 299.526 169.551 299.336 169.43C299.162 169.326 299.041 169.17 298.972 168.962C298.885 168.754 298.885 168.503 298.972 168.208L305.082 149.28C305.168 149.003 305.307 148.803 305.498 148.682C305.688 148.543 305.888 148.483 306.096 148.5C306.321 148.5 306.52 148.561 306.694 148.682C306.884 148.786 307.014 148.942 307.084 149.15C307.17 149.341 307.179 149.583 307.11 149.878L301 168.832ZM314.412 168.234C313.442 168.234 312.454 168.104 311.448 167.844C310.443 167.567 309.568 167.159 308.822 166.622C308.545 166.449 308.354 166.241 308.25 165.998C308.164 165.738 308.146 165.504 308.198 165.296C308.25 165.071 308.354 164.88 308.51 164.724C308.684 164.568 308.892 164.481 309.134 164.464C309.377 164.429 309.646 164.499 309.94 164.672C310.686 165.123 311.414 165.452 312.124 165.66C312.835 165.851 313.572 165.946 314.334 165.946C315.166 165.946 315.868 165.825 316.44 165.582C317.012 165.339 317.437 164.984 317.714 164.516C318.009 164.048 318.156 163.485 318.156 162.826C318.156 161.838 317.827 161.101 317.168 160.616C316.527 160.113 315.591 159.862 314.36 159.862H312.592C312.194 159.862 311.89 159.767 311.682 159.576C311.474 159.368 311.37 159.082 311.37 158.718C311.37 158.371 311.474 158.103 311.682 157.912C311.89 157.704 312.194 157.6 312.592 157.6H314.1C314.846 157.6 315.478 157.479 315.998 157.236C316.518 156.976 316.917 156.621 317.194 156.17C317.489 155.702 317.636 155.139 317.636 154.48C317.636 153.596 317.342 152.92 316.752 152.452C316.18 151.967 315.34 151.724 314.23 151.724C313.52 151.724 312.844 151.819 312.202 152.01C311.578 152.201 310.928 152.539 310.252 153.024C309.992 153.197 309.741 153.275 309.498 153.258C309.273 153.223 309.074 153.137 308.9 152.998C308.744 152.842 308.632 152.651 308.562 152.426C308.51 152.201 308.528 151.967 308.614 151.724C308.701 151.481 308.874 151.273 309.134 151.1C309.862 150.563 310.686 150.155 311.604 149.878C312.523 149.583 313.468 149.436 314.438 149.436C315.652 149.436 316.692 149.627 317.558 150.008C318.442 150.389 319.11 150.935 319.56 151.646C320.028 152.357 320.262 153.206 320.262 154.194C320.262 154.939 320.124 155.615 319.846 156.222C319.569 156.829 319.17 157.349 318.65 157.782C318.148 158.198 317.532 158.493 316.804 158.666V158.38C318.07 158.588 319.049 159.108 319.742 159.94C320.436 160.755 320.782 161.777 320.782 163.008C320.782 164.083 320.522 165.019 320.002 165.816C319.5 166.596 318.772 167.194 317.818 167.61C316.865 168.026 315.73 168.234 314.412 168.234ZM330.288 168.234C328.156 168.234 326.527 167.428 325.4 165.816C324.291 164.187 323.736 161.855 323.736 158.822C323.736 156.759 323.988 155.035 324.49 153.648C324.993 152.261 325.73 151.213 326.7 150.502C327.671 149.791 328.867 149.436 330.288 149.436C332.438 149.436 334.067 150.233 335.176 151.828C336.286 153.405 336.84 155.728 336.84 158.796C336.84 160.824 336.589 162.54 336.086 163.944C335.584 165.348 334.847 166.414 333.876 167.142C332.906 167.87 331.71 168.234 330.288 168.234ZM330.288 165.998C331.623 165.998 332.602 165.417 333.226 164.256C333.868 163.077 334.188 161.257 334.188 158.796C334.188 156.317 333.868 154.515 333.226 153.388C332.602 152.244 331.623 151.672 330.288 151.672C328.971 151.672 327.992 152.244 327.35 153.388C326.709 154.515 326.388 156.317 326.388 158.796C326.388 161.257 326.709 163.077 327.35 164.256C327.992 165.417 328.971 165.998 330.288 165.998ZM339.898 168.832C339.811 169.109 339.673 169.309 339.482 169.43C339.291 169.551 339.083 169.612 338.858 169.612C338.633 169.612 338.425 169.551 338.234 169.43C338.061 169.326 337.939 169.17 337.87 168.962C337.783 168.754 337.783 168.503 337.87 168.208L343.98 149.28C344.067 149.003 344.205 148.803 344.396 148.682C344.587 148.543 344.786 148.483 344.994 148.5C345.219 148.5 345.419 148.561 345.592 148.682C345.783 148.786 345.913 148.942 345.982 149.15C346.069 149.341 346.077 149.583 346.008 149.878L339.898 168.832ZM349.203 168C348.735 168 348.397 167.896 348.189 167.688C347.981 167.463 347.877 167.159 347.877 166.778C347.877 166.535 347.938 166.301 348.059 166.076C348.18 165.851 348.354 165.617 348.579 165.374L354.117 159.446C354.966 158.545 355.573 157.721 355.937 156.976C356.318 156.213 356.509 155.451 356.509 154.688C356.509 153.717 356.214 152.981 355.625 152.478C355.036 151.975 354.169 151.724 353.025 151.724C352.332 151.724 351.664 151.828 351.023 152.036C350.382 152.244 349.74 152.582 349.099 153.05C348.839 153.223 348.596 153.301 348.371 153.284C348.146 153.267 347.946 153.18 347.773 153.024C347.617 152.868 347.513 152.677 347.461 152.452C347.409 152.227 347.418 151.993 347.487 151.75C347.556 151.507 347.721 151.299 347.981 151.126C348.692 150.589 349.515 150.173 350.451 149.878C351.387 149.583 352.34 149.436 353.311 149.436C354.576 149.436 355.642 149.635 356.509 150.034C357.393 150.415 358.06 150.979 358.511 151.724C358.962 152.469 359.187 153.379 359.187 154.454C359.187 155.182 359.066 155.893 358.823 156.586C358.598 157.279 358.242 157.99 357.757 158.718C357.289 159.429 356.674 160.183 355.911 160.98L350.659 166.492V165.738H358.927C359.308 165.738 359.603 165.833 359.811 166.024C360.019 166.215 360.123 166.492 360.123 166.856C360.123 167.22 360.019 167.506 359.811 167.714C359.603 167.905 359.308 168 358.927 168H349.203ZM369.187 168.234C367.055 168.234 365.425 167.428 364.299 165.816C363.189 164.187 362.635 161.855 362.635 158.822C362.635 156.759 362.886 155.035 363.389 153.648C363.891 152.261 364.628 151.213 365.599 150.502C366.569 149.791 367.765 149.436 369.187 149.436C371.336 149.436 372.965 150.233 374.075 151.828C375.184 153.405 375.739 155.728 375.739 158.796C375.739 160.824 375.487 162.54 374.985 163.944C374.482 165.348 373.745 166.414 372.775 167.142C371.804 167.87 370.608 168.234 369.187 168.234ZM369.187 165.998C370.521 165.998 371.501 165.417 372.125 164.256C372.766 163.077 373.087 161.257 373.087 158.796C373.087 156.317 372.766 154.515 372.125 153.388C371.501 152.244 370.521 151.672 369.187 151.672C367.869 151.672 366.89 152.244 366.249 153.388C365.607 154.515 365.287 156.317 365.287 158.796C365.287 161.257 365.607 163.077 366.249 164.256C366.89 165.417 367.869 165.998 369.187 165.998ZM380.383 168C379.915 168 379.577 167.896 379.369 167.688C379.161 167.463 379.057 167.159 379.057 166.778C379.057 166.535 379.117 166.301 379.239 166.076C379.36 165.851 379.533 165.617 379.759 165.374L385.297 159.446C386.146 158.545 386.753 157.721 387.117 156.976C387.498 156.213 387.689 155.451 387.689 154.688C387.689 153.717 387.394 152.981 386.805 152.478C386.215 151.975 385.349 151.724 384.205 151.724C383.511 151.724 382.844 151.828 382.203 152.036C381.561 152.244 380.92 152.582 380.279 153.05C380.019 153.223 379.776 153.301 379.551 153.284C379.325 153.267 379.126 153.18 378.953 153.024C378.797 152.868 378.693 152.677 378.641 152.452C378.589 152.227 378.597 151.993 378.667 151.75C378.736 151.507 378.901 151.299 379.161 151.126C379.871 150.589 380.695 150.173 381.631 149.878C382.567 149.583 383.52 149.436 384.491 149.436C385.756 149.436 386.822 149.635 387.689 150.034C388.573 150.415 389.24 150.979 389.691 151.724C390.141 152.469 390.367 153.379 390.367 154.454C390.367 155.182 390.245 155.893 390.003 156.586C389.777 157.279 389.422 157.99 388.937 158.718C388.469 159.429 387.853 160.183 387.091 160.98L381.839 166.492V165.738H390.107C390.488 165.738 390.783 165.833 390.991 166.024C391.199 166.215 391.303 166.492 391.303 166.856C391.303 167.22 391.199 167.506 390.991 167.714C390.783 167.905 390.488 168 390.107 168H380.383ZM401.016 168.234C399.543 168.234 398.286 167.879 397.246 167.168C396.224 166.457 395.435 165.435 394.88 164.1C394.343 162.748 394.074 161.127 394.074 159.238C394.074 157.661 394.248 156.265 394.594 155.052C394.941 153.839 395.444 152.816 396.102 151.984C396.761 151.152 397.558 150.519 398.494 150.086C399.448 149.653 400.522 149.436 401.718 149.436C402.498 149.436 403.296 149.575 404.11 149.852C404.925 150.112 405.67 150.511 406.346 151.048C406.572 151.204 406.71 151.403 406.762 151.646C406.832 151.871 406.84 152.097 406.788 152.322C406.736 152.53 406.632 152.712 406.476 152.868C406.32 153.024 406.121 153.119 405.878 153.154C405.653 153.171 405.41 153.093 405.15 152.92C404.561 152.487 403.972 152.183 403.382 152.01C402.81 151.819 402.238 151.724 401.666 151.724C400.592 151.724 399.682 151.984 398.936 152.504C398.191 153.024 397.628 153.804 397.246 154.844C396.865 155.884 396.674 157.175 396.674 158.718V160.928H396.388C396.51 159.992 396.796 159.186 397.246 158.51C397.714 157.817 398.312 157.288 399.04 156.924C399.768 156.56 400.574 156.378 401.458 156.378C402.533 156.378 403.478 156.629 404.292 157.132C405.124 157.635 405.774 158.328 406.242 159.212C406.71 160.079 406.944 161.075 406.944 162.202C406.944 163.363 406.693 164.403 406.19 165.322C405.688 166.241 404.986 166.96 404.084 167.48C403.2 167.983 402.178 168.234 401.016 168.234ZM400.86 166.05C401.571 166.05 402.195 165.894 402.732 165.582C403.27 165.27 403.686 164.837 403.98 164.282C404.275 163.71 404.422 163.051 404.422 162.306C404.422 161.561 404.275 160.911 403.98 160.356C403.686 159.801 403.27 159.368 402.732 159.056C402.195 158.727 401.571 158.562 400.86 158.562C400.15 158.562 399.526 158.727 398.988 159.056C398.468 159.368 398.052 159.801 397.74 160.356C397.446 160.911 397.298 161.561 397.298 162.306C397.298 163.051 397.446 163.71 397.74 164.282C398.052 164.837 398.468 165.27 398.988 165.582C399.526 165.894 400.15 166.05 400.86 166.05Z" fill="#D9D9D9"/>
<path d="M29.542 211.234C28.3113 211.234 27.228 211.078 26.292 210.766C25.356 210.437 24.5673 209.951 23.926 209.31C23.302 208.669 22.8253 207.871 22.496 206.918C22.1667 205.965 22.002 204.864 22.002 203.616V193.84C22.002 193.389 22.1147 193.051 22.34 192.826C22.5827 192.601 22.9207 192.488 23.354 192.488C23.7873 192.488 24.1167 192.601 24.342 192.826C24.5847 193.051 24.706 193.389 24.706 193.84V203.564C24.706 205.349 25.1133 206.684 25.928 207.568C26.76 208.452 27.9647 208.894 29.542 208.894C31.1367 208.894 32.3413 208.452 33.156 207.568C33.9707 206.684 34.378 205.349 34.378 203.564V193.84C34.378 193.389 34.4907 193.051 34.716 192.826C34.9587 192.601 35.288 192.488 35.704 192.488C36.1373 192.488 36.4667 192.601 36.692 192.826C36.9173 193.051 37.03 193.389 37.03 193.84V203.616C37.03 205.28 36.744 206.684 36.172 207.828C35.6173 208.955 34.7853 209.804 33.676 210.376C32.5667 210.948 31.1887 211.234 29.542 211.234ZM42.5524 211.182C42.119 211.182 41.781 211.061 41.5384 210.818C41.313 210.575 41.2004 210.237 41.2004 209.804V193.84C41.2004 193.389 41.313 193.051 41.5384 192.826C41.781 192.601 42.119 192.488 42.5524 192.488C42.9857 192.488 43.315 192.601 43.5404 192.826C43.783 193.051 43.9044 193.389 43.9044 193.84V200.912H43.9564L51.9384 193.19C52.1984 192.947 52.441 192.774 52.6664 192.67C52.909 192.549 53.1777 192.488 53.4724 192.488C53.871 192.488 54.157 192.592 54.3304 192.8C54.521 192.991 54.599 193.225 54.5644 193.502C54.5297 193.779 54.3824 194.048 54.1224 194.308L45.8284 202.212L45.8804 200.886L54.5124 209.206C54.8244 209.501 54.989 209.804 55.0064 210.116C55.0237 210.428 54.9284 210.688 54.7204 210.896C54.5124 211.087 54.2177 211.182 53.8364 211.182C53.4897 211.182 53.2124 211.113 53.0044 210.974C52.7964 210.835 52.5537 210.636 52.2764 210.376L43.9564 202.446H43.9044V209.804C43.9044 210.237 43.7917 210.575 43.5664 210.818C43.341 211.061 43.003 211.182 42.5524 211.182ZM58.5348 211.832C58.4482 212.109 58.3095 212.309 58.1188 212.43C57.9282 212.551 57.7202 212.612 57.4948 212.612C57.2695 212.612 57.0615 212.551 56.8708 212.43C56.6975 212.326 56.5762 212.17 56.5068 211.962C56.4202 211.754 56.4202 211.503 56.5068 211.208L62.6168 192.28C62.7035 192.003 62.8422 191.803 63.0328 191.682C63.2235 191.543 63.4228 191.483 63.6308 191.5C63.8562 191.5 64.0555 191.561 64.2288 191.682C64.4195 191.786 64.5495 191.942 64.6188 192.15C64.7055 192.341 64.7142 192.583 64.6448 192.878L58.5348 211.832ZM74.5277 211.234C72.673 211.234 71.087 210.853 69.7697 210.09C68.4524 209.327 67.4384 208.244 66.7277 206.84C66.0344 205.419 65.6877 203.746 65.6877 201.822C65.6877 200.383 65.887 199.092 66.2857 197.948C66.6844 196.787 67.2564 195.799 68.0017 194.984C68.7644 194.152 69.6917 193.519 70.7837 193.086C71.893 192.653 73.141 192.436 74.5277 192.436C75.5504 192.436 76.5297 192.575 77.4657 192.852C78.419 193.129 79.2424 193.528 79.9357 194.048C80.2304 194.239 80.421 194.473 80.5077 194.75C80.6117 195.01 80.629 195.261 80.5597 195.504C80.5077 195.747 80.395 195.955 80.2217 196.128C80.0484 196.284 79.823 196.371 79.5457 196.388C79.2857 196.405 78.9997 196.31 78.6877 196.102C78.1157 195.669 77.483 195.348 76.7897 195.14C76.0964 194.932 75.3684 194.828 74.6057 194.828C73.2884 194.828 72.179 195.105 71.2777 195.66C70.3764 196.197 69.6917 196.986 69.2237 198.026C68.7557 199.066 68.5217 200.331 68.5217 201.822C68.5217 203.313 68.7557 204.587 69.2237 205.644C69.6917 206.684 70.3764 207.481 71.2777 208.036C72.179 208.573 73.2884 208.842 74.6057 208.842C75.3684 208.842 76.0964 208.738 76.7897 208.53C77.5004 208.305 78.1677 207.975 78.7917 207.542C79.1037 207.351 79.381 207.265 79.6237 207.282C79.8837 207.299 80.1004 207.386 80.2737 207.542C80.447 207.698 80.5597 207.897 80.6117 208.14C80.681 208.365 80.6724 208.608 80.5857 208.868C80.5164 209.111 80.3517 209.319 80.0917 209.492C79.381 210.064 78.5404 210.497 77.5697 210.792C76.599 211.087 75.585 211.234 74.5277 211.234ZM83.3718 211.182C83.0251 211.182 82.7478 211.104 82.5398 210.948C82.3318 210.792 82.2104 210.584 82.1758 210.324C82.1411 210.064 82.1931 209.769 82.3318 209.44L89.3778 193.632C89.5511 193.216 89.7678 192.921 90.0278 192.748C90.3051 192.575 90.6084 192.488 90.9378 192.488C91.2498 192.488 91.5358 192.575 91.7958 192.748C92.0731 192.921 92.2984 193.216 92.4718 193.632L99.5178 209.44C99.6738 209.769 99.7344 210.073 99.6998 210.35C99.6651 210.61 99.5524 210.818 99.3618 210.974C99.1711 211.113 98.9024 211.182 98.5558 211.182C98.1744 211.182 97.8711 211.087 97.6458 210.896C97.4204 210.705 97.2211 210.411 97.0478 210.012L95.2278 205.8L96.4498 206.528H85.3738L86.5698 205.8L84.7757 210.012C84.6024 210.428 84.4118 210.731 84.2038 210.922C83.9958 211.095 83.7184 211.182 83.3718 211.182ZM90.8858 195.66L86.9598 204.968L86.3098 204.344H95.4878L94.8898 204.968L90.9378 195.66H90.8858ZM103.095 211.832C103.009 212.109 102.87 212.309 102.679 212.43C102.489 212.551 102.281 212.612 102.055 212.612C101.83 212.612 101.622 212.551 101.431 212.43C101.258 212.326 101.137 212.17 101.067 211.962C100.981 211.754 100.981 211.503 101.067 211.208L107.177 192.28C107.264 192.003 107.403 191.803 107.593 191.682C107.784 191.543 107.983 191.483 108.191 191.5C108.417 191.5 108.616 191.561 108.789 191.682C108.98 191.786 109.11 191.942 109.179 192.15C109.266 192.341 109.275 192.583 109.205 192.878L103.095 211.832ZM110.514 211.182C110.168 211.182 109.89 211.104 109.682 210.948C109.474 210.792 109.353 210.584 109.318 210.324C109.284 210.064 109.336 209.769 109.474 209.44L116.52 193.632C116.694 193.216 116.91 192.921 117.17 192.748C117.448 192.575 117.751 192.488 118.08 192.488C118.392 192.488 118.678 192.575 118.938 192.748C119.216 192.921 119.441 193.216 119.614 193.632L126.66 209.44C126.816 209.769 126.877 210.073 126.842 210.35C126.808 210.61 126.695 210.818 126.504 210.974C126.314 211.113 126.045 211.182 125.698 211.182C125.317 211.182 125.014 211.087 124.788 210.896C124.563 210.705 124.364 210.411 124.19 210.012L122.37 205.8L123.592 206.528H112.516L113.712 205.8L111.918 210.012C111.745 210.428 111.554 210.731 111.346 210.922C111.138 211.095 110.861 211.182 110.514 211.182ZM118.028 195.66L114.102 204.968L113.452 204.344H122.63L122.032 204.968L118.08 195.66H118.028ZM137.046 211.234C135.815 211.234 134.732 211.078 133.796 210.766C132.86 210.437 132.071 209.951 131.43 209.31C130.806 208.669 130.329 207.871 130 206.918C129.671 205.965 129.506 204.864 129.506 203.616V193.84C129.506 193.389 129.619 193.051 129.844 192.826C130.087 192.601 130.425 192.488 130.858 192.488C131.291 192.488 131.621 192.601 131.846 192.826C132.089 193.051 132.21 193.389 132.21 193.84V203.564C132.21 205.349 132.617 206.684 133.432 207.568C134.264 208.452 135.469 208.894 137.046 208.894C138.641 208.894 139.845 208.452 140.66 207.568C141.475 206.684 141.882 205.349 141.882 203.564V193.84C141.882 193.389 141.995 193.051 142.22 192.826C142.463 192.601 142.792 192.488 143.208 192.488C143.641 192.488 143.971 192.601 144.196 192.826C144.421 193.051 144.534 193.389 144.534 193.84V203.616C144.534 205.28 144.248 206.684 143.676 207.828C143.121 208.955 142.289 209.804 141.18 210.376C140.071 210.948 138.693 211.234 137.046 211.234Z" fill="#D9D9D9"/>
<path d="M275.514 211.234C274.543 211.234 273.555 211.104 272.55 210.844C271.545 210.567 270.669 210.159 269.924 209.622C269.647 209.449 269.456 209.241 269.352 208.998C269.265 208.738 269.248 208.504 269.3 208.296C269.352 208.071 269.456 207.88 269.612 207.724C269.785 207.568 269.993 207.481 270.236 207.464C270.479 207.429 270.747 207.499 271.042 207.672C271.787 208.123 272.515 208.452 273.226 208.66C273.937 208.851 274.673 208.946 275.436 208.946C276.268 208.946 276.97 208.825 277.542 208.582C278.114 208.339 278.539 207.984 278.816 207.516C279.111 207.048 279.258 206.485 279.258 205.826C279.258 204.838 278.929 204.101 278.27 203.616C277.629 203.113 276.693 202.862 275.462 202.862H273.694C273.295 202.862 272.992 202.767 272.784 202.576C272.576 202.368 272.472 202.082 272.472 201.718C272.472 201.371 272.576 201.103 272.784 200.912C272.992 200.704 273.295 200.6 273.694 200.6H275.202C275.947 200.6 276.58 200.479 277.1 200.236C277.62 199.976 278.019 199.621 278.296 199.17C278.591 198.702 278.738 198.139 278.738 197.48C278.738 196.596 278.443 195.92 277.854 195.452C277.282 194.967 276.441 194.724 275.332 194.724C274.621 194.724 273.945 194.819 273.304 195.01C272.68 195.201 272.03 195.539 271.354 196.024C271.094 196.197 270.843 196.275 270.6 196.258C270.375 196.223 270.175 196.137 270.002 195.998C269.846 195.842 269.733 195.651 269.664 195.426C269.612 195.201 269.629 194.967 269.716 194.724C269.803 194.481 269.976 194.273 270.236 194.1C270.964 193.563 271.787 193.155 272.706 192.878C273.625 192.583 274.569 192.436 275.54 192.436C276.753 192.436 277.793 192.627 278.66 193.008C279.544 193.389 280.211 193.935 280.662 194.646C281.13 195.357 281.364 196.206 281.364 197.194C281.364 197.939 281.225 198.615 280.948 199.222C280.671 199.829 280.272 200.349 279.752 200.782C279.249 201.198 278.634 201.493 277.906 201.666V201.38C279.171 201.588 280.151 202.108 280.844 202.94C281.537 203.755 281.884 204.777 281.884 206.008C281.884 207.083 281.624 208.019 281.104 208.816C280.601 209.596 279.873 210.194 278.92 210.61C277.967 211.026 276.831 211.234 275.514 211.234ZM291.39 211.234C289.258 211.234 287.629 210.428 286.502 208.816C285.393 207.187 284.838 204.855 284.838 201.822C284.838 199.759 285.089 198.035 285.592 196.648C286.095 195.261 286.831 194.213 287.802 193.502C288.773 192.791 289.969 192.436 291.39 192.436C293.539 192.436 295.169 193.233 296.278 194.828C297.387 196.405 297.942 198.728 297.942 201.796C297.942 203.824 297.691 205.54 297.188 206.944C296.685 208.348 295.949 209.414 294.978 210.142C294.007 210.87 292.811 211.234 291.39 211.234ZM291.39 208.998C292.725 208.998 293.704 208.417 294.328 207.256C294.969 206.077 295.29 204.257 295.29 201.796C295.29 199.317 294.969 197.515 294.328 196.388C293.704 195.244 292.725 194.672 291.39 194.672C290.073 194.672 289.093 195.244 288.452 196.388C287.811 197.515 287.49 199.317 287.49 201.796C287.49 204.257 287.811 206.077 288.452 207.256C289.093 208.417 290.073 208.998 291.39 208.998ZM301 211.832C300.913 212.109 300.774 212.309 300.584 212.43C300.393 212.551 300.185 212.612 299.96 212.612C299.734 212.612 299.526 212.551 299.336 212.43C299.162 212.326 299.041 212.17 298.972 211.962C298.885 211.754 298.885 211.503 298.972 211.208L305.082 192.28C305.168 192.003 305.307 191.803 305.498 191.682C305.688 191.543 305.888 191.483 306.096 191.5C306.321 191.5 306.52 191.561 306.694 191.682C306.884 191.786 307.014 191.942 307.084 192.15C307.17 192.341 307.179 192.583 307.11 192.878L301 211.832ZM314.698 211.234C312.566 211.234 310.937 210.428 309.81 208.816C308.701 207.187 308.146 204.855 308.146 201.822C308.146 199.759 308.398 198.035 308.9 196.648C309.403 195.261 310.14 194.213 311.11 193.502C312.081 192.791 313.277 192.436 314.698 192.436C316.848 192.436 318.477 193.233 319.586 194.828C320.696 196.405 321.25 198.728 321.25 201.796C321.25 203.824 320.999 205.54 320.496 206.944C319.994 208.348 319.257 209.414 318.286 210.142C317.316 210.87 316.12 211.234 314.698 211.234ZM314.698 208.998C316.033 208.998 317.012 208.417 317.636 207.256C318.278 206.077 318.598 204.257 318.598 201.796C318.598 199.317 318.278 197.515 317.636 196.388C317.012 195.244 316.033 194.672 314.698 194.672C313.381 194.672 312.402 195.244 311.76 196.388C311.119 197.515 310.798 199.317 310.798 201.796C310.798 204.257 311.119 206.077 311.76 207.256C312.402 208.417 313.381 208.998 314.698 208.998ZM330.288 211.234C328.902 211.234 327.706 211.035 326.7 210.636C325.712 210.237 324.95 209.657 324.412 208.894C323.892 208.114 323.632 207.187 323.632 206.112C323.632 205.245 323.806 204.483 324.152 203.824C324.499 203.148 324.984 202.602 325.608 202.186C326.232 201.77 326.952 201.51 327.766 201.406V201.874C326.64 201.631 325.738 201.103 325.062 200.288C324.404 199.456 324.074 198.468 324.074 197.324C324.074 196.301 324.326 195.426 324.828 194.698C325.348 193.953 326.076 193.389 327.012 193.008C327.948 192.627 329.04 192.436 330.288 192.436C331.554 192.436 332.654 192.627 333.59 193.008C334.526 193.389 335.246 193.953 335.748 194.698C336.268 195.426 336.528 196.301 336.528 197.324C336.528 198.087 336.372 198.789 336.06 199.43C335.766 200.054 335.341 200.583 334.786 201.016C334.232 201.432 333.582 201.709 332.836 201.848V201.406C334.067 201.579 335.055 202.091 335.8 202.94C336.563 203.772 336.944 204.829 336.944 206.112C336.944 207.187 336.676 208.114 336.138 208.894C335.618 209.657 334.864 210.237 333.876 210.636C332.888 211.035 331.692 211.234 330.288 211.234ZM330.288 209.102C331.658 209.102 332.689 208.842 333.382 208.322C334.076 207.785 334.422 206.987 334.422 205.93C334.422 204.873 334.076 204.084 333.382 203.564C332.689 203.044 331.658 202.784 330.288 202.784C328.936 202.784 327.905 203.044 327.194 203.564C326.501 204.084 326.154 204.873 326.154 205.93C326.154 206.987 326.501 207.785 327.194 208.322C327.905 208.842 328.936 209.102 330.288 209.102ZM330.288 200.652C331.068 200.652 331.727 200.531 332.264 200.288C332.819 200.028 333.244 199.673 333.538 199.222C333.833 198.754 333.98 198.208 333.98 197.584C333.98 196.648 333.651 195.911 332.992 195.374C332.351 194.837 331.45 194.568 330.288 194.568C329.127 194.568 328.226 194.837 327.584 195.374C326.943 195.911 326.622 196.648 326.622 197.584C326.622 198.537 326.943 199.291 327.584 199.846C328.226 200.383 329.127 200.652 330.288 200.652ZM339.898 211.832C339.811 212.109 339.673 212.309 339.482 212.43C339.291 212.551 339.083 212.612 338.858 212.612C338.633 212.612 338.425 212.551 338.234 212.43C338.061 212.326 337.939 212.17 337.87 211.962C337.783 211.754 337.783 211.503 337.87 211.208L343.98 192.28C344.067 192.003 344.205 191.803 344.396 191.682C344.587 191.543 344.786 191.483 344.994 191.5C345.219 191.5 345.419 191.561 345.592 191.682C345.783 191.786 345.913 191.942 345.982 192.15C346.069 192.341 346.077 192.583 346.008 192.878L339.898 211.832ZM349.203 211C348.735 211 348.397 210.896 348.189 210.688C347.981 210.463 347.877 210.159 347.877 209.778C347.877 209.535 347.938 209.301 348.059 209.076C348.18 208.851 348.354 208.617 348.579 208.374L354.117 202.446C354.966 201.545 355.573 200.721 355.937 199.976C356.318 199.213 356.509 198.451 356.509 197.688C356.509 196.717 356.214 195.981 355.625 195.478C355.036 194.975 354.169 194.724 353.025 194.724C352.332 194.724 351.664 194.828 351.023 195.036C350.382 195.244 349.74 195.582 349.099 196.05C348.839 196.223 348.596 196.301 348.371 196.284C348.146 196.267 347.946 196.18 347.773 196.024C347.617 195.868 347.513 195.677 347.461 195.452C347.409 195.227 347.418 194.993 347.487 194.75C347.556 194.507 347.721 194.299 347.981 194.126C348.692 193.589 349.515 193.173 350.451 192.878C351.387 192.583 352.34 192.436 353.311 192.436C354.576 192.436 355.642 192.635 356.509 193.034C357.393 193.415 358.06 193.979 358.511 194.724C358.962 195.469 359.187 196.379 359.187 197.454C359.187 198.182 359.066 198.893 358.823 199.586C358.598 200.279 358.242 200.99 357.757 201.718C357.289 202.429 356.674 203.183 355.911 203.98L350.659 209.492V208.738H358.927C359.308 208.738 359.603 208.833 359.811 209.024C360.019 209.215 360.123 209.492 360.123 209.856C360.123 210.22 360.019 210.506 359.811 210.714C359.603 210.905 359.308 211 358.927 211H349.203ZM369.187 211.234C367.055 211.234 365.425 210.428 364.299 208.816C363.189 207.187 362.635 204.855 362.635 201.822C362.635 199.759 362.886 198.035 363.389 196.648C363.891 195.261 364.628 194.213 365.599 193.502C366.569 192.791 367.765 192.436 369.187 192.436C371.336 192.436 372.965 193.233 374.075 194.828C375.184 196.405 375.739 198.728 375.739 201.796C375.739 203.824 375.487 205.54 374.985 206.944C374.482 208.348 373.745 209.414 372.775 210.142C371.804 210.87 370.608 211.234 369.187 211.234ZM369.187 208.998C370.521 208.998 371.501 208.417 372.125 207.256C372.766 206.077 373.087 204.257 373.087 201.796C373.087 199.317 372.766 197.515 372.125 196.388C371.501 195.244 370.521 194.672 369.187 194.672C367.869 194.672 366.89 195.244 366.249 196.388C365.607 197.515 365.287 199.317 365.287 201.796C365.287 204.257 365.607 206.077 366.249 207.256C366.89 208.417 367.869 208.998 369.187 208.998ZM380.383 211C379.915 211 379.577 210.896 379.369 210.688C379.161 210.463 379.057 210.159 379.057 209.778C379.057 209.535 379.117 209.301 379.239 209.076C379.36 208.851 379.533 208.617 379.759 208.374L385.297 202.446C386.146 201.545 386.753 200.721 387.117 199.976C387.498 199.213 387.689 198.451 387.689 197.688C387.689 196.717 387.394 195.981 386.805 195.478C386.215 194.975 385.349 194.724 384.205 194.724C383.511 194.724 382.844 194.828 382.203 195.036C381.561 195.244 380.92 195.582 380.279 196.05C380.019 196.223 379.776 196.301 379.551 196.284C379.325 196.267 379.126 196.18 378.953 196.024C378.797 195.868 378.693 195.677 378.641 195.452C378.589 195.227 378.597 194.993 378.667 194.75C378.736 194.507 378.901 194.299 379.161 194.126C379.871 193.589 380.695 193.173 381.631 192.878C382.567 192.583 383.52 192.436 384.491 192.436C385.756 192.436 386.822 192.635 387.689 193.034C388.573 193.415 389.24 193.979 389.691 194.724C390.141 195.469 390.367 196.379 390.367 197.454C390.367 198.182 390.245 198.893 390.003 199.586C389.777 200.279 389.422 200.99 388.937 201.718C388.469 202.429 387.853 203.183 387.091 203.98L381.839 209.492V208.738H390.107C390.488 208.738 390.783 208.833 390.991 209.024C391.199 209.215 391.303 209.492 391.303 209.856C391.303 210.22 391.199 210.506 390.991 210.714C390.783 210.905 390.488 211 390.107 211H380.383ZM401.016 211.234C399.543 211.234 398.286 210.879 397.246 210.168C396.224 209.457 395.435 208.435 394.88 207.1C394.343 205.748 394.074 204.127 394.074 202.238C394.074 200.661 394.248 199.265 394.594 198.052C394.941 196.839 395.444 195.816 396.102 194.984C396.761 194.152 397.558 193.519 398.494 193.086C399.448 192.653 400.522 192.436 401.718 192.436C402.498 192.436 403.296 192.575 404.11 192.852C404.925 193.112 405.67 193.511 406.346 194.048C406.572 194.204 406.71 194.403 406.762 194.646C406.832 194.871 406.84 195.097 406.788 195.322C406.736 195.53 406.632 195.712 406.476 195.868C406.32 196.024 406.121 196.119 405.878 196.154C405.653 196.171 405.41 196.093 405.15 195.92C404.561 195.487 403.972 195.183 403.382 195.01C402.81 194.819 402.238 194.724 401.666 194.724C400.592 194.724 399.682 194.984 398.936 195.504C398.191 196.024 397.628 196.804 397.246 197.844C396.865 198.884 396.674 200.175 396.674 201.718V203.928H396.388C396.51 202.992 396.796 202.186 397.246 201.51C397.714 200.817 398.312 200.288 399.04 199.924C399.768 199.56 400.574 199.378 401.458 199.378C402.533 199.378 403.478 199.629 404.292 200.132C405.124 200.635 405.774 201.328 406.242 202.212C406.71 203.079 406.944 204.075 406.944 205.202C406.944 206.363 406.693 207.403 406.19 208.322C405.688 209.241 404.986 209.96 404.084 210.48C403.2 210.983 402.178 211.234 401.016 211.234ZM400.86 209.05C401.571 209.05 402.195 208.894 402.732 208.582C403.27 208.27 403.686 207.837 403.98 207.282C404.275 206.71 404.422 206.051 404.422 205.306C404.422 204.561 404.275 203.911 403.98 203.356C403.686 202.801 403.27 202.368 402.732 202.056C402.195 201.727 401.571 201.562 400.86 201.562C400.15 201.562 399.526 201.727 398.988 202.056C398.468 202.368 398.052 202.801 397.74 203.356C397.446 203.911 397.298 204.561 397.298 205.306C397.298 206.051 397.446 206.71 397.74 207.282C398.052 207.837 398.468 208.27 398.988 208.582C399.526 208.894 400.15 209.05 400.86 209.05Z" fill="#D9D9D9"/>
</svg>
