<?xml version="1.0" encoding="UTF-8"?>
<svg width="303px" height="100px" viewBox="0 0 303 100" version="1.1" xmlns="http://www.w3.org/2000/svg" xmlns:xlink="http://www.w3.org/1999/xlink">
    <!-- Generator: Sketch 52.6 (67491) - http://www.bohemiancoding.com/sketch -->
    <title>Horizontal Logo_Full Color</title>
    <desc>Created with Sketch.</desc>
    <defs>
        <polygon id="path-1" points="0 99.2857143 302.38831 99.2857143 302.38831 0.376428571 0 0.376428571"></polygon>
        <path d="M2.25329577,0.0842857143 C1.72411268,0.0842857143 1.24329577,0.31 0.913978873,0.675 C0.618091549,0.987857143 0.433161972,1.40785714 0.421070423,1.86642857 L0.421070423,1.99 C0.426760563,2.20642857 0.470147887,2.41071429 0.546964789,2.59928571 C0.549809859,2.615 0.556211268,2.63 0.561901408,2.64571429 C0.62093662,2.78785714 0.697753521,2.92071429 0.790929577,3.04142857 C0.824359155,3.08785714 0.86134507,3.13071429 0.901176056,3.17142857 C0.907577465,3.18071429 0.916823944,3.19 0.926070423,3.2 L6.7691338,10.1657143 L8.87875352,12.68 L15.1940986,20.2057143 L17.3008732,22.7178571 L22.9554507,29.4585714 L25.0622254,31.97 L25.0622254,49.5771429 C26.3040986,49.5771429 27.4314577,49.0821429 28.2600845,48.2814286 C28.2629296,48.2814286 28.2629296,48.2814286 28.2629296,48.2785714 L28.8852887,47.5357143 L44.0495141,29.4585714 L49.2424789,23.2692857 C49.2673732,23.2407143 49.2915563,23.2135714 49.3136056,23.1821429 C49.4238521,23.0428571 49.5134718,22.8878571 49.5781972,22.7178571 C49.6614155,22.5107143 49.7048028,22.2878571 49.7048028,22.05 L49.7048028,1.92857143 C49.7048028,1.44214286 49.5163169,0.997142857 49.208338,0.672142857 C48.8761761,0.31 48.3989155,0.0842857143 47.8683099,0.0842857143 L2.25329577,0.0842857143 Z" id="path-3"></path>
        <path d="M2.25329577,0.0842857143 C1.72411268,0.0842857143 1.24329577,0.31 0.913978873,0.675 C0.618091549,0.987857143 0.433161972,1.40785714 0.421070423,1.86642857 L0.421070423,1.99 C0.426760563,2.20642857 0.470147887,2.41071429 0.546964789,2.59928571 C0.549809859,2.615 0.556211268,2.63 0.561901408,2.64571429 C0.62093662,2.78785714 0.697753521,2.92071429 0.790929577,3.04142857 C0.824359155,3.08785714 0.86134507,3.13071429 0.901176056,3.17142857 C0.907577465,3.18071429 0.916823944,3.19 0.926070423,3.2 L6.7691338,10.1657143 L8.87875352,12.68 L15.1940986,20.2057143 L17.3008732,22.7178571 L22.9554507,29.4585714 L25.0622254,31.97 L25.0622254,49.5771429 C26.3040986,49.5771429 27.4314577,49.0821429 28.2600845,48.2814286 C28.2629296,48.2814286 28.2629296,48.2814286 28.2629296,48.2785714 L28.8852887,47.5357143 L44.0495141,29.4585714 L49.2424789,23.2692857 C49.2673732,23.2407143 49.2915563,23.2135714 49.3136056,23.1821429 C49.4238521,23.0428571 49.5134718,22.8878571 49.5781972,22.7178571 C49.6614155,22.5107143 49.7048028,22.2878571 49.7048028,22.05 L49.7048028,1.92857143 C49.7048028,1.44214286 49.5163169,0.997142857 49.208338,0.672142857 C48.8761761,0.31 48.3989155,0.0842857143 47.8683099,0.0842857143 L2.25329577,0.0842857143 Z" id="path-5"></path>
        <linearGradient x1="87.919973%" y1="-9.88950209%" x2="13.2221225%" y2="64.8083484%" id="linearGradient-7">
            <stop stop-color="#FF6660" offset="0%"></stop>
            <stop stop-color="#FB4444" offset="100%"></stop>
        </linearGradient>
    </defs>
    <g id="Horizontal-Logo_Full-Color" stroke="none" stroke-width="1" fill="none" fill-rule="evenodd">
        <g>
            <g id="Group-16" transform="translate(0.000000, 0.337857)">
                <path d="M110.966495,49.7268571 C112.368404,49.7268571 113.531326,49.239 114.455974,48.2625714 C115.379911,47.2868571 115.841523,46.0782857 115.841523,44.6382857 C115.841523,43.1668571 115.379911,41.9504286 114.455974,40.9904286 C113.531326,40.0304286 112.368404,39.5504286 110.966495,39.5504286 L105.087157,39.5504286 L105.087157,49.7268571 L110.966495,49.7268571 Z M110.966495,33.3582857 C114.184981,33.3582857 116.893488,34.4468571 119.092016,36.6225714 C121.290544,38.799 122.390164,41.4704286 122.390164,44.6382857 C122.390164,47.8068571 121.290544,50.479 119.092016,52.6547143 C116.893488,54.8311429 114.184981,55.9182857 110.966495,55.9182857 L105.087157,55.9182857 L105.087157,66.3032857 L98.4915725,66.3032857 L98.4915725,33.3582857 L110.966495,33.3582857 Z" id="Fill-1" fill="#252830"></path>
                <path d="M132.666061,46.2029286 C133.239342,44.6672143 134.187462,43.5143571 135.51042,42.7465 C136.831244,41.9786429 138.305701,41.5950714 139.930948,41.5950714 L139.930948,48.7350714 C138.050356,48.5115 136.370342,48.8965 134.888772,49.8872143 C133.407201,50.8793571 132.666061,52.5272143 132.666061,54.8315 L132.666061,66.3036429 L126.500082,66.3036429 L126.500082,41.5950714 L132.666061,41.5950714 L132.666061,46.2029286 Z" id="Fill-3" fill="#252830"></path>
                <path d="M149.776812,58.5822143 C150.969608,59.7986429 152.466115,60.4072143 154.264911,60.4072143 C156.062995,60.4072143 157.567326,59.7986429 158.776481,58.5822143 C159.985636,57.3650714 160.590213,55.8207857 160.590213,53.9493571 C160.590213,52.0779286 159.985636,50.5329286 158.776481,49.3157857 C157.567326,48.0993571 156.062995,47.4915 154.264911,47.4915 C152.466115,47.4915 150.969608,48.0993571 149.776812,49.3157857 C148.582594,50.5329286 147.98584,52.0779286 147.98584,53.9493571 C147.98584,55.8207857 148.582594,57.3650714 149.776812,58.5822143 M163.009235,62.7236429 C160.620798,65.1100714 157.706735,66.3036429 154.264911,66.3036429 C150.823087,66.3036429 147.916136,65.1100714 145.544058,62.7236429 C143.171981,60.3365 141.986298,57.4122143 141.986298,53.9493571 C141.986298,50.4857857 143.171981,47.5607857 145.544058,45.1743571 C147.916136,42.7886429 150.823087,41.5950714 154.264911,41.5950714 C157.706735,41.5950714 160.620798,42.7886429 163.009235,45.1743571 C165.396249,47.5607857 166.589756,50.4857857 166.589756,53.9493571 C166.589756,57.4122143 165.396249,60.3365 163.009235,62.7236429" id="Fill-5" fill="#252830"></path>
                <path d="M184.424364,47.5470714 L179.023709,47.5470714 L179.023709,58.0427857 C179.023709,58.8749286 179.230688,59.4827857 179.644646,59.8670714 C180.058604,60.2506429 180.664604,60.4670714 181.461223,60.5149286 C182.257132,60.5635 183.245082,60.5556429 184.424364,60.4906429 L184.424364,66.1063571 C180.186632,66.5870714 177.198596,66.1863571 175.462392,64.9070714 C173.725477,63.6277857 172.85773,61.3392143 172.85773,58.0427857 L172.85773,47.5470714 L168.69966,47.5470714 L168.69966,41.5949286 L172.85773,41.5949286 L172.85773,37.4763571 L179.023709,35.5835 L179.023709,41.5949286 L184.424364,41.5949286 L184.424364,47.5470714 Z" id="Fill-7" fill="#252830"></path>
                <path d="M194.270228,58.5822143 C195.463024,59.7986429 196.959531,60.4072143 198.758327,60.4072143 C200.556411,60.4072143 202.060742,59.7986429 203.269897,58.5822143 C204.479052,57.3650714 205.08363,55.8207857 205.08363,53.9493571 C205.08363,52.0779286 204.479052,50.5329286 203.269897,49.3157857 C202.060742,48.0993571 200.556411,47.4915 198.758327,47.4915 C196.959531,47.4915 195.463024,48.0993571 194.270228,49.3157857 C193.07601,50.5329286 192.479256,52.0779286 192.479256,53.9493571 C192.479256,55.8207857 193.07601,57.3650714 194.270228,58.5822143 M207.502651,62.7236429 C205.114214,65.1100714 202.200151,66.3036429 198.758327,66.3036429 C195.316503,66.3036429 192.409552,65.1100714 190.037475,62.7236429 C187.665397,60.3365 186.479714,57.4122143 186.479714,53.9493571 C186.479714,50.4857857 187.665397,47.5607857 190.037475,45.1743571 C192.409552,42.7886429 195.316503,41.5950714 198.758327,41.5950714 C202.200151,41.5950714 205.114214,42.7886429 207.502651,45.1743571 C209.889665,47.5607857 211.083172,50.4857857 211.083172,53.9493571 C211.083172,57.4122143 209.889665,60.3365 207.502651,62.7236429" id="Fill-9" fill="#252830"></path>
                <path d="M227.668225,49.7268571 C229.070845,49.7268571 230.233056,49.239 231.157704,48.2625714 C232.082352,47.2868571 232.543965,46.0782857 232.543965,44.6382857 C232.543965,43.1668571 232.082352,41.9504286 231.157704,40.9904286 C230.233056,40.0304286 229.070845,39.5504286 227.668225,39.5504286 L221.789599,39.5504286 L221.789599,49.7268571 L227.668225,49.7268571 Z M227.668225,33.3582857 C230.886711,33.3582857 233.595218,34.4468571 235.793746,36.6225714 C237.992275,38.799 239.091894,41.4704286 239.091894,44.6382857 C239.091894,47.8068571 237.992275,50.479 235.793746,52.6547143 C233.595218,54.8311429 230.886711,55.9182857 227.668225,55.9182857 L221.789599,55.9182857 L221.789599,66.3032857 L215.193303,66.3032857 L215.193303,33.3582857 L227.668225,33.3582857 Z" id="Fill-11" fill="#252830"></path>
                <mask id="mask-2" fill="white">
                    <use xlink:href="#path-1"></use>
                </mask>
                <g id="Clip-14"></g>
                <path d="M243.204444,66.3035714 L249.370423,66.3035714 L249.370423,45.7135714 L243.204444,45.7135714 L243.204444,66.3035714 Z M246.230176,41.595 C245.129134,41.595 244.175324,41.1892857 243.367324,40.3771429 C242.560035,39.5664286 242.156035,38.6085714 242.156035,37.5021429 C242.156035,36.3978571 242.560035,35.4307143 243.367324,34.6014286 C244.175324,33.7728571 245.129134,33.3585714 246.230176,33.3585714 C247.364648,33.3585714 248.336951,33.7728571 249.144239,34.6014286 C249.952951,35.4307143 250.356951,36.3978571 250.356951,37.5021429 C250.356951,38.6085714 249.952951,39.5664286 249.144239,40.3771429 C248.336951,41.1892857 247.364648,41.595 246.230176,41.595 Z" id="Fill-13" fill="#252830" mask="url(#mask-2)"></path>
                <path d="M259.814889,51.7497857 L271.950537,51.7497857 C271.600594,50.1583571 270.88008,48.9733571 269.785439,48.1933571 C268.690087,47.4140714 267.444657,47.0233571 266.04915,47.0233571 C264.399009,47.0233571 263.034798,47.4376429 261.956516,48.2633571 C260.877523,49.0897857 260.163411,50.2519286 259.814889,51.7497857 M277.264418,60.7562143 C277.059573,61.0690714 276.900249,61.2962143 276.900249,61.2962143 C274.551643,64.6347857 271.09346,66.3033571 266.524988,66.3033571 C262.590967,66.3033571 259.434361,65.1333571 257.055171,62.7933571 C254.67527,60.4540714 253.48603,57.5055 253.48603,53.9490714 C253.48603,50.4240714 254.658911,47.4833571 257.006805,45.1276429 C259.354699,42.7733571 262.36834,41.5947857 266.04915,41.5947857 C269.538629,41.5947857 272.418551,42.7805 274.686784,45.1512143 C276.955016,47.5226429 278.089488,50.4555 278.089488,53.9490714 C278.089488,54.7290714 278.009826,55.5562143 277.851925,56.4290714 L259.909488,56.4290714 C260.734558,59.3619286 262.971495,60.8283571 266.620298,60.8283571 C268.700756,60.8283571 270.333115,60.2162143 271.517375,58.9905 C273.23153,59.5147857 277.264418,60.7562143 277.264418,60.7562143" id="Fill-15" fill="#252830" mask="url(#mask-2)"></path>
            </g>
            <g id="Group-19" transform="translate(24.183099, 25.337857)">
                <mask id="mask-4" fill="white">
                    <use xlink:href="#path-3"></use>
                </mask>
                <g id="Clip-18"></g>
                <path d="M2.25329577,0.0842857143 C1.72411268,0.0842857143 1.24329577,0.31 0.913978873,0.675 C0.618091549,0.987857143 0.433161972,1.40785714 0.421070423,1.86642857 L0.421070423,1.99 C0.426760563,2.20642857 0.470147887,2.41071429 0.546964789,2.59928571 C0.549809859,2.615 0.556211268,2.63 0.561901408,2.64571429 C0.62093662,2.78785714 0.697753521,2.92071429 0.790929577,3.04142857 C0.824359155,3.08785714 0.86134507,3.13071429 0.901176056,3.17142857 C0.907577465,3.18071429 0.916823944,3.19 0.926070423,3.2 L6.7691338,10.1657143 L8.87875352,12.68 L15.1940986,20.2057143 L17.3008732,22.7178571 L22.9554507,29.4585714 L25.0622254,31.97 L25.0622254,49.5771429 C26.3040986,49.5771429 27.4314577,49.0821429 28.2600845,48.2814286 C28.2629296,48.2814286 28.2629296,48.2814286 28.2629296,48.2785714 L28.8852887,47.5357143 L44.0495141,29.4585714 L49.2424789,23.2692857 C49.2673732,23.2407143 49.2915563,23.2135714 49.3136056,23.1821429 C49.4238521,23.0428571 49.5134718,22.8878571 49.5781972,22.7178571 C49.6614155,22.5107143 49.7048028,22.2878571 49.7048028,22.05 L49.7048028,1.92857143 C49.7048028,1.44214286 49.5163169,0.997142857 49.208338,0.672142857 C48.8761761,0.31 48.3989155,0.0842857143 47.8683099,0.0842857143 L2.25329577,0.0842857143 Z" id="Fill-17" mask="url(#mask-4)"></path>
            </g>
            <g id="Group-22" transform="translate(24.183099, 25.337857)">
                <mask id="mask-6" fill="white">
                    <use xlink:href="#path-5"></use>
                </mask>
                <g id="Clip-21"></g>
                <path d="M2.25329577,0.0842857143 C1.72411268,0.0842857143 1.24329577,0.31 0.913978873,0.675 C0.618091549,0.987857143 0.433161972,1.40785714 0.421070423,1.86642857 L0.421070423,1.99 C0.426760563,2.20642857 0.470147887,2.41071429 0.546964789,2.59928571 C0.549809859,2.615 0.556211268,2.63 0.561901408,2.64571429 C0.62093662,2.78785714 0.697753521,2.92071429 0.790929577,3.04142857 C0.824359155,3.08785714 0.86134507,3.13071429 0.901176056,3.17142857 C0.907577465,3.18071429 0.916823944,3.19 0.926070423,3.2 L6.7691338,10.1657143 L8.87875352,12.68 L15.1940986,20.2057143 L17.3008732,22.7178571 L22.9554507,29.4585714 L25.0622254,31.97 L25.0622254,49.5771429 C26.3040986,49.5771429 27.4314577,49.0821429 28.2600845,48.2814286 C28.2629296,48.2814286 28.2629296,48.2814286 28.2629296,48.2785714 L28.8852887,47.5357143 L44.0495141,29.4585714 L49.2424789,23.2692857 C49.2673732,23.2407143 49.2915563,23.2135714 49.3136056,23.1821429 C49.4238521,23.0428571 49.5134718,22.8878571 49.5781972,22.7178571 C49.6614155,22.5107143 49.7048028,22.2878571 49.7048028,22.05 L49.7048028,1.92857143 C49.7048028,1.44214286 49.5163169,0.997142857 49.208338,0.672142857 C48.8761761,0.31 48.3989155,0.0842857143 47.8683099,0.0842857143 L2.25329577,0.0842857143 Z" id="Fill-20" fill="url(#linearGradient-7)" mask="url(#mask-6)"></path>
            </g>
            <g id="Group-27" transform="translate(24.183099, 35.337857)">
                <path d="M25.062581,32.0482857 L25.062581,39.5775714 C23.821419,39.5775714 22.6940599,39.0825714 21.8654331,38.2818571 C21.8618768,38.2818571 21.8618768,38.2818571 21.8618768,38.2782857 L21.2402289,37.5361429 L6.07600352,19.4582857 L0.913623239,13.3061429 C0.90153169,13.2968571 0.892285211,13.284 0.883038732,13.2718571 L0.802665493,13.1761429 C0.796264085,13.1697143 0.790573944,13.164 0.784172535,13.1547143 C0.686017606,13.0211429 0.602799296,12.8761429 0.543764085,12.7182857 C0.469792254,12.5297143 0.427116197,12.3254286 0.420714789,12.1118571 L0.420714789,11.9882857 C0.433517606,11.5247143 0.617735915,11.1097143 0.913623239,10.794 C1.24649648,10.4318571 1.72375704,10.2061429 2.25365141,10.2061429 L6.73250352,10.2061429 L8.83927817,12.7182857 L14.4945669,19.4582857 L23.7659401,30.5075714 L25.0597359,32.0511429 L25.062581,32.0482857 Z" id="Fill-23" fill="#FCD1CA"></path>
                <path d="M25.062581,21.9702143 L25.062581,32.0480714 L25.0597359,32.0509286 L23.7659401,30.5073571 L14.4945669,19.4580714 L8.83927817,12.7180714 L6.73250352,10.2059286 L0.879482394,3.2345 C0.855299296,3.20592857 0.83040493,3.17521429 0.805510563,3.1445 C0.698109155,3.00521429 0.608489437,2.85021429 0.543764085,2.68021429 C0.469792254,2.49164286 0.427116197,2.28735714 0.420714789,2.07092857 L0.420714789,1.94735714 C0.433517606,1.48664286 0.617735915,1.07164286 0.913623239,0.756642857 C1.24294014,0.391642857 1.72375704,0.165928571 2.25365141,0.165928571 L6.76948944,0.165928571 L8.87910915,2.68021429 L15.193743,10.2059286 L17.3005176,12.7180714 L22.9558063,19.4580714 L25.062581,21.9702143 Z" id="Fill-25" fill="#FF9D8D"></path>
            </g>
        </g>
    </g>
</svg>