<?xml version="1.0" encoding="UTF-8" standalone="no"?><!DOCTYPE svg PUBLIC "-//W3C//DTD SVG 1.1//EN" "http://www.w3.org/Graphics/SVG/1.1/DTD/svg11.dtd"><svg width="100%" height="100%" viewBox="0 0 2020 727" version="1.1" xmlns="http://www.w3.org/2000/svg" xmlns:xlink="http://www.w3.org/1999/xlink" xml:space="preserve" xmlns:serif="http://www.serif.com/" style="fill-rule:evenodd;clip-rule:evenodd;stroke-linejoin:round;stroke-miterlimit:2;"><rect id="tibor.cc-logo-dark" serif:id="tibor.cc logo dark" x="0" y="0" width="2019.15" height="726.198" style="fill:none;"/><g><path d="M267.774,670.587c-38.828,0 -70.615,-7.151 -95.36,-21.454c-24.745,-14.303 -41.975,-33.973 -51.688,-59.012c-9.713,-25.038 -11.999,-53.896 -6.858,-86.573l24.78,-155.136l-27.614,0c-15.674,0 -27.887,-3.416 -36.639,-10.248c-8.752,-6.832 -13.127,-16.619 -13.127,-29.36c-0,-17.115 5.557,-30.273 16.673,-39.473c11.115,-9.2 26.235,-13.8 45.36,-13.8l30.111,-0l10.856,-68.866c3.279,-19.298 10.564,-33.771 21.856,-43.42c11.292,-9.648 26.582,-14.473 45.871,-14.473c21.299,0 36.678,5.963 46.137,17.89c9.459,11.926 12.55,28.814 9.272,50.665l-8.942,58.204l70.522,-0c16.045,-0 28.53,3.183 37.454,9.549c8.924,6.366 13.386,16.11 13.386,29.231c0,15.502 -5.057,28.394 -15.171,38.677c-10.115,10.283 -24.01,15.424 -41.686,15.424l-79.269,0l-23.952,148.769c-4.071,25.768 -0.916,44.17 9.466,55.208c10.382,11.037 25.027,16.556 43.937,16.556c9.066,0 16.412,-0.742 22.036,-2.225c5.625,-1.484 11.456,-2.226 17.495,-2.226c9.118,0 15.73,2.418 19.837,7.253c4.106,4.835 6.159,13.895 6.159,27.18c-0,22.921 -3.815,38.791 -11.445,47.612c-7.63,8.82 -17.639,14.801 -30.027,17.941c-7.143,2.036 -15.235,3.563 -24.275,4.581c-9.041,1.017 -17.426,1.526 -25.155,1.526Z" style="fill:#0055f0;fill-rule:nonzero;"/><path d="M456.618,668.931c-19.47,0 -33.71,-6.463 -42.721,-19.39c-9.01,-12.927 -11.79,-30.765 -8.34,-53.513l45.497,-285.659c3.278,-20.574 10.923,-36.048 22.936,-46.421c12.012,-10.374 28.392,-15.56 49.138,-15.56c19.471,-0 33.711,6.368 42.721,19.105c9.011,12.737 11.79,30.67 8.34,53.798l-45.496,285.659c-3.279,20.574 -10.829,36.048 -22.652,46.421c-11.822,10.373 -28.297,15.56 -49.423,15.56Zm78.208,-487.921c-22.058,0 -38.42,-5.333 -49.087,-16c-10.667,-10.667 -14.827,-25.662 -12.481,-44.985c2.899,-21.195 11.286,-37.23 25.162,-48.104c13.876,-10.873 32.671,-16.31 56.385,-16.31c22.058,-0 38.602,5.29 49.631,15.87c11.029,10.581 15.094,25.623 12.195,45.128c-2.898,21.195 -11.234,37.228 -25.006,48.097c-13.772,10.869 -32.705,16.304 -56.799,16.304Z" style="fill:#0055f0;fill-rule:nonzero;"/><path d="M875.18,670.587c-30.054,0 -56.656,-7.019 -79.806,-21.059c-23.149,-14.04 -39.417,-34.569 -48.802,-61.587l9.006,-27.187l-6.729,45.367c-2.726,20.575 -9.81,36.187 -21.253,46.836c-11.443,10.649 -27.452,15.974 -48.026,15.974c-19.471,0 -33.857,-6.463 -43.161,-19.39c-9.304,-12.927 -12.23,-30.765 -8.78,-53.513l73.395,-462.675c3.278,-20.574 10.923,-36.143 22.936,-46.706c12.012,-10.563 28.392,-15.845 49.138,-15.845c19.47,-0 33.806,6.368 43.006,19.106c9.2,12.737 12.075,30.669 8.624,53.797l-29.192,182.567l-8.281,0c15.251,-25.12 34.997,-44.657 59.238,-58.61c24.24,-13.954 51.418,-20.931 81.534,-20.931c30.745,0 57.487,7.126 80.226,21.377c22.74,14.251 40.416,34.575 53.028,60.972c12.612,26.397 18.918,57.626 18.918,93.684c-0,46.687 -8.36,88.75 -25.078,126.189c-16.718,37.439 -40.389,67.072 -71.013,88.897c-30.625,21.825 -66.934,32.737 -108.928,32.737Zm-25.271,-93.464c22.11,0 40.866,-6.398 56.269,-19.196c15.402,-12.797 27.277,-30.449 35.623,-52.956c8.346,-22.507 12.519,-47.735 12.519,-75.685c0,-28.597 -6.787,-50.597 -20.361,-65.999c-13.573,-15.403 -32.347,-23.104 -56.32,-23.104c-21.73,-0 -40.392,6.444 -55.984,19.332c-15.592,12.888 -27.562,30.447 -35.908,52.678c-8.346,22.23 -12.519,47.51 -12.519,75.84c-0,28.588 6.83,50.584 20.49,65.986c13.66,15.403 32.39,23.104 56.191,23.104Z" style="fill:#0055f0;fill-rule:nonzero;"/><path d="M1333.46,670.587c-42.003,0 -77.911,-7.669 -107.724,-23.007c-29.813,-15.338 -52.615,-37.068 -68.406,-65.19c-15.791,-28.123 -23.687,-60.942 -23.687,-98.459c0,-37.819 6.274,-71.402 18.821,-100.749c12.548,-29.348 29.736,-54.21 51.565,-74.585c21.83,-20.376 46.659,-35.781 74.488,-46.215c27.83,-10.434 57.22,-15.651 88.172,-15.651c41.994,0 77.9,7.669 107.718,23.007c29.817,15.338 52.619,36.974 68.406,64.906c15.786,27.933 23.68,60.843 23.68,98.731c-0,37.827 -6.272,71.415 -18.815,100.762c-12.543,29.348 -29.729,54.207 -51.559,74.579c-21.829,20.371 -46.658,35.776 -74.487,46.214c-27.83,10.438 -57.22,15.657 -88.172,15.657Zm2.743,-93.464c22.11,0 40.866,-6.398 56.269,-19.196c15.402,-12.797 27.279,-30.449 35.629,-52.956c8.351,-22.507 12.526,-47.735 12.526,-75.685c0,-28.597 -6.787,-50.597 -20.361,-65.999c-13.573,-15.403 -32.347,-23.104 -56.32,-23.104c-21.73,-0 -40.392,6.398 -55.984,19.196c-15.593,12.797 -27.564,30.313 -35.914,52.548c-8.351,22.235 -12.526,47.604 -12.526,76.106c-0,28.588 6.83,50.584 20.49,65.986c13.66,15.403 32.39,23.104 56.191,23.104Z" style="fill:#0055f0;fill-rule:nonzero;"/><path d="M1672.1,668.931c-20.023,0 -34.582,-6.144 -43.679,-18.433c-9.096,-12.288 -11.919,-29.634 -8.469,-52.037l45.755,-290.278c3.278,-19.841 10.881,-34.768 22.807,-44.779c11.926,-10.011 27.624,-15.016 47.094,-15.016c19.47,-0 33.71,6.006 42.721,18.018c9.01,12.013 11.7,29.307 8.068,51.883l-5.888,36.257l-7.764,-0c10.525,-32.574 28.267,-58.264 53.228,-77.07c24.961,-18.805 54.229,-28.967 87.803,-30.486c16.322,-0.759 27.754,2.096 34.297,8.566c6.543,6.47 9.815,17.18 9.815,32.13c0,22.196 -5.006,38.481 -15.017,48.854c-10.011,10.374 -25.493,16.561 -46.447,18.562l-27.381,2.743c-32.841,3.348 -56.402,13.145 -70.683,29.393c-14.282,16.248 -24.01,39.896 -29.186,70.943l-23.913,150.942c-2.898,20.023 -10.449,34.996 -22.651,44.921c-12.202,9.925 -29.039,14.887 -50.51,14.887Z" style="fill:#0055f0;fill-rule:nonzero;"/></g></svg>