<?xml version="1.0" encoding="UTF-8" standalone="no"?><!DOCTYPE svg PUBLIC "-//W3C//DTD SVG 1.1//EN" "http://www.w3.org/Graphics/SVG/1.1/DTD/svg11.dtd"><svg width="100%" height="100%" viewBox="0 0 2020 795" version="1.1" xmlns="http://www.w3.org/2000/svg" xmlns:xlink="http://www.w3.org/1999/xlink" xml:space="preserve" xmlns:serif="http://www.serif.com/" style="fill-rule:evenodd;clip-rule:evenodd;stroke-linejoin:round;stroke-miterlimit:2;"><rect id="tibor.cc-logo-dark" serif:id="tibor.cc logo dark" x="0" y="0" width="2019.15" height="794.011" style="fill:none;"/><g><path d="M340.359,272.593l0,74.666l-235.465,0l-0,-74.666l235.465,-0Zm-177.332,-98.133l96.533,0l-0,384.531c-0,12.978 2,22.889 6,29.734c4,6.844 9.289,11.511 15.866,14c6.578,2.488 13.867,3.733 21.867,3.733c6.044,-0 11.6,-0.445 16.667,-1.333c5.066,-0.889 8.933,-1.689 11.599,-2.4l16.267,75.466c-5.156,1.778 -12.489,3.733 -22,5.866c-9.511,2.134 -21.111,3.378 -34.8,3.734c-24.177,0.711 -45.955,-2.978 -65.333,-11.067c-19.377,-8.089 -34.711,-20.666 -45.999,-37.733c-11.289,-17.067 -16.845,-38.4 -16.667,-64l0,-400.531Z" style="fill:#dc74ff;fill-rule:nonzero;"/><path d="M421.159,682.191l-0,-409.598l96.533,-0l-0,409.598l-96.533,-0Zm48.533,-467.731c-15.289,-0 -28.444,-5.111 -39.466,-15.333c-11.023,-10.222 -16.534,-22.534 -16.534,-36.933c0,-14.578 5.511,-26.978 16.534,-37.2c11.022,-10.222 24.177,-15.333 39.466,-15.333c15.467,-0 28.667,5.111 39.6,15.333c10.933,10.222 16.4,22.622 16.4,37.2c-0,14.399 -5.467,26.711 -16.4,36.933c-10.933,10.222 -24.133,15.333 -39.6,15.333Z" style="fill:#dc74ff;fill-rule:nonzero;"/><path d="M621.158,682.191l-0,-546.131l96.533,0l-0,204.266l4,-0c4.977,-9.956 12,-20.578 21.066,-31.867c9.067,-11.288 21.333,-20.977 36.8,-29.066c15.467,-8.089 35.2,-12.133 59.2,-12.133c31.644,-0 60.222,8.044 85.733,24.133c25.511,16.089 45.777,39.822 60.799,71.199c15.022,31.378 22.533,69.822 22.533,115.333c0,44.978 -7.377,83.2 -22.133,114.666c-14.755,31.467 -34.844,55.467 -60.266,72c-25.422,16.533 -54.222,24.8 -86.4,24.8c-23.466,-0 -42.933,-3.911 -58.399,-11.734c-15.467,-7.822 -27.867,-17.288 -37.2,-28.399c-9.333,-11.111 -16.578,-21.645 -21.733,-31.6l-5.6,-0l-0,64.533l-94.933,-0Zm94.666,-204.799c0,26.489 3.778,49.689 11.333,69.6c7.556,19.911 18.489,35.422 32.8,46.533c14.311,11.111 31.689,16.666 52.133,16.666c21.333,0 39.2,-5.733 53.6,-17.2c14.4,-11.466 25.289,-27.2 32.666,-47.199c7.378,-20 11.067,-42.8 11.067,-68.4c0,-25.422 -3.644,-48 -10.933,-67.733c-7.289,-19.733 -18.134,-35.2 -32.533,-46.4c-14.4,-11.2 -32.356,-16.8 -53.867,-16.8c-20.622,0 -38.133,5.422 -52.533,16.267c-14.4,10.844 -25.289,26.044 -32.666,45.6c-7.378,19.555 -11.067,42.577 -11.067,69.066Z" style="fill:#dc74ff;fill-rule:nonzero;"/><path d="M1268.89,690.191c-40,-0 -74.667,-8.8 -104,-26.4c-29.333,-17.6 -52.044,-42.222 -68.133,-73.866c-16.088,-31.645 -24.133,-68.622 -24.133,-110.933c0,-42.311 8.045,-79.377 24.133,-111.2c16.089,-31.822 38.8,-56.533 68.133,-74.132c29.333,-17.6 64,-26.4 104,-26.4c40,-0 74.666,8.8 103.999,26.4c29.333,17.599 52.044,42.31 68.133,74.132c16.089,31.823 24.133,68.889 24.133,111.2c0,42.311 -8.044,79.288 -24.133,110.933c-16.089,31.644 -38.8,56.266 -68.133,73.866c-29.333,17.6 -63.999,26.4 -103.999,26.4Zm0.533,-77.333c21.689,-0 39.822,-6 54.4,-18c14.577,-12 25.466,-28.133 32.666,-48.4c7.2,-20.266 10.8,-42.844 10.8,-67.733c0,-25.066 -3.6,-47.777 -10.8,-68.133c-7.2,-20.355 -18.089,-36.577 -32.666,-48.666c-14.578,-12.089 -32.711,-18.133 -54.4,-18.133c-22.222,-0 -40.666,6.044 -55.333,18.133c-14.667,12.089 -25.6,28.311 -32.8,48.666c-7.2,20.356 -10.8,43.067 -10.8,68.133c0,24.889 3.6,47.467 10.8,67.733c7.2,20.267 18.133,36.4 32.8,48.4c14.667,12 33.111,18 55.333,18Z" style="fill:#dc74ff;fill-rule:nonzero;"/><path d="M1546.75,682.191l-0,-409.598l93.599,-0l0,68.266l4.267,0c7.467,-23.644 20.311,-41.911 38.533,-54.799c18.222,-12.889 39.067,-19.334 62.533,-19.334c5.333,0 11.333,0.223 18,0.667c6.667,0.444 12.222,1.111 16.667,2l-0,88.8c-4.089,-1.423 -10.534,-2.712 -19.334,-3.867c-8.8,-1.156 -17.288,-1.733 -25.466,-1.733c-17.6,-0 -33.378,3.777 -47.333,11.333c-13.956,7.555 -24.933,18 -32.933,31.333c-8,13.333 -12,28.711 -12,46.133l-0,240.799l-96.533,-0Z" style="fill:#dc74ff;fill-rule:nonzero;"/><path d="M1857.15,688.057c-16.177,0 -30.044,-5.688 -41.6,-17.066c-11.555,-11.378 -17.244,-25.244 -17.066,-41.6c-0.178,-16 5.511,-29.689 17.066,-41.066c11.556,-11.378 25.423,-17.067 41.6,-17.067c15.645,0 29.289,5.689 40.933,17.067c11.645,11.377 17.556,25.066 17.734,41.066c-0.178,10.844 -2.978,20.711 -8.4,29.6c-5.423,8.889 -12.534,15.955 -21.334,21.2c-8.8,5.244 -18.444,7.866 -28.933,7.866Z" style="fill:#dc74ff;fill-rule:nonzero;"/></g></svg>