<svg width="1000" height="1250" viewBox="0 0 1000 1250" fill="none" xmlns="http://www.w3.org/2000/svg">
<rect width="1000" height="1250" fill="#DBDBDB"/>
<path fill-rule="evenodd" clip-rule="evenodd" d="M600 565C600 553.954 591.046 545 580 545H420C408.954 545 400 553.954 400 565V685C400 696.046 408.954 705 420 705H580C591.046 705 600 696.046 600 685V565ZM475 575C483.284 575 490 581.716 490 590C490 598.284 483.284 605 475 605C466.716 605 460 598.284 460 590C460 581.716 466.716 575 475 575ZM565 675C567.762 675 570 672.762 570 670V666.6C569.993 665.519 569.643 664.469 569 663.6L526.5 606.9C525.533 605.677 524.059 604.964 522.5 604.964C520.941 604.964 519.467 605.677 518.5 606.9L489.7 644.1C488.746 645.347 487.27 646.085 485.7 646.1C484.227 646.102 482.832 645.441 481.9 644.3L467.4 626.8C466.437 625.644 465.005 624.983 463.5 625C462.128 625.144 460.868 625.827 460 626.9L431.1 663.6C430.387 664.437 429.997 665.501 430 666.6V670C430 672.762 432.239 675 435 675H565Z" fill="black" fill-opacity="0.15"/>
</svg>
