<?xml version="1.0" encoding="UTF-8" standalone="no"?><!DOCTYPE svg PUBLIC "-//W3C//DTD SVG 1.1//EN" "http://www.w3.org/Graphics/SVG/1.1/DTD/svg11.dtd"><svg width="100%" height="100%" viewBox="0 0 485 191" version="1.1" xmlns="http://www.w3.org/2000/svg" xmlns:xlink="http://www.w3.org/1999/xlink" xml:space="preserve" xmlns:serif="http://www.serif.com/" style="fill-rule:evenodd;clip-rule:evenodd;stroke-linejoin:round;stroke-miterlimit:2;"><rect id="tibor.cc-logo-dark" serif:id="tibor.cc logo dark" x="0" y="0" width="484.596" height="190.563" style="fill:none;"/><g><path d="M81.686,65.422l0,17.92l-56.511,0l-0,-17.92l56.511,0Zm-42.56,-23.552l23.168,0l0,92.288c0,3.115 0.48,5.493 1.44,7.136c0.96,1.643 2.23,2.763 3.808,3.36c1.579,0.597 3.328,0.896 5.248,0.896c1.451,-0 2.784,-0.107 4,-0.32c1.216,-0.213 2.144,-0.405 2.784,-0.576l3.904,18.112c-1.237,0.426 -2.997,0.896 -5.28,1.408c-2.282,0.512 -5.066,0.81 -8.352,0.896c-5.802,0.17 -11.029,-0.715 -15.68,-2.656c-4.65,-1.942 -8.33,-4.96 -11.04,-9.056c-2.709,-4.096 -4.042,-9.216 -4,-15.36l0,-96.128Z" style="fill:#32013e;fill-rule:nonzero;"/><path d="M101.078,163.726l0,-98.304l23.168,0l0,98.304l-23.168,-0Zm11.648,-112.256c-3.669,0 -6.827,-1.226 -9.472,-3.68c-2.645,-2.453 -3.968,-5.408 -3.968,-8.864c0,-3.498 1.323,-6.474 3.968,-8.927c2.645,-2.454 5.803,-3.68 9.472,-3.68c3.712,-0 6.88,1.226 9.504,3.68c2.624,2.453 3.936,5.429 3.936,8.927c0,3.456 -1.312,6.411 -3.936,8.864c-2.624,2.454 -5.792,3.68 -9.504,3.68Z" style="fill:#32013e;fill-rule:nonzero;"/><path d="M149.078,163.726l-0,-131.072l23.168,0l-0,49.024l0.96,0c1.194,-2.389 2.88,-4.938 5.056,-7.648c2.176,-2.709 5.12,-5.034 8.832,-6.976c3.712,-1.941 8.448,-2.912 14.208,-2.912c7.594,0 14.453,1.931 20.576,5.792c6.122,3.862 10.986,9.558 14.591,17.088c3.606,7.531 5.408,16.757 5.408,27.68c0,10.795 -1.77,19.968 -5.312,27.52c-3.541,7.552 -8.362,13.312 -14.463,17.28c-6.102,3.968 -13.014,5.952 -20.736,5.952c-5.632,-0 -10.304,-0.939 -14.016,-2.816c-3.712,-1.878 -6.688,-4.15 -8.928,-6.816c-2.24,-2.667 -3.979,-5.195 -5.216,-7.584l-1.344,-0l-0,15.488l-22.784,-0Zm22.72,-49.152c-0,6.357 0.906,11.925 2.72,16.704c1.813,4.779 4.437,8.501 7.872,11.168c3.434,2.667 7.605,4 12.512,4c5.12,-0 9.408,-1.376 12.864,-4.128c3.456,-2.752 6.069,-6.528 7.84,-11.328c1.77,-4.8 2.656,-10.272 2.656,-16.416c-0,-6.101 -0.875,-11.52 -2.624,-16.256c-1.75,-4.736 -4.352,-8.448 -7.808,-11.136c-3.456,-2.688 -7.766,-4.032 -12.928,-4.032c-4.95,0 -9.152,1.302 -12.608,3.904c-3.456,2.603 -6.07,6.251 -7.84,10.944c-1.771,4.693 -2.656,10.219 -2.656,16.576Z" style="fill:#32013e;fill-rule:nonzero;"/><path d="M304.533,165.646c-9.6,-0 -17.92,-2.112 -24.96,-6.336c-7.04,-4.224 -12.49,-10.133 -16.352,-17.728c-3.861,-7.595 -5.792,-16.469 -5.792,-26.624c0,-10.155 1.931,-19.051 5.792,-26.688c3.862,-7.637 9.312,-13.568 16.352,-17.792c7.04,-4.224 15.36,-6.336 24.96,-6.336c9.6,0 17.92,2.112 24.96,6.336c7.04,4.224 12.491,10.155 16.352,17.792c3.861,7.637 5.792,16.533 5.792,26.688c-0,10.155 -1.931,19.029 -5.792,26.624c-3.861,7.595 -9.312,13.504 -16.352,17.728c-7.04,4.224 -15.36,6.336 -24.96,6.336Zm0.128,-18.56c5.205,-0 9.557,-1.44 13.056,-4.32c3.499,-2.88 6.112,-6.752 7.84,-11.616c1.728,-4.864 2.592,-10.283 2.592,-16.256c-0,-6.016 -0.864,-11.467 -2.592,-16.352c-1.728,-4.885 -4.341,-8.778 -7.84,-11.68c-3.499,-2.901 -7.851,-4.352 -13.056,-4.352c-5.333,0 -9.76,1.451 -13.28,4.352c-3.52,2.902 -6.144,6.795 -7.872,11.68c-1.728,4.885 -2.592,10.336 -2.592,16.352c0,5.973 0.864,11.392 2.592,16.256c1.728,4.864 4.352,8.736 7.872,11.616c3.52,2.88 7.947,4.32 13.28,4.32Z" style="fill:#32013e;fill-rule:nonzero;"/><path d="M371.221,163.726l-0,-98.304l22.464,0l-0,16.384l1.024,0c1.792,-5.674 4.874,-10.058 9.248,-13.152c4.373,-3.093 9.375,-4.64 15.007,-4.64c1.28,0 2.72,0.054 4.32,0.16c1.6,0.107 2.934,0.267 4,0.48l0,21.312c-0.981,-0.341 -2.528,-0.65 -4.64,-0.928c-2.112,-0.277 -4.149,-0.416 -6.112,-0.416c-4.224,0 -8.01,0.907 -11.359,2.72c-3.35,1.814 -5.984,4.32 -7.904,7.52c-1.92,3.2 -2.88,6.891 -2.88,11.072l-0,57.792l-23.168,-0Z" style="fill:#32013e;fill-rule:nonzero;"/><path d="M445.716,165.134c-3.882,-0 -7.21,-1.366 -9.984,-4.096c-2.773,-2.731 -4.138,-6.059 -4.096,-9.984c-0.042,-3.84 1.323,-7.125 4.096,-9.856c2.774,-2.731 6.102,-4.096 9.984,-4.096c3.755,-0 7.03,1.365 9.824,4.096c2.795,2.731 4.214,6.016 4.256,9.856c-0.042,2.603 -0.714,4.97 -2.016,7.104c-1.301,2.133 -3.008,3.829 -5.12,5.088c-2.112,1.258 -4.426,1.888 -6.944,1.888Z" style="fill:#32013e;fill-rule:nonzero;"/></g><g id="christmas-hat" serif:id="christmas hat"><g><g><path d="M123.108,25.861c0,-0 0.912,-7.61 -8.261,-13.531c-3.523,-2.739 -5.252,-5.936 -9.99,-5.668c-4.738,0.268 -8.366,3.846 -9.682,7.542c-1.316,3.696 -3.67,9.395 -4.806,16.539c-1.106,4.977 -2.522,6.826 -2.522,6.826l1.333,0.941c0,0 3.802,-2.107 5.379,-6.443c1.577,-4.336 4.101,-6.709 4.101,-6.709c0,-0 -1.276,2.459 0.563,2.762c-0.001,0 11.223,-6.28 23.885,-2.259Z" style="fill:#cf0014;fill-rule:nonzero;"/><path d="M89.186,38.58c0.007,-0.001 0.014,-0.003 0.02,-0.007c0.039,-0.021 3.839,-2.168 5.407,-6.478c1.27,-3.492 3.179,-5.727 3.845,-6.438c-0.181,0.452 -0.431,1.263 -0.185,1.859c0.152,0.368 0.469,0.595 0.943,0.673c0.011,0.001 0.023,-0 0.033,-0.006c0.112,-0.063 11.35,-6.223 23.846,-2.255c0.016,0.004 0.033,0.001 0.047,-0.009c0.014,-0.011 0.023,-0.028 0.025,-0.047c0.002,-0.019 0.22,-1.951 -0.695,-4.581c-0.842,-2.421 -2.844,-5.952 -7.598,-9.021c-0.886,-0.69 -1.656,-1.407 -2.401,-2.1c-2.179,-2.028 -4.06,-3.779 -7.62,-3.578c-0.087,0.005 -0.174,0.012 -0.26,0.019c-4.796,0.396 -8.263,4.168 -9.472,7.564c-0.193,0.541 -0.408,1.125 -0.638,1.75c-1.351,3.671 -3.201,8.697 -4.172,14.803c-1.087,4.895 -2.494,6.775 -2.509,6.794c-0.011,0.015 -0.016,0.036 -0.013,0.056c0.002,0.021 0.013,0.04 0.029,0.05l1.333,0.941c0.011,0.008 0.023,0.012 0.035,0.011Zm9.468,-13.292c-0.011,0.001 -0.022,0.006 -0.031,0.014c-0.026,0.024 -2.554,2.434 -4.119,6.736c-1.479,4.068 -4.975,6.19 -5.323,6.393l-1.245,-0.879c0.252,-0.368 1.504,-2.351 2.49,-6.79c0.969,-6.095 2.816,-11.114 4.165,-14.779c0.23,-0.625 0.445,-1.21 0.638,-1.751c1.217,-3.419 4.753,-7.226 9.632,-7.501c3.516,-0.198 5.381,1.537 7.54,3.547c0.747,0.695 1.519,1.414 2.414,2.11c2.611,1.685 6.036,4.604 7.548,8.952c0.8,2.303 0.723,4.054 0.694,4.433c-12.295,-3.872 -23.357,2.009 -23.845,2.275c-0.422,-0.073 -0.703,-0.272 -0.834,-0.591c-0.323,-0.782 0.326,-2.05 0.332,-2.063c0.015,-0.028 0.01,-0.066 -0.012,-0.089c-0.012,-0.012 -0.028,-0.018 -0.044,-0.017Z" style="fill:#780015;fill-rule:nonzero;"/></g><g><path d="M119.329,17.164c0.213,0.561 0.426,1.123 0.639,1.684c-2.989,-4.253 -6.772,-7.732 -10.987,-10.104c0.1,0.222 0.201,0.444 0.302,0.667c-0.828,-0.563 -1.656,-1.127 -2.484,-1.69c0.059,0.226 0.119,0.452 0.178,0.678c-2.752,-0.686 -5.633,-0.391 -8.233,0.739c1.662,-1.385 3.749,-2.342 6.113,-2.476c4.738,-0.268 6.467,2.929 9.99,5.668c6.233,4.024 7.809,8.825 8.18,11.491c-0.263,-0.663 -0.577,-1.305 -0.937,-1.922c-0.92,-1.579 -1.841,-3.157 -2.761,-4.735Z" style="fill:#fb7364;fill-rule:nonzero;"/></g><g><path d="M89.523,33.865c0.057,0.305 0.114,0.61 0.171,0.915c0.893,-0.504 1.398,-1.609 1.849,-2.648c0.803,-1.854 1.606,-3.707 2.41,-5.561c1.84,-4.246 3.734,-8.857 3.094,-13.641c0.17,0.693 0.502,1.539 1.109,1.531c0.652,-0.009 0.901,-0.989 0.91,-1.759c0.008,-0.77 0.051,-1.729 0.651,-2.014c-0.509,2.071 0.281,4.528 1.844,5.73c2.884,2.22 7.092,0.024 9.877,2.418c-2.708,-0.167 -5.43,0.496 -7.827,1.906c-1.132,0.666 -2.287,1.66 -2.486,3.143c2.572,-0.662 5.145,-1.325 7.718,-1.987c-0.292,-0.138 -0.583,-0.277 -0.875,-0.415c1.314,-0.78 2.905,-0.637 4.36,-0.221c1.454,0.417 2.865,1.087 4.345,1.322c1.479,0.235 3.107,-0.043 4.139,-1.273c0.426,-0.508 0.689,-1.206 0.77,-1.926c1.87,3.596 1.526,6.476 1.526,6.476c-12.662,-4.021 -23.886,2.259 -23.886,2.259c-1.838,-0.304 -0.562,-2.763 -0.562,-2.763c-0,0 -2.524,2.373 -4.101,6.71c-1.578,4.335 -5.379,6.443 -5.379,6.443l-1.333,-0.941c-0,0 0.805,-1.052 1.676,-3.704Z" style="fill:#a50017;fill-rule:nonzero;"/></g><g><path d="M89.707,35.883c0.942,-0.212 1.604,-1.165 2.145,-2.088c0.51,-0.873 0.984,-1.775 1.441,-2.689c2.258,-4.514 4.109,-9.321 5.513,-14.314c-0.397,1.231 0.109,2.796 1.11,3.438c0.856,0.548 1.973,0.359 2.674,-0.38c-0.774,1.023 -1.548,2.047 -2.321,3.071c-0.361,0.477 -0.747,1.067 -0.612,1.699c0.121,0.571 0.647,0.926 1.143,0.964c0.496,0.038 0.988,-0.122 1.44,-0.347c2.58,-1.28 5.921,-1.087 8.903,-0.563c-7,0.694 -11.92,3.446 -11.92,3.446c-1.839,-0.304 -0.563,-2.763 -0.563,-2.763c0,0 -2.524,2.373 -4.101,6.71c-1.577,4.335 -5.379,6.443 -5.379,6.443l-1.333,-0.941c-0,0 0.392,-0.514 0.925,-1.724c0.308,0.088 0.625,0.108 0.935,0.038Z" style="fill:#a50017;fill-rule:nonzero;"/></g></g><g><g><path d="M83.631,37.854c-0.603,0.291 -1.087,0.849 -1.451,1.483c-0.364,0.634 -0.62,1.346 -0.874,2.054c0.231,-0.338 0.52,-0.62 0.846,-0.824c-1.063,1.399 -1.745,3.326 -1.427,5.203c0.012,-0.855 0.251,-1.673 0.488,-2.474c-0.305,1.408 -0.118,2.943 0.524,4.215c0.049,-0.492 0.189,-0.968 0.408,-1.386c0.044,0.885 0.102,1.821 0.532,2.559c0.251,0.432 0.62,0.778 0.787,1.262c0.522,-0.235 0.993,-0.618 1.363,-1.108c-0.09,0.582 -0.285,0.998 -0.673,1.366c1.137,-0.053 2.31,-0.115 3.328,-0.687c-0.33,0.419 -0.718,0.773 -1.145,1.044c0.772,-0.147 1.53,-0.436 2.184,-0.93c0.654,-0.493 1.201,-1.199 1.49,-2.052c0.079,0.602 0.022,1.225 -0.164,1.786c0.757,-0.858 1.397,-1.888 1.72,-3.074c0.323,-1.185 0.306,-2.537 -0.18,-3.67c0.575,0.654 0.949,1.547 1.037,2.473c0.161,-0.37 0.203,-0.799 0.203,-1.22c-0.003,-1.849 -0.853,-3.694 -2.178,-4.726c0.451,0.025 0.896,0.263 1.217,0.648c-0.216,-0.501 -0.622,-0.853 -1.045,-1.11c-0.423,-0.257 -0.875,-0.439 -1.291,-0.713c-0.991,-0.654 -1.875,-1.577 -2.925,-2.081c0.156,0.25 0.311,0.499 0.466,0.748c-0.918,-0.333 -1.92,-0.302 -2.805,0.089c-0.884,0.391 -1.645,1.138 -2.129,2.09c0.386,-0.333 0.773,-0.667 1.159,-1c0.109,-0.095 0.226,-0.193 0.362,-0.209c0.136,-0.016 0.154,0.083 0.173,0.244Z" style="fill:#f7fcf6;fill-rule:nonzero;"/><path d="M86.342,50.63c0.002,0 0.004,-0 0.006,-0c0.852,-0.163 1.595,-0.479 2.206,-0.94c0.63,-0.476 1.129,-1.126 1.424,-1.849c0.035,0.511 -0.029,1.023 -0.186,1.496c-0.01,0.03 -0.001,0.065 0.022,0.084c0.024,0.019 0.054,0.016 0.074,-0.006c0.854,-0.966 1.438,-2.01 1.735,-3.101c0.31,-1.138 0.292,-2.335 -0.042,-3.348c0.43,0.603 0.711,1.361 0.785,2.134c0.003,0.03 0.022,0.056 0.048,0.062c0.027,0.006 0.051,-0.008 0.063,-0.035c0.143,-0.33 0.21,-0.728 0.209,-1.252c-0.003,-1.775 -0.787,-3.561 -2.014,-4.628c0.357,0.077 0.695,0.287 0.952,0.596c0.021,0.025 0.054,0.029 0.077,0.009c0.023,-0.019 0.03,-0.056 0.017,-0.087c-0.192,-0.446 -0.542,-0.82 -1.071,-1.141c-0.192,-0.116 -0.391,-0.219 -0.585,-0.317c-0.235,-0.121 -0.478,-0.245 -0.704,-0.394c-0.386,-0.255 -0.763,-0.556 -1.127,-0.847c-0.57,-0.457 -1.16,-0.928 -1.805,-1.238c-0.024,-0.011 -0.052,-0.003 -0.068,0.022c-0.016,0.024 -0.015,0.058 0,0.083l0.365,0.586c-0.887,-0.279 -1.831,-0.229 -2.679,0.145c-0.899,0.398 -1.665,1.15 -2.158,2.119c-0.014,0.028 -0.009,0.064 0.012,0.087c0.021,0.023 0.053,0.025 0.075,0.006l1.159,-1c0.098,-0.085 0.209,-0.181 0.334,-0.196c0.068,-0.006 0.083,0.002 0.1,0.13c-0.536,0.272 -1.032,0.785 -1.435,1.487c-0.368,0.641 -0.628,1.365 -0.879,2.065c-0.011,0.032 -0.001,0.069 0.024,0.088c0.026,0.018 0.058,0.012 0.077,-0.015c0.146,-0.213 0.317,-0.406 0.507,-0.569c-1.019,1.507 -1.463,3.316 -1.193,4.916c0.006,0.035 0.033,0.059 0.063,0.057c0,0 0,0 0.001,0c0.029,-0.002 0.052,-0.031 0.052,-0.066c0.009,-0.549 0.111,-1.082 0.246,-1.602c-0.085,1.165 0.144,2.356 0.658,3.375c0.013,0.025 0.038,0.039 0.063,0.034c0.025,-0.006 0.043,-0.029 0.046,-0.059c0.04,-0.403 0.144,-0.799 0.303,-1.157c0.041,0.763 0.121,1.655 0.53,2.359c0.096,0.164 0.209,0.317 0.318,0.466c0.186,0.251 0.362,0.489 0.462,0.781c0.013,0.036 0.047,0.054 0.077,0.041c0.463,-0.208 0.886,-0.53 1.236,-0.939c-0.104,0.45 -0.292,0.781 -0.606,1.077c-0.019,0.019 -0.026,0.051 -0.016,0.079c0.009,0.028 0.033,0.046 0.058,0.045c0.983,-0.045 2.086,-0.095 3.063,-0.546c-0.275,0.303 -0.581,0.562 -0.914,0.773c-0.025,0.016 -0.036,0.051 -0.026,0.084c0.01,0.03 0.035,0.049 0.061,0.046Zm3.663,-3.121c-0.021,0.002 -0.04,0.018 -0.049,0.042c-0.268,0.791 -0.79,1.509 -1.468,2.021c-0.517,0.39 -1.132,0.675 -1.83,0.848c0.319,-0.241 0.61,-0.527 0.867,-0.855c0.02,-0.024 0.021,-0.062 0.004,-0.089c-0.018,-0.027 -0.048,-0.037 -0.074,-0.022c-0.969,0.545 -2.108,0.624 -3.134,0.672c0.308,-0.339 0.48,-0.731 0.564,-1.274c0.005,-0.03 -0.008,-0.062 -0.032,-0.076c-0.024,-0.014 -0.053,-0.008 -0.07,0.015c-0.352,0.465 -0.796,0.832 -1.289,1.065c-0.111,-0.286 -0.287,-0.526 -0.459,-0.758c-0.107,-0.144 -0.218,-0.294 -0.31,-0.452c-0.433,-0.745 -0.482,-1.731 -0.521,-2.523c-0.002,-0.03 -0.02,-0.057 -0.045,-0.065c-0.024,-0.008 -0.05,0.004 -0.064,0.03c-0.193,0.368 -0.327,0.784 -0.391,1.215c-0.564,-1.215 -0.722,-2.657 -0.434,-3.988c0.008,-0.036 -0.01,-0.073 -0.04,-0.085c-0.03,-0.012 -0.062,0.007 -0.072,0.042c-0.178,0.599 -0.36,1.214 -0.444,1.855c-0.076,-1.519 0.457,-3.163 1.482,-4.513c0.019,-0.025 0.02,-0.062 0.002,-0.089c-0.018,-0.027 -0.05,-0.035 -0.074,-0.019c-0.228,0.142 -0.441,0.324 -0.628,0.536c0.21,-0.573 0.436,-1.149 0.733,-1.665c0.401,-0.698 0.894,-1.202 1.425,-1.459c0.024,-0.011 0.039,-0.041 0.035,-0.071c-0.015,-0.136 -0.036,-0.322 -0.227,-0.306c-0.004,0 -0.007,0 -0.012,0.001c-0.155,0.018 -0.285,0.131 -0.39,0.221l-0.893,0.772c0.476,-0.788 1.149,-1.399 1.922,-1.74c0.875,-0.387 1.858,-0.418 2.766,-0.088c0.025,0.009 0.051,-0.001 0.065,-0.025c0.014,-0.024 0.014,-0.057 -0.001,-0.081l-0.34,-0.544c0.559,0.3 1.081,0.718 1.588,1.123c0.366,0.293 0.745,0.596 1.136,0.854c0.231,0.152 0.477,0.278 0.715,0.4c0.192,0.098 0.39,0.199 0.578,0.313c0.343,0.21 0.607,0.44 0.798,0.698c-0.281,-0.218 -0.61,-0.348 -0.944,-0.367c-0.025,-0.003 -0.049,0.018 -0.057,0.048c-0.007,0.029 0.003,0.062 0.025,0.079c1.303,1.016 2.147,2.848 2.15,4.667c0.001,0.388 -0.036,0.702 -0.115,0.968c-0.129,-0.85 -0.495,-1.665 -1.026,-2.268c-0.02,-0.024 -0.053,-0.027 -0.075,-0.008c-0.023,0.02 -0.03,0.056 -0.017,0.087c0.451,1.052 0.515,2.371 0.176,3.617c-0.271,0.993 -0.783,1.946 -1.526,2.837c0.123,-0.493 0.152,-1.018 0.085,-1.535c-0.005,-0.031 -0.026,-0.056 -0.052,-0.06c-0.004,-0.001 -0.008,-0.001 -0.013,-0.001Z" style="fill:#adafb2;fill-rule:nonzero;"/></g><g><path d="M81.129,42.387c0.541,-0.49 1.081,-0.98 1.621,-1.47c-0.473,1.034 -0.854,2.129 -1.134,3.261c0.545,-0.794 1.09,-1.588 1.635,-2.382c-0.409,1.295 -0.487,2.679 -0.158,4.028c0.36,-0.396 0.72,-0.792 1.08,-1.188c-0.307,0.486 -0.263,1.242 0.099,1.695c0.363,0.452 1.001,0.55 1.431,0.218c-0.191,0.12 -0.212,0.467 -0.076,0.674c0.137,0.206 0.38,0.281 0.598,0.251c0.217,-0.03 0.415,-0.147 0.609,-0.262c0.518,-0.308 1.035,-0.616 1.553,-0.924c0.051,0.293 0.102,0.584 0.153,0.877c0.487,-0.787 0.794,-1.73 0.883,-2.708c0.058,0.474 0.116,0.948 0.174,1.423c0.715,-2.155 0.414,-4.766 -0.77,-6.677c-0.23,0.439 -0.46,0.877 -0.69,1.316c0.058,-0.672 0.116,-1.345 0.174,-2.017c-0.401,0.72 -0.803,1.441 -1.204,2.162c0.031,-0.673 0.247,-1.305 0.43,-1.939c0.18,-0.619 0.33,-1.276 0.246,-1.93c0.513,0.4 1.015,0.828 1.547,1.178c0.415,0.274 0.868,0.456 1.291,0.713c0.423,0.257 0.829,0.61 1.044,1.11c-0.32,-0.385 -0.765,-0.622 -1.216,-0.648c1.325,1.033 2.175,2.878 2.178,4.726c0,0.421 -0.042,0.851 -0.203,1.221c-0.088,-0.926 -0.462,-1.82 -1.037,-2.474c0.485,1.133 0.502,2.485 0.179,3.671c-0.323,1.185 -0.962,2.216 -1.72,3.073c0.187,-0.56 0.244,-1.183 0.165,-1.786c-0.289,0.853 -0.836,1.559 -1.49,2.053c-0.655,0.493 -1.412,0.782 -2.185,0.93c0.428,-0.272 0.816,-0.626 1.146,-1.045c-1.018,0.573 -2.191,0.635 -3.328,0.687c0.388,-0.367 0.583,-0.783 0.673,-1.365c-0.37,0.49 -0.841,0.873 -1.363,1.107c-0.167,-0.484 -0.536,-0.829 -0.787,-1.261c-0.43,-0.739 -0.488,-1.675 -0.532,-2.559c-0.219,0.417 -0.359,0.893 -0.408,1.385c-0.642,-1.271 -0.829,-2.807 -0.524,-4.214c-0.237,0.801 -0.476,1.618 -0.488,2.473c-0.195,-1.154 -0.012,-2.326 0.404,-3.383Z" style="fill:#e4e1dc;fill-rule:nonzero;"/></g></g><g><g><path d="M127.265,39.677c-0,0 -0.162,-3.668 -4.128,-5.415c1.123,0.911 1.123,0.911 1.08,1.082c-0.042,0.171 -7.163,-3.792 -16.165,-0.37c-0.434,0.236 -0.219,-0.25 0.349,-0.565c-2.154,0.312 -3.294,1.243 -3.294,1.243c0,-0 -0.23,-0.383 0.336,-0.731c-2.144,1.114 -5.154,4.758 -6.736,4.611c-0.516,0.877 -0.151,1.496 -0.151,1.496c0,0 -1.494,-0.989 -1.507,-2.565c-0.773,1.084 -0.258,2.572 -0.258,2.572c0,0 -0.974,-1.821 -0.382,-3.679c-0.684,0.752 -1.097,0.972 -1.097,0.972c-0,-0 1.388,-2.666 1.096,-4.776c-0.525,1.714 -0.99,2.262 -0.99,2.262c0,0 0.604,-5.987 3.584,-7.903c2.981,-1.916 6.221,-3.065 8.087,-3.266c-1.199,-0.272 -1.741,-0.181 -1.741,-0.181c0,-0 3.219,-0.452 4.844,-0.725c-1.881,-0.448 -2.492,-0.722 -2.492,-0.722c0,0 3.264,0.565 5.984,0.248c2.721,-0.318 4.709,0.956 6.705,0.42c-0.457,0.641 -0.757,0.805 -0.757,0.805c-0,-0 2.026,-0.168 2.446,0.168c-0.604,0.282 -0.908,0.4 -0.908,0.4c-0,0 3.338,0.513 4.035,0.873c-0,-0 -0.711,0.429 -1.303,0.386c2.134,0.658 3.269,2.049 3.345,2.97c-0.513,-0.514 -0.786,-0.492 -0.786,-0.492c0,0 2.533,4.059 2.399,6.714c-0.524,-1.117 -0.827,-1.463 -0.827,-1.463c-0,0 1.385,3.413 -0.768,5.631Z" style="fill:#f7fcf6;fill-rule:nonzero;"/><path d="M127.27,39.746c0.013,-0.001 0.024,-0.006 0.034,-0.016c1.716,-1.768 1.209,-4.307 0.92,-5.296c0.139,0.226 0.337,0.58 0.585,1.107c0.012,0.027 0.038,0.043 0.064,0.036c0.026,-0.006 0.044,-0.031 0.046,-0.062c0.121,-2.405 -1.879,-5.877 -2.326,-6.621c0.121,0.045 0.329,0.158 0.617,0.446c0.018,0.018 0.043,0.022 0.065,0.01c0.021,-0.013 0.033,-0.04 0.031,-0.068c-0.078,-0.932 -1.165,-2.231 -3.047,-2.917c0.491,-0.084 0.949,-0.358 0.973,-0.372c0.02,-0.012 0.032,-0.037 0.031,-0.064c-0.002,-0.027 -0.016,-0.051 -0.037,-0.062c-0.593,-0.306 -3.015,-0.712 -3.805,-0.838c0.153,-0.066 0.38,-0.166 0.679,-0.305c0.021,-0.01 0.034,-0.032 0.036,-0.057c0.002,-0.026 -0.008,-0.051 -0.026,-0.065c-0.351,-0.281 -1.712,-0.23 -2.259,-0.197c0.136,-0.121 0.337,-0.33 0.583,-0.674c0.016,-0.023 0.018,-0.056 0.004,-0.082c-0.014,-0.025 -0.039,-0.037 -0.064,-0.032c-1.009,0.271 -2.039,0.07 -3.129,-0.142c-1.045,-0.204 -2.227,-0.435 -3.568,-0.279c-2.679,0.315 -5.937,-0.241 -5.97,-0.247c-0.031,-0.005 -0.058,0.017 -0.064,0.051c-0.007,0.034 0.009,0.07 0.037,0.082c0.024,0.011 0.563,0.249 2.166,0.644c-1.604,0.26 -4.233,0.631 -4.487,0.667c-0.012,0.001 -0.019,0.002 -0.021,0.003c-0.032,0.005 -0.054,0.04 -0.049,0.078c0.006,0.037 0.039,0.07 0.067,0.059c0.001,0 0.005,-0 0.011,-0.001c0.068,-0.008 0.489,-0.051 1.311,0.099c-1.854,0.298 -4.826,1.368 -7.705,3.219c-1.555,1 -2.455,3.112 -2.936,4.707c-0.52,1.723 -0.676,3.233 -0.677,3.248c-0.004,0.029 0.01,0.058 0.033,0.072c0.023,0.013 0.05,0.008 0.067,-0.013c0.019,-0.021 0.431,-0.52 0.919,-2.018c0.136,2.01 -1.104,4.419 -1.117,4.445c-0.014,0.025 -0.011,0.059 0.007,0.082c0.017,0.024 0.046,0.031 0.068,0.019c0.016,-0.009 0.363,-0.197 0.944,-0.804c-0.435,1.778 0.451,3.466 0.461,3.483c0.016,0.031 0.05,0.042 0.077,0.027c0.027,-0.016 0.038,-0.054 0.027,-0.087c-0.005,-0.014 -0.448,-1.331 0.153,-2.355c0.123,1.484 1.47,2.393 1.53,2.433c0.024,0.016 0.053,0.01 0.072,-0.013c0.018,-0.023 0.019,-0.059 0.004,-0.086c-0.014,-0.023 -0.326,-0.579 0.133,-1.386c0.953,0.054 2.347,-1.142 3.821,-2.412c0.847,-0.73 1.719,-1.481 2.498,-1.97c-0.021,0.044 -0.036,0.09 -0.045,0.136c-0.036,0.19 0.045,0.327 0.048,0.333c0.019,0.032 0.056,0.04 0.082,0.018c0.011,-0.008 1.045,-0.837 2.962,-1.181c-0.222,0.177 -0.383,0.386 -0.331,0.511c0.055,0.134 0.243,0.032 0.305,-0.002c5.113,-1.943 10.397,-1.866 15.697,0.231c0.376,0.149 0.426,0.166 0.468,0.142c0.014,-0.008 0.027,-0.027 0.031,-0.044c0.047,-0.187 0.054,-0.215 -0.663,-0.801c1.701,0.891 2.579,2.15 3.023,3.086c0.525,1.109 0.572,2.019 0.572,2.028c0.001,0.027 0.015,0.051 0.037,0.062c0.008,0.004 0.018,0.006 0.027,0.005Zm0.757,-5.769c-0.01,0.001 -0.02,0.005 -0.029,0.013c-0.023,0.019 -0.031,0.055 -0.018,0.085c0.003,0.009 0.343,0.858 0.418,1.963c0.096,1.426 -0.269,2.602 -1.087,3.495c-0.033,-0.303 -0.152,-1.052 -0.572,-1.94c-0.494,-1.047 -1.517,-2.485 -3.583,-3.396c-0.028,-0.012 -0.059,0.002 -0.072,0.033c-0.013,0.031 -0.004,0.069 0.02,0.089c0.917,0.744 1.059,0.864 1.064,0.953c-0.066,-0.019 -0.204,-0.074 -0.359,-0.135c-5.325,-2.107 -10.633,-2.185 -15.777,-0.229c-0.08,0.043 -0.124,0.055 -0.147,0.058c0.032,-0.089 0.216,-0.313 0.542,-0.494c0.026,-0.014 0.039,-0.049 0.03,-0.082c-0.009,-0.033 -0.037,-0.055 -0.065,-0.05c-1.874,0.272 -3.001,1.021 -3.261,1.211c-0.01,-0.04 -0.017,-0.096 -0.004,-0.162c0.029,-0.145 0.148,-0.285 0.344,-0.406c0.028,-0.017 0.039,-0.057 0.024,-0.091c-0.014,-0.034 -0.047,-0.049 -0.077,-0.034c-0.886,0.461 -1.926,1.356 -2.931,2.221c-1.409,1.214 -2.868,2.468 -3.777,2.384c-0.02,-0.002 -0.04,0.009 -0.052,0.029c-0.354,0.602 -0.311,1.088 -0.237,1.354c-0.382,-0.308 -1.303,-1.174 -1.313,-2.382c-0,-0.029 -0.016,-0.055 -0.039,-0.066c-0.023,-0.01 -0.05,-0.002 -0.065,0.02c-0.467,0.654 -0.476,1.455 -0.405,2.003c-0.237,-0.677 -0.512,-1.856 -0.135,-3.038c0.009,-0.03 -0,-0.065 -0.023,-0.083c-0.023,-0.019 -0.053,-0.016 -0.073,0.005c-0.403,0.443 -0.712,0.7 -0.895,0.835c0.328,-0.691 1.239,-2.818 0.993,-4.596c-0.004,-0.032 -0.026,-0.056 -0.053,-0.06c-0.026,-0.004 -0.051,0.014 -0.06,0.044c-0.349,1.136 -0.672,1.757 -0.845,2.042c0.067,-0.5 0.25,-1.672 0.641,-2.966c0.474,-1.572 1.359,-3.652 2.882,-4.632c3.085,-1.983 6.273,-3.065 8.065,-3.258c0.029,-0.003 0.051,-0.031 0.052,-0.065c0,-0.035 -0.021,-0.065 -0.05,-0.072c-0.365,-0.083 -0.669,-0.132 -0.916,-0.161c1.067,-0.153 2.919,-0.422 4.02,-0.608c0.028,-0.005 0.049,-0.033 0.049,-0.066c-0,-0.034 -0.021,-0.064 -0.049,-0.071c-0.825,-0.196 -1.407,-0.359 -1.799,-0.481c1.116,0.147 3.35,0.37 5.288,0.144c1.325,-0.155 2.449,0.066 3.537,0.278c1.041,0.203 2.026,0.395 3,0.183c-0.377,0.492 -0.621,0.63 -0.623,0.632c-0.026,0.014 -0.038,0.048 -0.031,0.08c0.008,0.033 0.034,0.055 0.062,0.052c0.508,-0.042 1.813,-0.097 2.293,0.093c-0.513,0.237 -0.778,0.34 -0.78,0.341c-0.026,0.01 -0.042,0.04 -0.039,0.072c0.004,0.032 0.025,0.058 0.053,0.063c0.031,0.005 2.995,0.462 3.888,0.809c-0.226,0.118 -0.722,0.343 -1.147,0.311c-0.032,-0.002 -0.057,0.023 -0.061,0.058c-0.004,0.035 0.016,0.069 0.045,0.078c1.916,0.592 3.077,1.81 3.274,2.735c-0.449,-0.408 -0.696,-0.393 -0.707,-0.392c-0.022,0.002 -0.04,0.017 -0.048,0.039c-0.009,0.023 -0.006,0.05 0.006,0.07c0.025,0.039 2.366,3.821 2.392,6.42c-0.457,-0.939 -0.721,-1.245 -0.733,-1.259c-0.012,-0.014 -0.029,-0.021 -0.045,-0.02Z" style="fill:#adafb2;fill-rule:nonzero;"/></g><g><path d="M104.711,25.193c0.369,-0.246 0.737,-0.492 1.106,-0.738c0.285,0.015 0.704,0.062 1.272,0.19c-0.649,0.07 -1.466,0.257 -2.378,0.548Z" style="fill:none;fill-rule:nonzero;"/><path d="M95.312,38.328c-0,0 1.388,-2.666 1.096,-4.775c-0.526,1.713 -0.99,2.262 -0.99,2.262c-0,-0 0.603,-5.988 3.584,-7.904c1.944,-1.25 3.997,-2.171 5.708,-2.718c-1.124,0.75 -2.248,1.5 -3.373,2.25c0.154,0.072 0.308,0.143 0.462,0.216c-1.039,0.662 -1.856,1.781 -2.257,3.095c0.468,-0.22 0.935,-0.441 1.403,-0.662c-0.543,1.434 -1.087,2.869 -1.631,4.303c0.309,-0.3 0.617,-0.601 0.925,-0.902c-0.103,1.131 -0.206,2.261 -0.308,3.391c0.725,-0.811 1.45,-1.621 2.175,-2.432c-0.04,0.714 -0.08,1.429 -0.12,2.143c1.555,-2.712 4.391,-4.307 7.199,-4.051c0.548,-0.384 1.24,-0.19 1.348,0.564c0.521,-0.719 1.264,-1.208 2.063,-1.358c-0.19,0.431 -0.38,0.861 -0.571,1.292c1.839,-0.693 3.857,-0.758 5.755,-0.187c-0.052,-0.26 -0.103,-0.519 -0.155,-0.778c1.046,0.317 2.091,0.635 3.137,0.953c-0.252,-0.342 -0.504,-0.684 -0.755,-1.026c1.269,-0.02 2.551,0.658 3.401,1.8c-0.091,-0.408 -0.183,-0.815 -0.274,-1.223c0.808,0.66 1.616,1.32 2.424,1.98c-0.319,-0.676 -0.637,-1.352 -0.955,-2.028c1.221,0.856 2.259,2.084 2.981,3.527c-0.061,-1.805 -0.764,-3.588 -1.903,-4.829c0.611,0.665 1.223,1.33 1.834,1.995c-0.812,-1.604 -1.624,-3.209 -2.436,-4.814c0.631,0.424 1.261,0.849 1.892,1.273c0.733,1.344 1.983,3.938 1.888,5.824c-0.523,-1.116 -0.827,-1.462 -0.827,-1.462c0,0 1.386,3.412 -0.768,5.631c0,-0 -0.161,-3.668 -4.127,-5.416c1.122,0.912 1.122,0.912 1.08,1.083c-0.043,0.17 -7.164,-3.792 -16.166,-0.371c-0.433,0.237 -0.219,-0.25 0.35,-0.564c-2.154,0.311 -3.294,1.242 -3.294,1.242c-0,0 -0.23,-0.382 0.336,-0.73c-2.144,1.114 -5.155,4.758 -6.736,4.61c-0.516,0.878 -0.151,1.497 -0.151,1.497c-0,-0 -1.494,-0.99 -1.507,-2.566c-0.774,1.085 -0.258,2.573 -0.258,2.573c-0,-0 -0.975,-1.822 -0.383,-3.68c-0.683,0.752 -1.096,0.972 -1.096,0.972Z" style="fill:#e4e1dc;fill-rule:nonzero;"/></g></g></g></svg>