<?xml version="1.0" encoding="UTF-8" standalone="no"?>
<!DOCTYPE svg PUBLIC "-//W3C//DTD SVG 1.1//EN" "http://www.w3.org/Graphics/SVG/1.1/DTD/svg11.dtd">
<svg width="100%" height="100%" viewBox="0 0 970 382" version="1.1" xmlns="http://www.w3.org/2000/svg" xmlns:xlink="http://www.w3.org/1999/xlink" xml:space="preserve" xmlns:serif="http://www.serif.com/" style="fill-rule:evenodd;clip-rule:evenodd;stroke-linejoin:round;stroke-miterlimit:2;">
    <g transform="matrix(1,0,0,1,0,-854.126)">
        <g id="tibor.cc-logo-dark" serif:id="tibor.cc logo dark" transform="matrix(0.946477,0,0,0.372192,0,854.126)">
            <rect x="0" y="0" width="1024" height="1024" style="fill:none;"/>
            <g transform="matrix(2.26496,0,0,5.75974,-212.206,-1891.6)">
                <path d="M169.9,389.454L169.9,406.172L117.178,406.172L117.178,389.454L169.9,389.454ZM130.194,367.481L151.809,367.481L151.809,453.581C151.809,456.487 152.256,458.706 153.152,460.238C154.048,461.771 155.232,462.816 156.705,463.373C158.178,463.93 159.81,464.209 161.601,464.209C162.954,464.209 164.198,464.11 165.333,463.91C166.467,463.711 167.333,463.532 167.93,463.373L171.572,480.271C170.418,480.669 168.776,481.107 166.646,481.584C164.517,482.062 161.919,482.341 158.854,482.42C153.441,482.579 148.564,481.753 144.226,479.942C139.887,478.131 136.454,475.315 133.926,471.493C131.398,467.672 130.154,462.895 130.194,457.163L130.194,367.481Z" style="fill:rgb(50,1,62);fill-rule:nonzero;"/>
                <path d="M187.992,481.166L187.992,389.454L209.607,389.454L209.607,481.166L187.992,481.166ZM198.859,376.437C195.436,376.437 192.49,375.293 190.022,373.004C187.554,370.715 186.32,367.959 186.32,364.734C186.32,361.47 187.554,358.694 190.022,356.405C192.49,354.116 195.436,352.972 198.859,352.972C202.322,352.972 205.278,354.116 207.726,356.405C210.174,358.694 211.398,361.47 211.398,364.734C211.398,367.959 210.174,370.715 207.726,373.004C205.278,375.293 202.322,376.437 198.859,376.437Z" style="fill:rgb(50,1,62);fill-rule:nonzero;"/>
                <path d="M232.774,481.166L232.774,358.883L254.388,358.883L254.388,404.62L255.284,404.62C256.398,402.391 257.971,400.012 260.001,397.485C262.031,394.957 264.777,392.788 268.24,390.976C271.704,389.165 276.122,388.26 281.496,388.26C288.581,388.26 294.98,390.061 300.692,393.663C306.404,397.266 310.942,402.58 314.306,409.605C317.669,416.631 319.351,425.239 319.351,435.429C319.351,445.5 317.699,454.059 314.395,461.104C311.091,468.15 306.593,473.524 300.901,477.226C295.209,480.927 288.76,482.778 281.555,482.778C276.301,482.778 271.942,481.903 268.479,480.151C265.016,478.4 262.24,476.28 260.15,473.792C258.06,471.304 256.438,468.946 255.284,466.717L254.03,466.717L254.03,481.166L232.774,481.166ZM253.97,435.31C253.97,441.241 254.816,446.436 256.508,450.894C258.199,455.352 260.648,458.825 263.852,461.313C267.056,463.801 270.947,465.045 275.525,465.045C280.302,465.045 284.302,463.761 287.526,461.194C290.751,458.626 293.189,455.103 294.841,450.625C296.493,446.147 297.319,441.042 297.319,435.31C297.319,429.618 296.503,424.562 294.871,420.144C293.238,415.726 290.81,412.263 287.586,409.755C284.362,407.247 280.341,405.993 275.525,405.993C270.907,405.993 266.987,407.207 263.762,409.635C260.538,412.063 258.1,415.467 256.448,419.846C254.796,424.224 253.97,429.379 253.97,435.31Z" style="fill:rgb(50,1,62);fill-rule:nonzero;"/>
                <path d="M377.806,482.958C368.85,482.958 361.087,480.987 354.519,477.046C347.952,473.106 342.866,467.593 339.264,460.507C335.661,453.422 333.86,445.142 333.86,435.668C333.86,426.195 335.661,417.895 339.264,410.77C342.866,403.645 347.952,398.112 354.519,394.171C361.087,390.23 368.85,388.26 377.806,388.26C386.762,388.26 394.524,390.23 401.092,394.171C407.66,398.112 412.745,403.645 416.348,410.77C419.95,417.895 421.751,426.195 421.751,435.668C421.751,445.142 419.95,453.422 416.348,460.507C412.745,467.593 407.66,473.106 401.092,477.046C394.524,480.987 386.762,482.958 377.806,482.958ZM377.925,465.642C382.782,465.642 386.842,464.299 390.106,461.612C393.37,458.925 395.808,455.312 397.42,450.775C399.032,446.237 399.838,441.181 399.838,435.609C399.838,429.996 399.032,424.911 397.42,420.353C395.808,415.795 393.37,412.163 390.106,409.456C386.842,406.749 382.782,405.396 377.925,405.396C372.95,405.396 368.82,406.749 365.536,409.456C362.252,412.163 359.804,415.795 358.192,420.353C356.579,424.911 355.773,429.996 355.773,435.609C355.773,441.181 356.579,446.237 358.192,450.775C359.804,455.312 362.252,458.925 365.536,461.612C368.82,464.299 372.95,465.642 377.925,465.642Z" style="fill:rgb(50,1,62);fill-rule:nonzero;"/>
                <path d="M440.022,481.166L440.022,389.454L460.98,389.454L460.98,404.739L461.935,404.739C463.607,399.445 466.483,395.355 470.563,392.469C474.643,389.583 479.311,388.14 484.565,388.14C485.759,388.14 487.103,388.19 488.595,388.289C490.088,388.389 491.332,388.538 492.327,388.737L492.327,408.62C491.412,408.302 489.969,408.013 487.998,407.754C486.028,407.496 484.127,407.366 482.296,407.366C478.355,407.366 474.822,408.212 471.698,409.904C468.573,411.596 466.115,413.934 464.324,416.92C462.532,419.905 461.637,423.348 461.637,427.249L461.637,481.166L440.022,481.166Z" style="fill:rgb(50,1,62);fill-rule:nonzero;"/>
                <path d="M509.523,482.48C505.901,482.48 502.796,481.206 500.209,478.659C497.621,476.111 496.347,473.006 496.387,469.344C496.347,465.761 497.621,462.696 500.209,460.149C502.796,457.601 505.901,456.327 509.523,456.327C513.026,456.327 516.081,457.601 518.688,460.149C521.296,462.696 522.619,465.761 522.659,469.344C522.619,471.772 521.992,473.981 520.778,475.972C519.564,477.962 517.972,479.544 516.002,480.718C514.031,481.893 511.872,482.48 509.523,482.48Z" style="fill:rgb(50,1,62);fill-rule:nonzero;"/>
            </g>
        </g>
    </g>
</svg>
