<?xml version="1.0" encoding="UTF-8" standalone="no"?><!DOCTYPE svg PUBLIC "-//W3C//DTD SVG 1.1//EN" "http://www.w3.org/Graphics/SVG/1.1/DTD/svg11.dtd"><svg width="100%" height="100%" viewBox="0 0 485 191" version="1.1" xmlns="http://www.w3.org/2000/svg" xmlns:xlink="http://www.w3.org/1999/xlink" xml:space="preserve" xmlns:serif="http://www.serif.com/" style="fill-rule:evenodd;clip-rule:evenodd;stroke-linejoin:round;stroke-miterlimit:2;"><rect id="tibor.cc-logo-dark" serif:id="tibor.cc logo dark" x="0" y="0" width="484.596" height="190.563" style="fill:none;"/><g><path d="M81.686,65.422l0,17.92l-56.511,0l-0,-17.92l56.511,0Zm-42.56,-23.552l23.168,0l0,92.288c0,3.115 0.48,5.493 1.44,7.136c0.96,1.643 2.23,2.763 3.808,3.36c1.579,0.597 3.328,0.896 5.248,0.896c1.451,-0 2.784,-0.107 4,-0.32c1.216,-0.213 2.144,-0.405 2.784,-0.576l3.904,18.112c-1.237,0.426 -2.997,0.896 -5.28,1.408c-2.282,0.512 -5.066,0.81 -8.352,0.896c-5.802,0.17 -11.029,-0.715 -15.68,-2.656c-4.65,-1.942 -8.33,-4.96 -11.04,-9.056c-2.709,-4.096 -4.042,-9.216 -4,-15.36l0,-96.128Z" style="fill:#1b0023;fill-rule:nonzero;"/><path d="M101.078,163.726l0,-98.304l23.168,0l0,98.304l-23.168,-0Zm11.648,-112.256c-3.669,0 -6.827,-1.226 -9.472,-3.68c-2.645,-2.453 -3.968,-5.408 -3.968,-8.864c0,-3.498 1.323,-6.474 3.968,-8.927c2.645,-2.454 5.803,-3.68 9.472,-3.68c3.712,-0 6.88,1.226 9.504,3.68c2.624,2.453 3.936,5.429 3.936,8.927c0,3.456 -1.312,6.411 -3.936,8.864c-2.624,2.454 -5.792,3.68 -9.504,3.68Z" style="fill:#1b0023;fill-rule:nonzero;"/><path d="M149.078,163.726l-0,-131.072l23.168,0l-0,49.024l0.96,0c1.194,-2.389 2.88,-4.938 5.056,-7.648c2.176,-2.709 5.12,-5.034 8.832,-6.976c3.712,-1.941 8.448,-2.912 14.208,-2.912c7.594,0 14.453,1.931 20.576,5.792c6.122,3.862 10.986,9.558 14.591,17.088c3.606,7.531 5.408,16.757 5.408,27.68c0,10.795 -1.77,19.968 -5.312,27.52c-3.541,7.552 -8.362,13.312 -14.463,17.28c-6.102,3.968 -13.014,5.952 -20.736,5.952c-5.632,-0 -10.304,-0.939 -14.016,-2.816c-3.712,-1.878 -6.688,-4.15 -8.928,-6.816c-2.24,-2.667 -3.979,-5.195 -5.216,-7.584l-1.344,-0l-0,15.488l-22.784,-0Zm22.72,-49.152c-0,6.357 0.906,11.925 2.72,16.704c1.813,4.779 4.437,8.501 7.872,11.168c3.434,2.667 7.605,4 12.512,4c5.12,-0 9.408,-1.376 12.864,-4.128c3.456,-2.752 6.069,-6.528 7.84,-11.328c1.77,-4.8 2.656,-10.272 2.656,-16.416c-0,-6.101 -0.875,-11.52 -2.624,-16.256c-1.75,-4.736 -4.352,-8.448 -7.808,-11.136c-3.456,-2.688 -7.766,-4.032 -12.928,-4.032c-4.95,0 -9.152,1.302 -12.608,3.904c-3.456,2.603 -6.07,6.251 -7.84,10.944c-1.771,4.693 -2.656,10.219 -2.656,16.576Z" style="fill:#1b0023;fill-rule:nonzero;"/><path d="M304.533,165.646c-9.6,-0 -17.92,-2.112 -24.96,-6.336c-7.04,-4.224 -12.49,-10.133 -16.352,-17.728c-3.861,-7.595 -5.792,-16.469 -5.792,-26.624c0,-10.155 1.931,-19.051 5.792,-26.688c3.862,-7.637 9.312,-13.568 16.352,-17.792c7.04,-4.224 15.36,-6.336 24.96,-6.336c9.6,0 17.92,2.112 24.96,6.336c7.04,4.224 12.491,10.155 16.352,17.792c3.861,7.637 5.792,16.533 5.792,26.688c-0,10.155 -1.931,19.029 -5.792,26.624c-3.861,7.595 -9.312,13.504 -16.352,17.728c-7.04,4.224 -15.36,6.336 -24.96,6.336Zm0.128,-18.56c5.205,-0 9.557,-1.44 13.056,-4.32c3.499,-2.88 6.112,-6.752 7.84,-11.616c1.728,-4.864 2.592,-10.283 2.592,-16.256c-0,-6.016 -0.864,-11.467 -2.592,-16.352c-1.728,-4.885 -4.341,-8.778 -7.84,-11.68c-3.499,-2.901 -7.851,-4.352 -13.056,-4.352c-5.333,0 -9.76,1.451 -13.28,4.352c-3.52,2.902 -6.144,6.795 -7.872,11.68c-1.728,4.885 -2.592,10.336 -2.592,16.352c0,5.973 0.864,11.392 2.592,16.256c1.728,4.864 4.352,8.736 7.872,11.616c3.52,2.88 7.947,4.32 13.28,4.32Z" style="fill:#1b0023;fill-rule:nonzero;"/><path d="M371.221,163.726l-0,-98.304l22.464,0l-0,16.384l1.024,0c1.792,-5.674 4.874,-10.058 9.248,-13.152c4.373,-3.093 9.375,-4.64 15.007,-4.64c1.28,0 2.72,0.054 4.32,0.16c1.6,0.107 2.934,0.267 4,0.48l0,21.312c-0.981,-0.341 -2.528,-0.65 -4.64,-0.928c-2.112,-0.277 -4.149,-0.416 -6.112,-0.416c-4.224,0 -8.01,0.907 -11.359,2.72c-3.35,1.814 -5.984,4.32 -7.904,7.52c-1.92,3.2 -2.88,6.891 -2.88,11.072l-0,57.792l-23.168,-0Z" style="fill:#1b0023;fill-rule:nonzero;"/><path d="M445.716,165.134c-3.882,-0 -7.21,-1.366 -9.984,-4.096c-2.773,-2.731 -4.138,-6.059 -4.096,-9.984c-0.042,-3.84 1.323,-7.125 4.096,-9.856c2.774,-2.731 6.102,-4.096 9.984,-4.096c3.755,-0 7.03,1.365 9.824,4.096c2.795,2.731 4.214,6.016 4.256,9.856c-0.042,2.603 -0.714,4.97 -2.016,7.104c-1.301,2.133 -3.008,3.829 -5.12,5.088c-2.112,1.258 -4.426,1.888 -6.944,1.888Z" style="fill:#1b0023;fill-rule:nonzero;"/></g></svg>