<?xml version="1.0" encoding="UTF-8" standalone="no"?><!DOCTYPE svg PUBLIC "-//W3C//DTD SVG 1.1//EN" "http://www.w3.org/Graphics/SVG/1.1/DTD/svg11.dtd"><svg width="100%" height="100%" viewBox="0 0 2020 795" version="1.1" xmlns="http://www.w3.org/2000/svg" xmlns:xlink="http://www.w3.org/1999/xlink" xml:space="preserve" xmlns:serif="http://www.serif.com/" style="fill-rule:evenodd;clip-rule:evenodd;stroke-linejoin:round;stroke-miterlimit:2;"><rect id="tibor.cc-logo" serif:id="tibor.cc logo" x="0" y="0" width="2019.15" height="794.011" style="fill:none;"/><g><path d="M636.918,273.64l-21.343,40.126l-19.636,2.561l-26.466,-0l-14.514,2.561l-11.098,-2.561l-53.786,4.268l-15.367,-3.414l-3.415,0.853c-5.692,2.277 -15.368,4.554 -29.028,6.83l-30.734,0l-6.83,-2.561l-2.561,-0c-5.692,-0 -13.945,1.423 -24.759,4.269c-8.537,2.276 -19.067,3.415 -31.588,3.415l-13.66,-3.415l-2.561,10.245l-10.245,-0l-2.561,40.125l4.268,6.83l-1.707,12.806l-0,22.198c-0,23.335 -2.277,38.987 -6.83,46.955l6.83,9.391l-5.123,24.759l5.123,6.83l-9.391,13.66l-0,6.83l-5.123,9.391l3.415,18.782l-2.561,35.857l-5.122,16.221c0.569,0.569 0.853,1.992 0.853,4.269c0,-1.138 -0.853,2.561 -2.561,11.099c0,0.569 0.285,1.707 0.854,3.415l-0,4.268c-0,6.261 -1.992,12.237 -5.976,17.929l2.561,11.952c-0,3.984 -0.285,6.545 -0.854,7.684l-0.854,2.561c-1.138,3.415 -1.707,6.83 -1.707,10.245c-0,10.814 1.138,19.92 3.415,27.32c-12.522,2.276 -19.636,3.415 -21.344,3.415c-5.122,-0 -9.391,-0.57 -12.806,-1.708l-1.707,-0.854c-14.798,-3.415 -22.197,-17.074 -22.197,-40.979c0.569,-2.846 0.853,-6.83 0.853,-11.953c0,-4.553 -0.569,-10.956 -1.707,-19.209c-1.139,-8.253 -1.708,-14.371 -1.708,-18.355c0,-5.692 0.854,-10.53 2.562,-14.514l3.414,-35.003c-4.553,-6.261 -6.829,-11.383 -6.829,-15.367c-0,-1.139 0.569,-3.415 1.707,-6.83c-2.277,-4.554 -3.415,-7.969 -3.415,-10.245c0,-4.553 1.423,-8.253 4.269,-11.099c-0,-5.122 2.276,-12.237 6.83,-21.343c-1.139,-4.554 -1.708,-9.391 -1.708,-14.514c3.984,0 5.976,-1.992 5.976,-5.976c0,-1.138 -0.569,-2.988 -1.707,-5.549c-1.138,-2.562 -1.708,-5.265 -1.708,-8.111l2.562,3.415l-3.415,-7.684c-0,-10.814 1.423,-20.205 4.268,-28.173l0,-24.759l-4.268,-17.928l4.268,-33.296l-4.268,-24.758l1.707,-8.538l-12.806,0.854l-9.391,5.122l-6.83,-0.853l-0,3.415c-11.952,-0 -23.62,-0.854 -35.003,-2.562l-2.562,6.83l-33.295,-11.098l-44.395,-0.854l-28.173,7.684c-22.767,-19.352 -34.15,-33.296 -34.15,-41.834c0,-5.122 0.854,-10.245 2.561,-15.367l0,2.561l18.783,-16.221l16.221,0.854l57.2,10.245l14.514,-4.269l43.541,0.854l34.149,4.268l22.197,-8.537l7.684,-22.197l34.15,8.537l1.707,-1.707l1.708,2.561l11.952,14.514l3.415,0.853l11.952,-4.268l24.759,5.976c24.474,-4.553 38.987,-6.83 43.541,-6.83c6.829,-0 13.944,1.423 21.343,4.269c1.708,-0 5.122,0.284 10.245,0.853c7.968,-1.138 13.091,-1.707 15.367,-1.707l5.976,-0l29.028,-3.415l24.758,4.269l3.415,1.707l12.806,-4.269l17.929,4.269l42.687,-1.707l18.782,2.561l45.248,-0Z" style="fill:#115ed9;fill-rule:nonzero;"/><path d="M742.782,112.283c-0,6.83 -4.553,13.091 -13.66,18.782l0,1.708c-10.814,13.09 -20.205,20.489 -28.173,22.197l-12.806,15.367l-8.538,11.099l-19.636,5.122l-8.537,11.953l-13.66,6.83l-22.197,19.636l-13.66,-12.807l2.561,-21.343l9.391,-15.367c0.569,-7.969 5.123,-14.799 13.66,-20.49l0,-3.415l5.123,-3.415l0.853,-12.806l13.66,-3.415l0,-7.684l10.245,-1.707c2.277,-11.383 7.114,-19.636 14.514,-24.759l2.561,-1.707l5.122,-5.123l6.83,-20.489c37.565,9.106 56.347,23.051 56.347,41.833Zm87.081,452.482c0,13.091 -2.276,21.344 -6.829,24.759l-4.269,3.415l-4.269,11.952l-13.66,4.269c-3.984,9.106 -9.96,16.221 -17.928,21.343l-7.684,2.561l-11.099,11.953l-10.244,2.561c-3.985,10.245 -12.237,15.652 -24.759,16.221c-1.138,1.708 -3.699,5.123 -7.684,10.245c-8.537,5.692 -17.359,9.107 -26.465,10.245l-4.269,0.854l-5.976,7.683l-17.075,0l-13.66,10.245l-35.003,-25.612l-16.221,-33.296l-0.854,-41.833l-3.415,-10.245l10.245,-75.129l3.415,-3.415c-1.708,-8.538 -2.561,-16.79 -2.561,-24.759c-0,-5.122 1.707,-15.652 5.122,-31.588l4.269,-19.636c-1.139,-3.415 -3.415,-7.115 -6.83,-11.099l5.122,-16.221l1.708,-19.636l1.707,-2.561c-2.277,-5.122 -3.699,-10.814 -4.269,-17.075c0.57,-1.138 1.139,-2.703 1.708,-4.695c0.569,-1.992 0.854,-3.558 0.854,-4.696c-1.708,-5.122 -2.562,-9.96 -2.562,-14.514c0,-13.659 7.684,-19.92 23.051,-18.782l10.245,0.854c6.83,-3.415 11.099,-5.123 12.806,-5.123c11.384,0 19.067,6.261 23.051,18.783l0,3.415c2.277,6.83 3.415,13.375 3.415,19.636c0,5.122 -0.569,8.822 -1.707,11.098l-5.976,42.687l5.976,11.953c-0,10.245 -3.415,19.351 -10.245,27.319l3.415,10.245l-11.099,32.442c-1.138,14.229 -2.561,25.043 -4.268,32.443l-0,21.343l-5.123,11.952l0.854,8.538l-1.708,19.636l1.708,15.367l12.806,10.245l10.245,-1.707l1.707,-2.562l6.83,0.854l11.099,-3.415l9.391,-9.391l3.415,-5.122l5.976,-0.854l1.708,-4.269l2.561,-3.415l5.122,3.415l8.538,-8.537l5.122,0.853l1.708,-5.976l1.707,0l2.561,-6.83l7.684,-3.415l16.221,-7.683c13.091,-9.107 25.897,-13.66 38.418,-13.66l3.415,-0c6.261,3.984 10.53,9.106 12.806,15.367Z" style="fill:#115ed9;fill-rule:nonzero;"/><path d="M1210.63,556.228l-7.684,7.683l2.561,20.49l-19.636,23.905l0,10.245l-6.83,6.83l5.123,7.683l-17.075,16.221l-11.099,18.783l-17.928,10.245c-6.83,6.83 -14.229,10.529 -22.198,11.098l-6.829,15.368l-8.538,-7.684l-8.537,11.099c-0,-2.846 -2.277,-6.546 -6.83,-11.099l-5.976,-3.415l-6.83,7.684l-2.561,-0l-6.83,8.537l-11.099,-6.83l-17.929,7.684l-11.098,-10.245c-1.708,0.569 -4.269,0.854 -7.684,0.854c-9.106,-0 -20.49,-2.562 -34.149,-7.684l-11.953,-5.976l-4.269,-4.269l-13.659,-5.122l-5.977,-17.929c-9.675,-0.569 -19.636,-2.846 -29.88,-6.83l-17.929,-38.418l2.561,-5.976l-4.269,-6.83l0,-15.368l-5.122,-8.537l3.415,-10.245c-1.707,-6.261 -2.561,-11.668 -2.561,-16.221c-0,-1.138 0.284,-2.277 0.854,-3.415l-0,-29.881l3.414,-8.537l0.854,-50.371l2.561,-11.952l-4.268,-5.123l7.683,-23.904l-2.561,-7.684l0,-18.782l4.269,-5.123l-0.854,-11.952l-3.415,-8.538l7.684,-27.319l-5.976,-34.15l2.561,-2.561l-0,-11.099c0.569,-2.845 0.854,-7.399 0.854,-13.66c-0,-7.968 -0.57,-14.229 -1.708,-18.782l1.708,-5.976l-6.83,-24.758c1.138,-3.985 3.13,-6.83 5.976,-8.538c-1.138,-1.707 -2.561,-3.699 -4.269,-5.976c1.708,-3.415 2.561,-6.83 2.561,-10.245c0,-4.553 -1.992,-9.676 -5.976,-15.367c0,-5.123 0.854,-9.676 2.561,-13.66l-3.415,-8.537l4.269,-9.392l-13.66,-29.027l13.66,-2.561l0,-1.708l29.881,-15.367l15.367,17.929l1.708,8.537l12.806,9.391l-0.854,12.806c0,4.554 -0.569,10.814 -1.707,18.783c3.984,3.984 5.976,7.683 5.976,11.098c-0,1.708 -0.569,3.7 -1.708,5.976l3.415,3.415l-3.415,13.66l5.977,15.368l-0.854,5.976l11.099,5.122l-5.977,11.099l-5.122,22.197c-0.569,3.415 -1.708,8.537 -3.415,15.367c1.707,3.415 2.561,11.099 2.561,23.051l-1.707,6.83l2.561,6.83l-4.269,13.66c0,5.123 -0.854,10.245 -2.561,15.367l-0.854,2.562c2.846,2.845 5.976,6.545 9.391,11.098l-9.391,17.929l2.561,10.245l-1.707,5.122c0,4.553 -0.854,9.96 -2.561,16.221l0.854,3.415l-0.854,9.391l-0.854,12.806l-2.561,27.32l11.098,2.561l1.708,-26.466l5.976,-17.928l3.415,1.707l5.123,-12.806c2.276,-10.245 6.829,-19.92 13.659,-29.027c1.139,-2.277 2.846,-4.553 5.123,-6.83l2.561,-2.561l0,1.707l3.415,-10.245l10.245,-11.098l5.976,-5.976l0.854,-3.415l5.122,-6.83c0,-7.399 2.561,-12.806 7.684,-16.221l1.707,-6.83l11.099,-3.415l4.269,-2.561l1.707,-5.123l-0.854,-11.952l12.807,-2.561l6.829,-2.562l-5.976,-5.976l13.66,-3.415l14.514,-11.098l26.466,-0l16.221,9.391l5.122,0.853l14.514,20.49l0.853,8.538l6.83,0.853l2.562,17.929l8.537,6.83l0,12.806l5.122,5.976l5.977,3.415l3.415,27.32l-0,2.561c-0,2.846 1.707,6.688 5.122,11.526c3.415,4.837 5.123,8.964 5.123,12.379c-0,3.415 -0.854,6.83 -2.562,10.245l10.245,4.268c-1.138,7.969 -3.13,14.229 -5.976,18.783l2.561,18.782c2.277,5.692 3.415,9.96 3.415,12.806c0,1.707 -0.569,4.838 -1.707,9.391l-0.854,36.711l3.415,7.684l-3.415,13.659l4.269,15.368Zm-57.201,-64.031l-1.707,-15.367l-0,-14.514l-5.977,-39.272l-7.683,-28.173l-11.099,-24.759l-18.782,-29.88l-4.269,1.707l-3.415,4.269l-4.269,-0c-2.276,10.245 -8.537,15.652 -18.782,16.221c-4.553,6.261 -10.529,14.798 -17.928,25.612l-10.245,9.391l-3.415,12.806l-8.538,10.245l-8.537,21.344c-0,9.675 -3.7,20.205 -11.099,31.588l-5.122,7.684l0.854,13.66l-13.66,18.782l-6.83,29.881l-5.976,3.415c-0,0.569 0.284,1.707 0.853,3.415l0,4.268c0,10.245 -2.561,20.49 -7.683,30.735l5.122,15.367l-10.245,4.269l-1.707,3.415l-6.83,6.83l18.782,4.269l11.099,5.976l17.075,-2.561l15.367,6.829l-0,11.953l3.415,3.415l20.49,-0l13.66,-2.561c3.415,-5.123 8.537,-7.684 15.367,-7.684l2.561,-0l6.83,-2.561l-3.415,-10.245l23.905,-0c5.122,-14.798 14.513,-27.889 28.173,-39.272l0,-8.538l10.245,-18.782l0,-19.636l2.561,-22.197l-1.707,-13.66l2.561,-7.684Z" style="fill:#115ed9;fill-rule:nonzero;"/><path d="M1591.4,489.636l-5.123,15.367c0,14.799 -0.853,26.466 -2.561,35.004l-5.122,8.537l-0,9.391l-4.269,5.976l-2.561,11.953l-9.391,9.391l-5.977,21.343l-6.829,2.562l-3.415,9.391l-10.245,5.976l-6.83,14.514l-10.245,5.122l-0.854,10.245l-16.221,5.976c-7.399,10.245 -16.506,16.79 -27.32,19.636l-3.415,0.854c-7.968,11.952 -18.497,17.928 -31.588,17.928c-5.692,3.415 -12.237,5.123 -19.636,5.123l-8.537,5.976l-8.538,2.561l-11.098,8.538l-11.099,-0.854l-11.952,3.415l-14.514,-5.976l-36.711,-2.562l-12.806,-19.636l-18.782,-19.636l4.268,-13.659l-12.806,-29.028l5.977,-11.098l-4.269,-20.49l4.269,-12.806c-1.139,-7.968 -1.708,-13.66 -1.708,-17.075c0,-10.814 2.846,-18.782 8.537,-23.905c0.57,-5.691 4.269,-15.082 11.099,-28.173l4.269,-0l-1.708,-5.976l2.562,-11.953l-0,-12.806c4.553,-5.122 7.114,-8.537 7.683,-10.245l-2.561,-11.952l0,-3.415c3.984,-7.968 5.976,-16.221 5.976,-24.758l17.929,-24.759c-0,0 0.711,-0.569 2.134,-1.707c1.423,-1.139 2.704,-2.277 3.842,-3.415l-0.854,-3.415l3.415,-0l12.806,-14.514l0.854,-19.636l21.343,-7.683c7.969,-5.123 13.091,-13.66 15.368,-25.613l11.098,0c6.261,-3.415 11.953,-5.122 17.075,-5.122c5.123,-0 9.961,1.138 14.514,3.415l9.391,0.854l22.197,-8.538l11.953,11.099l9.391,5.976l6.83,-0l12.806,6.83l6.83,-0c7.399,6.83 15.936,16.221 25.612,28.173l1.707,4.269l5.977,3.415l17.928,23.051l16.221,40.126l0,8.537l7.684,29.881Zm-56.347,20.49l-0.854,-4.269c-3.984,-3.984 -6.261,-8.253 -6.83,-12.806l2.562,-4.269l-7.684,-16.221l1.707,-16.221l-3.415,-4.269c-7.399,-5.691 -11.383,-10.244 -11.952,-13.659c-5.122,-2.277 -7.684,-7.969 -7.684,-17.075l-5.122,-0.854l-10.245,-17.075l-7.684,-5.976l-17.928,-6.83l-6.83,-1.707c-3.415,-0 -5.692,-1.139 -6.83,-3.415l-17.075,18.782l-11.098,23.905l-17.929,9.391l-2.561,9.391l-8.538,4.269l-3.415,22.197l-10.244,5.122c-2.277,7.969 -3.415,15.368 -3.415,22.198l-13.66,12.806l4.268,2.561c0,6.83 -2.561,12.806 -7.683,17.929c-1.708,5.122 -3.984,10.814 -6.83,17.074l-0,6.83l-2.561,3.415l0.853,10.245l-9.391,23.051l1.708,4.269l-0,23.905l-3.415,11.952l0.853,11.952l7.684,11.099l11.952,4.269l4.269,1.707l6.83,-3.415l22.197,1.708l3.415,-8.538l3.415,0c3.415,0 5.407,0.854 5.976,2.561l7.684,-2.561l6.83,2.561l11.099,-7.683l1.707,-2.561l7.684,-1.708c3.984,-6.261 13.375,-12.521 28.173,-18.782l1.708,-4.269l17.075,-11.952l9.391,-13.66l13.66,-6.83l0.853,-4.269l4.269,-9.391l-0,-11.099l10.245,-8.537l3.415,-5.976l4.269,-5.123c-2.277,-6.829 -3.415,-11.667 -3.415,-14.513c-0,-5.123 1.707,-10.53 5.122,-16.221l3.415,-3.415Z" style="fill:#115ed9;fill-rule:nonzero;"/><path d="M1979.85,371.82l-6.83,28.173l-31.589,4.269l-17.074,11.099l-11.099,-5.123l-11.952,6.83l-12.807,5.123l-8.537,5.976l0,3.415l-17.929,8.537l-11.952,15.367l-5.976,0c-9.107,9.676 -15.652,15.652 -19.636,17.929l-11.952,19.636l-4.269,1.708c-1.708,4.553 -3.7,11.383 -5.976,20.489l-11.953,4.269l-5.122,10.245l-6.83,8.537l-1.708,12.806l-6.829,2.562l-0,12.806l-2.562,2.561c1.708,2.846 3.7,5.976 5.976,9.391l-12.806,5.122l-1.707,11.099l-8.538,14.514l5.123,11.098l-11.099,15.368c1.139,5.691 1.708,9.675 1.708,11.952l-0,3.415c-0.569,1.707 -0.854,3.13 -0.854,4.269l1.708,7.683l14.513,15.368l-11.099,19.636l-10.244,7.683l-23.905,11.953l-31.589,-12.806l0,-19.636l-3.414,-7.684l2.561,-12.806c-1.139,-9.107 -1.708,-15.937 -1.708,-20.49c0,-1.707 0.285,-3.984 0.854,-6.83l0,-5.976l-0.854,-8.537c-3.984,-3.985 -5.976,-8.538 -5.976,-13.66c0,-4.554 1.992,-9.676 5.976,-15.368c0,-2.845 -0.569,-11.383 -1.707,-25.612l2.561,-2.561l-2.561,-11.099l1.707,-10.245l-1.707,-5.976l2.561,-19.636l-5.122,-8.537l3.415,-9.391l-3.415,-11.099c0.569,-3.415 0.853,-7.968 0.853,-13.66c0,-8.537 -1.138,-14.229 -3.415,-17.075l3.415,-5.122l-3.415,-15.367l-7.683,-11.099l4.268,-13.66l-3.415,-5.122l-3.415,-20.49l0,-6.83c-2.845,-3.415 -4.268,-7.684 -4.268,-12.806c-0,-11.383 12.521,-21.059 37.564,-29.027l21.344,4.268l4.269,16.222l8.537,11.098l-2.561,23.051c1.707,11.383 3.699,23.905 5.976,37.565l2.561,13.66c0.569,1.138 1.138,4.268 1.708,9.391c-0,3.415 -1.423,7.114 -4.269,11.098l2.561,17.075l-1.707,18.782l-3.415,8.538l2.561,3.415l1.707,8.537c3.415,-3.984 5.407,-8.253 5.977,-12.806l3.415,-12.806c1.707,-3.415 4.268,-5.976 7.683,-7.684l3.415,-12.806l11.953,-6.83l1.707,-10.245l9.391,-10.244l6.83,-12.807c7.399,-7.968 14.514,-13.09 21.344,-15.367l1.707,-2.561l7.684,-11.952l8.537,-1.708l2.561,-2.561l3.415,-5.123l9.391,-5.122l5.123,-5.976l5.122,0.853l6.83,-3.414l3.415,-5.123l10.245,-5.122l14.514,-9.391l20.489,-6.83c7.969,-1.139 12.237,-1.708 12.807,-1.708l-0,0.854c-0.57,-0 -0.854,0.284 -0.854,0.854l0.854,-0c2.276,-0 5.691,-1.139 10.244,-3.415c2.846,-2.277 6.83,-3.415 11.953,-3.415c2.276,-0 6.261,0.569 11.952,1.707c14.798,0.569 23.051,7.399 24.759,20.49Z" style="fill:#115ed9;fill-rule:nonzero;"/></g></svg>